<?xml version="1.0" encoding="UTF-8" standalone="no"?>
<!DOCTYPE svg PUBLIC "-//W3C//DTD SVG 1.1//EN" "http://www.w3.org/Graphics/SVG/1.1/DTD/svg11.dtd">
<svg width="100%" height="100%" viewBox="0 0 1100 250" version="1.1" xmlns="http://www.w3.org/2000/svg" xmlns:xlink="http://www.w3.org/1999/xlink" xml:space="preserve" xmlns:serif="http://www.serif.com/" style="fill-rule:evenodd;clip-rule:evenodd;stroke-linecap:round;stroke-linejoin:round;stroke-miterlimit:1.5;">
    <g transform="matrix(1,0,0,1,-813.531,-1026.8)">
        <g transform="matrix(6.59992,0,0,1.88002,0,0)">
            <g transform="matrix(0.877211,0,0,0.917935,101.1,-4.1292)">
                <g transform="matrix(0.169184,0,0,0.452248,0.518085,242.53)">
                    <rect x="146.28" y="789.301" width="1123.03" height="320.323" style="fill:none;"/>
                </g>
                <g transform="matrix(0.118094,0,0,0.396183,-421.329,-782.781)">
                    <g transform="matrix(134.073,0,0,134.073,4291.39,3728.83)">
                        <path d="M0.475,-0.017C0.475,-0.013 0.474,-0.01 0.472,-0.008C0.471,-0.005 0.468,-0.003 0.464,-0.001C0.46,0 0.455,0.001 0.448,0.002C0.441,0.003 0.433,0.003 0.423,0.003C0.413,0.003 0.404,0.003 0.398,0.002C0.391,0.001 0.386,0 0.382,-0.001C0.378,-0.003 0.375,-0.005 0.373,-0.008C0.372,-0.01 0.371,-0.013 0.371,-0.017L0.371,-0.065C0.348,-0.041 0.325,-0.022 0.3,-0.009C0.275,0.005 0.248,0.011 0.218,0.011C0.185,0.011 0.157,0.005 0.134,-0.008C0.111,-0.021 0.092,-0.038 0.078,-0.06C0.063,-0.082 0.053,-0.107 0.046,-0.136C0.04,-0.166 0.037,-0.196 0.037,-0.229C0.037,-0.267 0.041,-0.302 0.049,-0.333C0.057,-0.364 0.069,-0.39 0.085,-0.412C0.101,-0.434 0.121,-0.451 0.145,-0.462C0.169,-0.474 0.196,-0.48 0.227,-0.48C0.251,-0.48 0.274,-0.475 0.293,-0.465C0.313,-0.455 0.333,-0.441 0.353,-0.421L0.353,-0.657C0.353,-0.66 0.353,-0.663 0.355,-0.666C0.357,-0.669 0.36,-0.671 0.365,-0.673C0.37,-0.674 0.376,-0.676 0.384,-0.677C0.392,-0.678 0.402,-0.678 0.414,-0.678C0.426,-0.678 0.436,-0.678 0.443,-0.677C0.451,-0.676 0.457,-0.674 0.462,-0.673C0.466,-0.671 0.47,-0.669 0.472,-0.666C0.474,-0.663 0.475,-0.66 0.475,-0.657L0.475,-0.017ZM0.353,-0.308C0.335,-0.33 0.318,-0.347 0.302,-0.358C0.286,-0.37 0.269,-0.376 0.251,-0.376C0.236,-0.376 0.222,-0.372 0.21,-0.364C0.199,-0.356 0.189,-0.345 0.182,-0.332C0.175,-0.319 0.17,-0.304 0.167,-0.287C0.163,-0.271 0.162,-0.254 0.162,-0.237C0.162,-0.219 0.163,-0.201 0.166,-0.184C0.169,-0.166 0.174,-0.151 0.18,-0.137C0.187,-0.124 0.196,-0.113 0.207,-0.105C0.218,-0.097 0.232,-0.093 0.249,-0.093C0.257,-0.093 0.266,-0.094 0.274,-0.096C0.282,-0.099 0.29,-0.103 0.298,-0.108C0.306,-0.114 0.315,-0.121 0.324,-0.13C0.333,-0.139 0.342,-0.15 0.353,-0.163L0.353,-0.308Z" style="fill:rgb(2,70,100);fill-rule:nonzero;"/>
                    </g>
                    <g transform="matrix(134.073,0,0,134.073,4363.34,3728.83)">
                        <path d="M0.502,-0.239C0.502,-0.202 0.497,-0.168 0.487,-0.137C0.478,-0.107 0.463,-0.08 0.443,-0.058C0.423,-0.036 0.398,-0.019 0.368,-0.007C0.338,0.005 0.303,0.011 0.263,0.011C0.224,0.011 0.191,0.006 0.162,-0.005C0.133,-0.016 0.11,-0.031 0.091,-0.052C0.072,-0.072 0.058,-0.097 0.049,-0.127C0.04,-0.157 0.035,-0.192 0.035,-0.23C0.035,-0.267 0.04,-0.301 0.05,-0.332C0.06,-0.363 0.075,-0.389 0.095,-0.411C0.115,-0.433 0.139,-0.45 0.169,-0.462C0.199,-0.474 0.234,-0.48 0.274,-0.48C0.313,-0.48 0.347,-0.475 0.375,-0.464C0.404,-0.454 0.428,-0.438 0.447,-0.417C0.465,-0.397 0.479,-0.372 0.488,-0.342C0.497,-0.312 0.502,-0.278 0.502,-0.239ZM0.375,-0.234C0.375,-0.255 0.374,-0.275 0.37,-0.293C0.367,-0.311 0.361,-0.327 0.353,-0.34C0.345,-0.354 0.334,-0.364 0.321,-0.372C0.307,-0.379 0.29,-0.383 0.27,-0.383C0.251,-0.383 0.235,-0.379 0.222,-0.373C0.208,-0.366 0.197,-0.356 0.188,-0.344C0.179,-0.331 0.173,-0.315 0.168,-0.297C0.164,-0.279 0.162,-0.258 0.162,-0.235C0.162,-0.214 0.163,-0.194 0.167,-0.176C0.171,-0.158 0.176,-0.142 0.184,-0.129C0.192,-0.116 0.203,-0.105 0.217,-0.098C0.23,-0.091 0.247,-0.087 0.268,-0.087C0.286,-0.087 0.302,-0.09 0.316,-0.097C0.33,-0.104 0.341,-0.113 0.35,-0.126C0.358,-0.139 0.365,-0.154 0.369,-0.172C0.373,-0.19 0.375,-0.211 0.375,-0.234Z" style="fill:rgb(2,70,100);fill-rule:nonzero;"/>
                    </g>
                    <g transform="matrix(134.073,0,0,134.073,4435.15,3728.83)">
                        <path d="M0.728,-0.453C0.728,-0.45 0.728,-0.445 0.727,-0.44C0.726,-0.435 0.724,-0.427 0.721,-0.417L0.605,-0.023C0.603,-0.018 0.601,-0.013 0.599,-0.01C0.596,-0.007 0.592,-0.004 0.587,-0.002C0.581,-0 0.574,0.001 0.564,0.002C0.554,0.003 0.541,0.003 0.525,0.003C0.509,0.003 0.496,0.003 0.486,0.002C0.476,0.001 0.468,-0 0.462,-0.002C0.456,-0.004 0.452,-0.007 0.45,-0.01C0.447,-0.014 0.445,-0.018 0.444,-0.023L0.371,-0.288L0.37,-0.292L0.369,-0.288L0.301,-0.023C0.3,-0.018 0.298,-0.013 0.296,-0.01C0.293,-0.007 0.289,-0.004 0.283,-0.002C0.277,-0 0.269,0.001 0.259,0.002C0.249,0.003 0.236,0.003 0.22,0.003C0.204,0.003 0.191,0.003 0.181,0.002C0.171,0.001 0.163,-0 0.157,-0.002C0.152,-0.004 0.148,-0.007 0.145,-0.01C0.142,-0.014 0.14,-0.018 0.139,-0.023L0.024,-0.417C0.021,-0.427 0.019,-0.434 0.018,-0.44C0.017,-0.445 0.017,-0.45 0.017,-0.453C0.017,-0.456 0.018,-0.459 0.02,-0.462C0.022,-0.464 0.025,-0.466 0.03,-0.468C0.034,-0.469 0.041,-0.47 0.049,-0.471C0.057,-0.471 0.067,-0.472 0.079,-0.472C0.092,-0.472 0.102,-0.471 0.11,-0.471C0.118,-0.47 0.125,-0.469 0.129,-0.467C0.134,-0.466 0.137,-0.463 0.139,-0.461C0.141,-0.458 0.142,-0.455 0.143,-0.451L0.229,-0.131L0.23,-0.125L0.231,-0.131L0.313,-0.451C0.313,-0.455 0.315,-0.458 0.317,-0.461C0.319,-0.463 0.322,-0.466 0.327,-0.467C0.331,-0.469 0.337,-0.47 0.344,-0.471C0.352,-0.471 0.362,-0.472 0.374,-0.472C0.386,-0.472 0.396,-0.471 0.403,-0.47C0.411,-0.47 0.417,-0.469 0.421,-0.467C0.426,-0.466 0.429,-0.464 0.43,-0.461C0.432,-0.459 0.434,-0.456 0.435,-0.453L0.521,-0.13L0.523,-0.125L0.524,-0.131L0.607,-0.451C0.608,-0.455 0.609,-0.458 0.611,-0.461C0.613,-0.463 0.616,-0.466 0.621,-0.467C0.625,-0.469 0.631,-0.47 0.639,-0.471C0.647,-0.471 0.657,-0.472 0.669,-0.472C0.681,-0.472 0.691,-0.471 0.698,-0.471C0.706,-0.47 0.712,-0.469 0.717,-0.468C0.721,-0.466 0.724,-0.464 0.726,-0.462C0.727,-0.459 0.728,-0.456 0.728,-0.453Z" style="fill:rgb(2,70,100);fill-rule:nonzero;"/>
                    </g>
                    <g transform="matrix(134.073,0,0,134.073,4535.05,3728.83)">
                        <path d="M0.478,-0.017C0.478,-0.013 0.477,-0.01 0.475,-0.008C0.473,-0.006 0.469,-0.004 0.465,-0.002C0.46,-0 0.454,0.001 0.446,0.002C0.438,0.003 0.428,0.003 0.417,0.003C0.404,0.003 0.394,0.003 0.386,0.002C0.378,0.001 0.372,-0 0.368,-0.002C0.363,-0.004 0.36,-0.006 0.358,-0.008C0.356,-0.01 0.355,-0.013 0.355,-0.017L0.355,-0.265C0.355,-0.286 0.353,-0.303 0.35,-0.315C0.347,-0.327 0.343,-0.337 0.337,-0.346C0.331,-0.355 0.323,-0.361 0.314,-0.366C0.305,-0.371 0.294,-0.373 0.282,-0.373C0.266,-0.373 0.25,-0.367 0.234,-0.356C0.218,-0.345 0.202,-0.328 0.185,-0.306L0.185,-0.017C0.185,-0.013 0.184,-0.01 0.182,-0.008C0.18,-0.006 0.176,-0.004 0.172,-0.002C0.167,-0 0.161,0.001 0.153,0.002C0.145,0.003 0.135,0.003 0.123,0.003C0.111,0.003 0.101,0.003 0.093,0.002C0.085,0.001 0.079,-0 0.074,-0.002C0.07,-0.004 0.066,-0.006 0.064,-0.008C0.063,-0.01 0.062,-0.013 0.062,-0.017L0.062,-0.452C0.062,-0.455 0.062,-0.458 0.064,-0.461C0.066,-0.463 0.069,-0.465 0.073,-0.467C0.077,-0.468 0.082,-0.47 0.089,-0.47C0.096,-0.471 0.104,-0.472 0.114,-0.472C0.125,-0.472 0.133,-0.471 0.14,-0.47C0.147,-0.47 0.152,-0.468 0.156,-0.467C0.16,-0.465 0.162,-0.463 0.164,-0.461C0.166,-0.458 0.167,-0.455 0.167,-0.452L0.167,-0.402C0.191,-0.428 0.215,-0.447 0.24,-0.46C0.265,-0.473 0.291,-0.48 0.318,-0.48C0.347,-0.48 0.372,-0.475 0.393,-0.465C0.413,-0.456 0.43,-0.442 0.442,-0.426C0.455,-0.409 0.464,-0.389 0.469,-0.367C0.475,-0.344 0.478,-0.317 0.478,-0.286L0.478,-0.017Z" style="fill:rgb(2,70,100);fill-rule:nonzero;"/>
                    </g>
                    <g transform="matrix(134.073,0,0,134.073,4607,3728.83)">
                        <path d="M0.185,-0.017C0.185,-0.013 0.184,-0.01 0.182,-0.008C0.18,-0.006 0.176,-0.004 0.172,-0.002C0.167,-0 0.161,0.001 0.153,0.002C0.145,0.003 0.135,0.003 0.123,0.003C0.111,0.003 0.101,0.003 0.093,0.002C0.085,0.001 0.079,-0 0.074,-0.002C0.07,-0.004 0.066,-0.006 0.064,-0.008C0.063,-0.01 0.062,-0.013 0.062,-0.017L0.062,-0.659C0.062,-0.662 0.063,-0.665 0.064,-0.667C0.066,-0.67 0.07,-0.672 0.074,-0.674C0.079,-0.676 0.085,-0.677 0.093,-0.678C0.101,-0.679 0.111,-0.68 0.123,-0.68C0.135,-0.68 0.145,-0.679 0.153,-0.678C0.161,-0.677 0.167,-0.676 0.172,-0.674C0.176,-0.672 0.18,-0.67 0.182,-0.667C0.184,-0.665 0.185,-0.662 0.185,-0.659L0.185,-0.017Z" style="fill:rgb(2,70,100);fill-rule:nonzero;"/>
                    </g>
                    <g transform="matrix(134.073,0,0,134.073,4639.93,3728.83)">
                        <path d="M0.502,-0.239C0.502,-0.202 0.497,-0.168 0.487,-0.137C0.478,-0.107 0.463,-0.08 0.443,-0.058C0.423,-0.036 0.398,-0.019 0.368,-0.007C0.338,0.005 0.303,0.011 0.263,0.011C0.224,0.011 0.191,0.006 0.162,-0.005C0.133,-0.016 0.11,-0.031 0.091,-0.052C0.072,-0.072 0.058,-0.097 0.049,-0.127C0.04,-0.157 0.035,-0.192 0.035,-0.23C0.035,-0.267 0.04,-0.301 0.05,-0.332C0.06,-0.363 0.075,-0.389 0.095,-0.411C0.115,-0.433 0.139,-0.45 0.169,-0.462C0.199,-0.474 0.234,-0.48 0.274,-0.48C0.313,-0.48 0.347,-0.475 0.375,-0.464C0.404,-0.454 0.428,-0.438 0.447,-0.417C0.465,-0.397 0.479,-0.372 0.488,-0.342C0.497,-0.312 0.502,-0.278 0.502,-0.239ZM0.375,-0.234C0.375,-0.255 0.374,-0.275 0.37,-0.293C0.367,-0.311 0.361,-0.327 0.353,-0.34C0.345,-0.354 0.334,-0.364 0.321,-0.372C0.307,-0.379 0.29,-0.383 0.27,-0.383C0.251,-0.383 0.235,-0.379 0.222,-0.373C0.208,-0.366 0.197,-0.356 0.188,-0.344C0.179,-0.331 0.173,-0.315 0.168,-0.297C0.164,-0.279 0.162,-0.258 0.162,-0.235C0.162,-0.214 0.163,-0.194 0.167,-0.176C0.171,-0.158 0.176,-0.142 0.184,-0.129C0.192,-0.116 0.203,-0.105 0.217,-0.098C0.23,-0.091 0.247,-0.087 0.268,-0.087C0.286,-0.087 0.302,-0.09 0.316,-0.097C0.33,-0.104 0.341,-0.113 0.35,-0.126C0.358,-0.139 0.365,-0.154 0.369,-0.172C0.373,-0.19 0.375,-0.211 0.375,-0.234Z" style="fill:rgb(2,70,100);fill-rule:nonzero;"/>
                    </g>
                    <g transform="matrix(134.073,0,0,134.073,4712,3728.83)">
                        <path d="M0.433,-0.015C0.433,-0.011 0.431,-0.007 0.428,-0.004C0.424,-0.002 0.419,0 0.412,0.001C0.405,0.002 0.395,0.003 0.381,0.003C0.367,0.003 0.356,0.002 0.349,0.001C0.343,0 0.338,-0.002 0.335,-0.004C0.332,-0.007 0.331,-0.011 0.331,-0.015L0.331,-0.05C0.313,-0.031 0.293,-0.016 0.27,-0.005C0.247,0.006 0.221,0.011 0.193,0.011C0.17,0.011 0.149,0.008 0.13,0.002C0.11,-0.004 0.094,-0.013 0.079,-0.025C0.065,-0.037 0.054,-0.051 0.046,-0.069C0.039,-0.086 0.035,-0.107 0.035,-0.13C0.035,-0.156 0.04,-0.178 0.05,-0.197C0.059,-0.215 0.074,-0.231 0.094,-0.243C0.114,-0.255 0.138,-0.264 0.167,-0.27C0.197,-0.276 0.231,-0.279 0.27,-0.279L0.312,-0.279L0.312,-0.305C0.312,-0.319 0.311,-0.331 0.308,-0.341C0.305,-0.351 0.301,-0.36 0.294,-0.367C0.288,-0.374 0.279,-0.379 0.269,-0.382C0.258,-0.385 0.245,-0.387 0.229,-0.387C0.209,-0.387 0.191,-0.384 0.175,-0.38C0.158,-0.375 0.144,-0.37 0.132,-0.365C0.119,-0.359 0.109,-0.354 0.101,-0.35C0.093,-0.345 0.086,-0.343 0.081,-0.343C0.077,-0.343 0.074,-0.344 0.071,-0.346C0.068,-0.348 0.066,-0.352 0.064,-0.356C0.062,-0.36 0.061,-0.365 0.06,-0.372C0.059,-0.378 0.059,-0.385 0.059,-0.392C0.059,-0.402 0.059,-0.41 0.061,-0.416C0.063,-0.422 0.066,-0.427 0.07,-0.432C0.075,-0.437 0.083,-0.442 0.094,-0.448C0.106,-0.453 0.119,-0.458 0.134,-0.463C0.15,-0.468 0.166,-0.472 0.184,-0.475C0.202,-0.478 0.221,-0.48 0.24,-0.48C0.274,-0.48 0.304,-0.477 0.328,-0.47C0.352,-0.463 0.372,-0.453 0.388,-0.439C0.403,-0.425 0.415,-0.408 0.422,-0.386C0.429,-0.364 0.433,-0.338 0.433,-0.308L0.433,-0.015ZM0.312,-0.202L0.265,-0.202C0.245,-0.202 0.228,-0.2 0.214,-0.197C0.2,-0.194 0.189,-0.19 0.18,-0.184C0.171,-0.178 0.165,-0.171 0.161,-0.163C0.157,-0.155 0.155,-0.145 0.155,-0.134C0.155,-0.116 0.161,-0.102 0.172,-0.091C0.184,-0.081 0.2,-0.076 0.22,-0.076C0.237,-0.076 0.253,-0.08 0.268,-0.089C0.282,-0.098 0.297,-0.111 0.312,-0.127L0.312,-0.202Z" style="fill:rgb(2,70,100);fill-rule:nonzero;"/>
                    </g>
                    <g transform="matrix(134.073,0,0,134.073,4778.19,3728.83)">
                        <path d="M0.475,-0.017C0.475,-0.013 0.474,-0.01 0.472,-0.008C0.471,-0.005 0.468,-0.003 0.464,-0.001C0.46,0 0.455,0.001 0.448,0.002C0.441,0.003 0.433,0.003 0.423,0.003C0.413,0.003 0.404,0.003 0.398,0.002C0.391,0.001 0.386,0 0.382,-0.001C0.378,-0.003 0.375,-0.005 0.373,-0.008C0.372,-0.01 0.371,-0.013 0.371,-0.017L0.371,-0.065C0.348,-0.041 0.325,-0.022 0.3,-0.009C0.275,0.005 0.248,0.011 0.218,0.011C0.185,0.011 0.157,0.005 0.134,-0.008C0.111,-0.021 0.092,-0.038 0.078,-0.06C0.063,-0.082 0.053,-0.107 0.046,-0.136C0.04,-0.166 0.037,-0.196 0.037,-0.229C0.037,-0.267 0.041,-0.302 0.049,-0.333C0.057,-0.364 0.069,-0.39 0.085,-0.412C0.101,-0.434 0.121,-0.451 0.145,-0.462C0.169,-0.474 0.196,-0.48 0.227,-0.48C0.251,-0.48 0.274,-0.475 0.293,-0.465C0.313,-0.455 0.333,-0.441 0.353,-0.421L0.353,-0.657C0.353,-0.66 0.353,-0.663 0.355,-0.666C0.357,-0.669 0.36,-0.671 0.365,-0.673C0.37,-0.674 0.376,-0.676 0.384,-0.677C0.392,-0.678 0.402,-0.678 0.414,-0.678C0.426,-0.678 0.436,-0.678 0.443,-0.677C0.451,-0.676 0.457,-0.674 0.462,-0.673C0.466,-0.671 0.47,-0.669 0.472,-0.666C0.474,-0.663 0.475,-0.66 0.475,-0.657L0.475,-0.017ZM0.353,-0.308C0.335,-0.33 0.318,-0.347 0.302,-0.358C0.286,-0.37 0.269,-0.376 0.251,-0.376C0.236,-0.376 0.222,-0.372 0.21,-0.364C0.199,-0.356 0.189,-0.345 0.182,-0.332C0.175,-0.319 0.17,-0.304 0.167,-0.287C0.163,-0.271 0.162,-0.254 0.162,-0.237C0.162,-0.219 0.163,-0.201 0.166,-0.184C0.169,-0.166 0.174,-0.151 0.18,-0.137C0.187,-0.124 0.196,-0.113 0.207,-0.105C0.218,-0.097 0.232,-0.093 0.249,-0.093C0.257,-0.093 0.266,-0.094 0.274,-0.096C0.282,-0.099 0.29,-0.103 0.298,-0.108C0.306,-0.114 0.315,-0.121 0.324,-0.13C0.333,-0.139 0.342,-0.15 0.353,-0.163L0.353,-0.308Z" style="fill:rgb(2,70,100);fill-rule:nonzero;"/>
                    </g>
                </g>
                <g id="download" transform="matrix(0.54865,0,0,0.675676,11.7845,-270.066)">
                    <g transform="matrix(0.522251,0,0,3.58951,-26940.1,-12034.3)">
                        <path d="M51782.4,3719.52C51782.4,3714.91 51772.9,3711.16 51761.3,3711.16L51652.8,3711.16C51641.1,3711.16 51631.7,3714.91 51631.7,3719.52L51631.7,3762.53C51631.7,3767.14 51641.1,3770.89 51652.8,3770.89L51761.3,3770.89C51772.9,3770.89 51782.4,3767.14 51782.4,3762.53L51782.4,3719.52Z" style="fill:rgb(2,70,100);"/>
                    </g>
                    <g id="download1" serif:id="download" transform="matrix(0.263544,0,0,0.718657,-13651.2,-1942.91)">
                        <g transform="matrix(6.28935,0,0,6.43979,52138,4631.16)">
                            <path d="M0,0.426C0.399,-0.699 0.627,-1.904 0.627,-3.166C0.627,-9.113 -4.193,-13.933 -10.141,-13.933C-15.073,-13.933 -19.221,-10.612 -20.496,-6.088C-21.424,-6.673 -22.52,-7.017 -23.697,-7.017C-27.019,-7.017 -29.711,-4.325 -29.711,-1.005C-29.711,-0.664 -29.676,-0.333 -29.621,-0.008C-32.907,0.707 -35.369,3.629 -35.369,7.13C-35.369,11.167 -32.097,14.273 -28.061,14.273C-27.715,14.273 -27.377,14.24 -27.045,14.195L-3.926,14.195C-3.593,14.24 -3.255,14.273 -2.909,14.273C1.127,14.273 4.4,11.167 4.4,7.13C4.4,4.128 2.589,1.551 0,0.426" style="fill:white;"/>
                        </g>
                        <g transform="matrix(3.39722e-17,0.554818,-1.22308,7.4891e-17,57376.3,-24194.3)">
                            <path d="M51956.8,4377.89L51956.8,4347.15L52064.2,4347.15L52064.2,4318.62L52160.9,4362.52L52064.2,4406.42L52064.2,4377.89L51956.8,4377.89Z" style="fill:white;stroke:rgb(2,70,100);stroke-width:15.72px;"/>
                        </g>
                    </g>
                </g>
            </g>
        </g>
    </g>
</svg>
