<?xml version="1.0" encoding="UTF-8" standalone="no"?>
<!DOCTYPE svg PUBLIC "-//W3C//DTD SVG 1.1//EN" "http://www.w3.org/Graphics/SVG/1.1/DTD/svg11.dtd">
<svg width="100%" height="100%" viewBox="0 0 1100 250" version="1.1" xmlns="http://www.w3.org/2000/svg" xmlns:xlink="http://www.w3.org/1999/xlink" xml:space="preserve" xmlns:serif="http://www.serif.com/" style="fill-rule:evenodd;clip-rule:evenodd;stroke-linejoin:round;stroke-miterlimit:2;">
    <g transform="matrix(1,0,0,1,-813.531,-4184.37)">
        <g transform="matrix(6.59992,0,0,1.88002,0,0)">
            <g transform="matrix(0.877211,0,0,0.917935,101.1,1495.9)">
                <g transform="matrix(0.169184,0,0,0.452248,0.518085,438.087)">
                    <rect x="146.28" y="789.301" width="1123.03" height="320.323" style="fill:none;"/>
                </g>
                <g transform="matrix(0.118094,0,0,0.396183,-422.468,-594.033)">
                    <g transform="matrix(134.073,0,0,134.073,4291.39,3728.83)">
                        <path d="M0.754,-0.017C0.754,-0.013 0.753,-0.01 0.751,-0.008C0.75,-0.006 0.746,-0.004 0.742,-0.002C0.737,-0 0.731,0.001 0.723,0.002C0.715,0.003 0.705,0.003 0.693,0.003C0.681,0.003 0.671,0.003 0.663,0.002C0.655,0.001 0.649,-0 0.644,-0.002C0.64,-0.004 0.636,-0.006 0.635,-0.008C0.633,-0.01 0.632,-0.013 0.632,-0.017L0.632,-0.275C0.632,-0.29 0.63,-0.303 0.628,-0.315C0.625,-0.327 0.621,-0.337 0.615,-0.346C0.609,-0.355 0.602,-0.361 0.594,-0.366C0.585,-0.371 0.575,-0.373 0.563,-0.373C0.548,-0.373 0.533,-0.367 0.518,-0.356C0.503,-0.345 0.487,-0.328 0.469,-0.306L0.469,-0.017C0.469,-0.013 0.468,-0.01 0.466,-0.008C0.464,-0.006 0.461,-0.004 0.456,-0.002C0.452,-0 0.445,0.001 0.438,0.002C0.43,0.003 0.42,0.003 0.408,0.003C0.396,0.003 0.386,0.003 0.378,0.002C0.371,0.001 0.364,-0 0.36,-0.002C0.355,-0.004 0.352,-0.006 0.35,-0.008C0.348,-0.01 0.347,-0.013 0.347,-0.017L0.347,-0.275C0.347,-0.29 0.345,-0.303 0.343,-0.315C0.34,-0.327 0.336,-0.337 0.33,-0.346C0.325,-0.355 0.317,-0.361 0.309,-0.366C0.3,-0.371 0.29,-0.373 0.278,-0.373C0.263,-0.373 0.248,-0.367 0.233,-0.356C0.218,-0.345 0.202,-0.328 0.185,-0.306L0.185,-0.017C0.185,-0.013 0.184,-0.01 0.182,-0.008C0.18,-0.006 0.176,-0.004 0.172,-0.002C0.167,-0 0.161,0.001 0.153,0.002C0.145,0.003 0.135,0.003 0.123,0.003C0.111,0.003 0.101,0.003 0.093,0.002C0.085,0.001 0.079,-0 0.074,-0.002C0.07,-0.004 0.066,-0.006 0.064,-0.008C0.063,-0.01 0.062,-0.013 0.062,-0.017L0.062,-0.452C0.062,-0.455 0.062,-0.458 0.064,-0.461C0.066,-0.463 0.069,-0.465 0.073,-0.467C0.077,-0.468 0.082,-0.47 0.089,-0.47C0.096,-0.471 0.104,-0.472 0.114,-0.472C0.125,-0.472 0.133,-0.471 0.14,-0.47C0.147,-0.47 0.152,-0.468 0.156,-0.467C0.16,-0.465 0.162,-0.463 0.164,-0.461C0.166,-0.458 0.167,-0.455 0.167,-0.452L0.167,-0.402C0.191,-0.428 0.215,-0.447 0.239,-0.46C0.262,-0.473 0.287,-0.48 0.313,-0.48C0.331,-0.48 0.347,-0.478 0.362,-0.474C0.376,-0.471 0.389,-0.465 0.4,-0.458C0.411,-0.451 0.421,-0.443 0.429,-0.433C0.437,-0.423 0.444,-0.412 0.45,-0.4C0.463,-0.414 0.476,-0.426 0.488,-0.437C0.501,-0.447 0.513,-0.455 0.525,-0.461C0.537,-0.468 0.55,-0.472 0.562,-0.475C0.574,-0.478 0.586,-0.48 0.599,-0.48C0.628,-0.48 0.653,-0.475 0.672,-0.465C0.692,-0.456 0.708,-0.442 0.72,-0.426C0.733,-0.409 0.741,-0.389 0.747,-0.367C0.752,-0.344 0.754,-0.32 0.754,-0.295L0.754,-0.017Z" style="fill:rgb(73,130,243);fill-rule:nonzero;"/>
                    </g>
                    <g transform="matrix(134.073,0,0,134.073,4400.45,3728.83)">
                        <path d="M0.368,-0.14C0.368,-0.115 0.364,-0.093 0.354,-0.074C0.345,-0.055 0.332,-0.04 0.315,-0.027C0.298,-0.014 0.278,-0.005 0.255,0.002C0.232,0.008 0.207,0.011 0.18,0.011C0.163,0.011 0.148,0.01 0.133,0.008C0.118,0.005 0.105,0.002 0.093,-0.002C0.082,-0.005 0.072,-0.009 0.064,-0.013C0.056,-0.017 0.05,-0.021 0.047,-0.024C0.043,-0.028 0.041,-0.033 0.039,-0.04C0.037,-0.048 0.036,-0.058 0.036,-0.073C0.036,-0.082 0.036,-0.09 0.037,-0.095C0.037,-0.101 0.038,-0.106 0.04,-0.109C0.041,-0.113 0.042,-0.115 0.044,-0.116C0.046,-0.117 0.049,-0.118 0.052,-0.118C0.055,-0.118 0.061,-0.116 0.068,-0.112C0.075,-0.108 0.083,-0.103 0.094,-0.098C0.104,-0.093 0.116,-0.089 0.13,-0.084C0.144,-0.08 0.16,-0.078 0.177,-0.078C0.188,-0.078 0.198,-0.079 0.207,-0.082C0.215,-0.084 0.223,-0.087 0.229,-0.091C0.236,-0.096 0.24,-0.101 0.244,-0.107C0.247,-0.114 0.249,-0.121 0.249,-0.13C0.249,-0.14 0.246,-0.148 0.24,-0.155C0.233,-0.162 0.226,-0.168 0.216,-0.173C0.206,-0.179 0.194,-0.183 0.182,-0.188C0.169,-0.193 0.156,-0.198 0.143,-0.203C0.13,-0.209 0.117,-0.215 0.105,-0.222C0.092,-0.229 0.081,-0.238 0.071,-0.249C0.061,-0.259 0.053,-0.271 0.047,-0.286C0.041,-0.301 0.038,-0.318 0.038,-0.339C0.038,-0.36 0.042,-0.379 0.05,-0.396C0.058,-0.414 0.07,-0.429 0.085,-0.441C0.101,-0.453 0.119,-0.463 0.141,-0.47C0.163,-0.477 0.188,-0.48 0.215,-0.48C0.229,-0.48 0.242,-0.479 0.255,-0.477C0.268,-0.475 0.28,-0.473 0.29,-0.47C0.3,-0.467 0.309,-0.464 0.316,-0.46C0.324,-0.457 0.329,-0.454 0.332,-0.451C0.335,-0.449 0.337,-0.447 0.338,-0.444C0.34,-0.442 0.341,-0.439 0.341,-0.435C0.342,-0.432 0.343,-0.428 0.343,-0.423C0.344,-0.418 0.344,-0.411 0.344,-0.404C0.344,-0.395 0.344,-0.388 0.343,-0.382C0.343,-0.377 0.342,-0.372 0.341,-0.369C0.339,-0.366 0.338,-0.364 0.336,-0.363C0.334,-0.361 0.332,-0.361 0.329,-0.361C0.326,-0.361 0.322,-0.363 0.315,-0.366C0.309,-0.369 0.302,-0.373 0.292,-0.377C0.283,-0.381 0.272,-0.385 0.26,-0.388C0.248,-0.391 0.234,-0.393 0.218,-0.393C0.207,-0.393 0.198,-0.392 0.189,-0.39C0.181,-0.387 0.175,-0.384 0.169,-0.38C0.164,-0.376 0.16,-0.371 0.158,-0.365C0.155,-0.359 0.154,-0.353 0.154,-0.347C0.154,-0.337 0.157,-0.328 0.163,-0.321C0.169,-0.314 0.177,-0.308 0.188,-0.303C0.198,-0.298 0.209,-0.293 0.222,-0.289C0.235,-0.284 0.248,-0.279 0.261,-0.274C0.274,-0.268 0.287,-0.262 0.3,-0.255C0.313,-0.248 0.324,-0.239 0.334,-0.229C0.345,-0.218 0.353,-0.206 0.359,-0.191C0.365,-0.177 0.368,-0.16 0.368,-0.14Z" style="fill:rgb(73,130,243);fill-rule:nonzero;"/>
                    </g>
                    <g transform="matrix(134.073,0,0,134.073,4453.94,3728.83)">
                        <path d="M0.464,-0.247C0.464,-0.232 0.461,-0.221 0.454,-0.214C0.447,-0.207 0.438,-0.203 0.426,-0.203L0.161,-0.203C0.161,-0.185 0.163,-0.168 0.168,-0.153C0.172,-0.137 0.179,-0.125 0.189,-0.114C0.198,-0.103 0.211,-0.095 0.226,-0.09C0.241,-0.084 0.259,-0.082 0.28,-0.082C0.302,-0.082 0.321,-0.083 0.337,-0.086C0.353,-0.089 0.367,-0.093 0.379,-0.096C0.391,-0.1 0.401,-0.104 0.409,-0.107C0.417,-0.11 0.423,-0.111 0.428,-0.111C0.431,-0.111 0.433,-0.111 0.435,-0.11C0.437,-0.108 0.439,-0.106 0.44,-0.104C0.441,-0.101 0.442,-0.096 0.443,-0.091C0.443,-0.086 0.443,-0.079 0.443,-0.071C0.443,-0.064 0.443,-0.058 0.443,-0.052C0.443,-0.047 0.442,-0.043 0.441,-0.04C0.441,-0.036 0.44,-0.033 0.438,-0.031C0.437,-0.028 0.435,-0.026 0.433,-0.023C0.431,-0.021 0.425,-0.018 0.416,-0.014C0.407,-0.01 0.395,-0.006 0.38,-0.003C0.365,0.001 0.348,0.004 0.33,0.007C0.311,0.01 0.291,0.011 0.269,0.011C0.23,0.011 0.196,0.006 0.167,-0.003C0.138,-0.013 0.114,-0.028 0.094,-0.048C0.075,-0.068 0.06,-0.093 0.051,-0.123C0.041,-0.153 0.036,-0.189 0.036,-0.229C0.036,-0.268 0.041,-0.303 0.051,-0.334C0.061,-0.365 0.076,-0.392 0.095,-0.413C0.114,-0.435 0.138,-0.451 0.165,-0.463C0.193,-0.474 0.224,-0.48 0.258,-0.48C0.295,-0.48 0.326,-0.475 0.352,-0.464C0.378,-0.453 0.399,-0.438 0.416,-0.419C0.432,-0.4 0.444,-0.378 0.452,-0.352C0.46,-0.326 0.464,-0.297 0.464,-0.267L0.464,-0.247ZM0.345,-0.282C0.346,-0.317 0.339,-0.344 0.324,-0.364C0.309,-0.383 0.286,-0.393 0.255,-0.393C0.24,-0.393 0.226,-0.39 0.215,-0.384C0.203,-0.378 0.193,-0.371 0.186,-0.361C0.178,-0.351 0.172,-0.339 0.168,-0.325C0.164,-0.312 0.162,-0.298 0.161,-0.282L0.345,-0.282Z" style="fill:rgb(73,130,243);fill-rule:nonzero;"/>
                    </g>
                    <g transform="matrix(134.073,0,0,134.073,4521.43,3728.83)">
                        <path d="M0.464,-0.247C0.464,-0.232 0.461,-0.221 0.454,-0.214C0.447,-0.207 0.438,-0.203 0.426,-0.203L0.161,-0.203C0.161,-0.185 0.163,-0.168 0.168,-0.153C0.172,-0.137 0.179,-0.125 0.189,-0.114C0.198,-0.103 0.211,-0.095 0.226,-0.09C0.241,-0.084 0.259,-0.082 0.28,-0.082C0.302,-0.082 0.321,-0.083 0.337,-0.086C0.353,-0.089 0.367,-0.093 0.379,-0.096C0.391,-0.1 0.401,-0.104 0.409,-0.107C0.417,-0.11 0.423,-0.111 0.428,-0.111C0.431,-0.111 0.433,-0.111 0.435,-0.11C0.437,-0.108 0.439,-0.106 0.44,-0.104C0.441,-0.101 0.442,-0.096 0.443,-0.091C0.443,-0.086 0.443,-0.079 0.443,-0.071C0.443,-0.064 0.443,-0.058 0.443,-0.052C0.443,-0.047 0.442,-0.043 0.441,-0.04C0.441,-0.036 0.44,-0.033 0.438,-0.031C0.437,-0.028 0.435,-0.026 0.433,-0.023C0.431,-0.021 0.425,-0.018 0.416,-0.014C0.407,-0.01 0.395,-0.006 0.38,-0.003C0.365,0.001 0.348,0.004 0.33,0.007C0.311,0.01 0.291,0.011 0.269,0.011C0.23,0.011 0.196,0.006 0.167,-0.003C0.138,-0.013 0.114,-0.028 0.094,-0.048C0.075,-0.068 0.06,-0.093 0.051,-0.123C0.041,-0.153 0.036,-0.189 0.036,-0.229C0.036,-0.268 0.041,-0.303 0.051,-0.334C0.061,-0.365 0.076,-0.392 0.095,-0.413C0.114,-0.435 0.138,-0.451 0.165,-0.463C0.193,-0.474 0.224,-0.48 0.258,-0.48C0.295,-0.48 0.326,-0.475 0.352,-0.464C0.378,-0.453 0.399,-0.438 0.416,-0.419C0.432,-0.4 0.444,-0.378 0.452,-0.352C0.46,-0.326 0.464,-0.297 0.464,-0.267L0.464,-0.247ZM0.345,-0.282C0.346,-0.317 0.339,-0.344 0.324,-0.364C0.309,-0.383 0.286,-0.393 0.255,-0.393C0.24,-0.393 0.226,-0.39 0.215,-0.384C0.203,-0.378 0.193,-0.371 0.186,-0.361C0.178,-0.351 0.172,-0.339 0.168,-0.325C0.164,-0.312 0.162,-0.298 0.161,-0.282L0.345,-0.282Z" style="fill:rgb(73,130,243);fill-rule:nonzero;"/>
                    </g>
                    <g transform="matrix(134.073,0,0,134.073,4588.93,3728.83)">
                        <path d="M0.475,-0.017C0.475,-0.013 0.474,-0.01 0.472,-0.008C0.471,-0.005 0.468,-0.003 0.464,-0.001C0.46,0 0.455,0.001 0.448,0.002C0.441,0.003 0.433,0.003 0.423,0.003C0.413,0.003 0.404,0.003 0.398,0.002C0.391,0.001 0.386,0 0.382,-0.001C0.378,-0.003 0.375,-0.005 0.373,-0.008C0.372,-0.01 0.371,-0.013 0.371,-0.017L0.371,-0.065C0.348,-0.041 0.325,-0.022 0.3,-0.009C0.275,0.005 0.248,0.011 0.218,0.011C0.185,0.011 0.157,0.005 0.134,-0.008C0.111,-0.021 0.092,-0.038 0.078,-0.06C0.063,-0.082 0.053,-0.107 0.046,-0.136C0.04,-0.166 0.037,-0.196 0.037,-0.229C0.037,-0.267 0.041,-0.302 0.049,-0.333C0.057,-0.364 0.069,-0.39 0.085,-0.412C0.101,-0.434 0.121,-0.451 0.145,-0.462C0.169,-0.474 0.196,-0.48 0.227,-0.48C0.251,-0.48 0.274,-0.475 0.293,-0.465C0.313,-0.455 0.333,-0.441 0.353,-0.421L0.353,-0.657C0.353,-0.66 0.353,-0.663 0.355,-0.666C0.357,-0.669 0.36,-0.671 0.365,-0.673C0.37,-0.674 0.376,-0.676 0.384,-0.677C0.392,-0.678 0.402,-0.678 0.414,-0.678C0.426,-0.678 0.436,-0.678 0.443,-0.677C0.451,-0.676 0.457,-0.674 0.462,-0.673C0.466,-0.671 0.47,-0.669 0.472,-0.666C0.474,-0.663 0.475,-0.66 0.475,-0.657L0.475,-0.017ZM0.353,-0.308C0.335,-0.33 0.318,-0.347 0.302,-0.358C0.286,-0.37 0.269,-0.376 0.251,-0.376C0.236,-0.376 0.222,-0.372 0.21,-0.364C0.199,-0.356 0.189,-0.345 0.182,-0.332C0.175,-0.319 0.17,-0.304 0.167,-0.287C0.163,-0.271 0.162,-0.254 0.162,-0.237C0.162,-0.219 0.163,-0.201 0.166,-0.184C0.169,-0.166 0.174,-0.151 0.18,-0.137C0.187,-0.124 0.196,-0.113 0.207,-0.105C0.218,-0.097 0.232,-0.093 0.249,-0.093C0.257,-0.093 0.266,-0.094 0.274,-0.096C0.282,-0.099 0.29,-0.103 0.298,-0.108C0.306,-0.114 0.315,-0.121 0.324,-0.13C0.333,-0.139 0.342,-0.15 0.353,-0.163L0.353,-0.308Z" style="fill:rgb(73,130,243);fill-rule:nonzero;"/>
                    </g>
                    <g transform="matrix(134.073,0,0,134.073,4660.88,3728.83)">
                        <path d="M0.467,-0.052C0.467,-0.043 0.466,-0.035 0.466,-0.028C0.465,-0.021 0.464,-0.016 0.462,-0.012C0.46,-0.007 0.458,-0.004 0.456,-0.003C0.453,-0.001 0.45,-0 0.447,-0L0.083,-0C0.076,-0 0.07,-0.001 0.065,-0.002C0.06,-0.003 0.056,-0.006 0.052,-0.01C0.049,-0.013 0.047,-0.019 0.045,-0.026C0.044,-0.033 0.043,-0.042 0.043,-0.054C0.043,-0.064 0.043,-0.074 0.044,-0.081C0.045,-0.089 0.047,-0.096 0.05,-0.102C0.052,-0.108 0.056,-0.114 0.06,-0.119C0.064,-0.125 0.069,-0.131 0.076,-0.138L0.185,-0.255C0.207,-0.278 0.224,-0.299 0.238,-0.318C0.251,-0.336 0.262,-0.353 0.269,-0.369C0.277,-0.384 0.282,-0.399 0.284,-0.412C0.287,-0.425 0.289,-0.437 0.289,-0.449C0.289,-0.459 0.287,-0.47 0.283,-0.479C0.28,-0.489 0.275,-0.497 0.268,-0.504C0.262,-0.512 0.253,-0.517 0.243,-0.521C0.233,-0.525 0.221,-0.527 0.208,-0.527C0.188,-0.527 0.171,-0.525 0.156,-0.52C0.142,-0.515 0.129,-0.51 0.117,-0.504C0.106,-0.498 0.097,-0.492 0.089,-0.487C0.082,-0.482 0.076,-0.479 0.072,-0.479C0.069,-0.479 0.066,-0.48 0.064,-0.482C0.062,-0.484 0.06,-0.488 0.059,-0.492C0.058,-0.497 0.057,-0.503 0.056,-0.51C0.055,-0.518 0.055,-0.528 0.055,-0.539C0.055,-0.546 0.055,-0.552 0.055,-0.557C0.056,-0.562 0.057,-0.567 0.058,-0.571C0.059,-0.574 0.06,-0.578 0.062,-0.58C0.063,-0.583 0.066,-0.586 0.07,-0.59C0.074,-0.594 0.082,-0.599 0.093,-0.605C0.103,-0.611 0.117,-0.617 0.133,-0.623C0.149,-0.628 0.166,-0.633 0.186,-0.637C0.205,-0.641 0.225,-0.643 0.246,-0.643C0.278,-0.643 0.307,-0.639 0.332,-0.631C0.356,-0.622 0.377,-0.611 0.393,-0.596C0.409,-0.581 0.421,-0.564 0.429,-0.543C0.437,-0.523 0.441,-0.501 0.441,-0.478C0.441,-0.457 0.439,-0.437 0.436,-0.417C0.432,-0.397 0.424,-0.376 0.411,-0.353C0.399,-0.33 0.381,-0.304 0.359,-0.277C0.336,-0.249 0.307,-0.216 0.27,-0.18L0.196,-0.104L0.445,-0.104C0.448,-0.104 0.451,-0.103 0.454,-0.101C0.457,-0.099 0.459,-0.096 0.461,-0.092C0.463,-0.088 0.464,-0.083 0.465,-0.076C0.466,-0.069 0.467,-0.061 0.467,-0.052Z" style="fill:rgb(73,130,243);fill-rule:nonzero;"/>
                    </g>
                    <g transform="matrix(134.073,0,0,134.073,4728.83,3728.83)">
                        <path d="M0.368,-0.14C0.368,-0.115 0.364,-0.093 0.354,-0.074C0.345,-0.055 0.332,-0.04 0.315,-0.027C0.298,-0.014 0.278,-0.005 0.255,0.002C0.232,0.008 0.207,0.011 0.18,0.011C0.163,0.011 0.148,0.01 0.133,0.008C0.118,0.005 0.105,0.002 0.093,-0.002C0.082,-0.005 0.072,-0.009 0.064,-0.013C0.056,-0.017 0.05,-0.021 0.047,-0.024C0.043,-0.028 0.041,-0.033 0.039,-0.04C0.037,-0.048 0.036,-0.058 0.036,-0.073C0.036,-0.082 0.036,-0.09 0.037,-0.095C0.037,-0.101 0.038,-0.106 0.04,-0.109C0.041,-0.113 0.042,-0.115 0.044,-0.116C0.046,-0.117 0.049,-0.118 0.052,-0.118C0.055,-0.118 0.061,-0.116 0.068,-0.112C0.075,-0.108 0.083,-0.103 0.094,-0.098C0.104,-0.093 0.116,-0.089 0.13,-0.084C0.144,-0.08 0.16,-0.078 0.177,-0.078C0.188,-0.078 0.198,-0.079 0.207,-0.082C0.215,-0.084 0.223,-0.087 0.229,-0.091C0.236,-0.096 0.24,-0.101 0.244,-0.107C0.247,-0.114 0.249,-0.121 0.249,-0.13C0.249,-0.14 0.246,-0.148 0.24,-0.155C0.233,-0.162 0.226,-0.168 0.216,-0.173C0.206,-0.179 0.194,-0.183 0.182,-0.188C0.169,-0.193 0.156,-0.198 0.143,-0.203C0.13,-0.209 0.117,-0.215 0.105,-0.222C0.092,-0.229 0.081,-0.238 0.071,-0.249C0.061,-0.259 0.053,-0.271 0.047,-0.286C0.041,-0.301 0.038,-0.318 0.038,-0.339C0.038,-0.36 0.042,-0.379 0.05,-0.396C0.058,-0.414 0.07,-0.429 0.085,-0.441C0.101,-0.453 0.119,-0.463 0.141,-0.47C0.163,-0.477 0.188,-0.48 0.215,-0.48C0.229,-0.48 0.242,-0.479 0.255,-0.477C0.268,-0.475 0.28,-0.473 0.29,-0.47C0.3,-0.467 0.309,-0.464 0.316,-0.46C0.324,-0.457 0.329,-0.454 0.332,-0.451C0.335,-0.449 0.337,-0.447 0.338,-0.444C0.34,-0.442 0.341,-0.439 0.341,-0.435C0.342,-0.432 0.343,-0.428 0.343,-0.423C0.344,-0.418 0.344,-0.411 0.344,-0.404C0.344,-0.395 0.344,-0.388 0.343,-0.382C0.343,-0.377 0.342,-0.372 0.341,-0.369C0.339,-0.366 0.338,-0.364 0.336,-0.363C0.334,-0.361 0.332,-0.361 0.329,-0.361C0.326,-0.361 0.322,-0.363 0.315,-0.366C0.309,-0.369 0.302,-0.373 0.292,-0.377C0.283,-0.381 0.272,-0.385 0.26,-0.388C0.248,-0.391 0.234,-0.393 0.218,-0.393C0.207,-0.393 0.198,-0.392 0.189,-0.39C0.181,-0.387 0.175,-0.384 0.169,-0.38C0.164,-0.376 0.16,-0.371 0.158,-0.365C0.155,-0.359 0.154,-0.353 0.154,-0.347C0.154,-0.337 0.157,-0.328 0.163,-0.321C0.169,-0.314 0.177,-0.308 0.188,-0.303C0.198,-0.298 0.209,-0.293 0.222,-0.289C0.235,-0.284 0.248,-0.279 0.261,-0.274C0.274,-0.268 0.287,-0.262 0.3,-0.255C0.313,-0.248 0.324,-0.239 0.334,-0.229C0.345,-0.218 0.353,-0.206 0.359,-0.191C0.365,-0.177 0.368,-0.16 0.368,-0.14Z" style="fill:rgb(73,130,243);fill-rule:nonzero;"/>
                    </g>
                    <g transform="matrix(134.073,0,0,134.073,4782.31,3728.83)">
                        <path d="M0.433,-0.015C0.433,-0.011 0.431,-0.007 0.428,-0.004C0.424,-0.002 0.419,0 0.412,0.001C0.405,0.002 0.395,0.003 0.381,0.003C0.367,0.003 0.356,0.002 0.349,0.001C0.343,0 0.338,-0.002 0.335,-0.004C0.332,-0.007 0.331,-0.011 0.331,-0.015L0.331,-0.05C0.313,-0.031 0.293,-0.016 0.27,-0.005C0.247,0.006 0.221,0.011 0.193,0.011C0.17,0.011 0.149,0.008 0.13,0.002C0.11,-0.004 0.094,-0.013 0.079,-0.025C0.065,-0.037 0.054,-0.051 0.046,-0.069C0.039,-0.086 0.035,-0.107 0.035,-0.13C0.035,-0.156 0.04,-0.178 0.05,-0.197C0.059,-0.215 0.074,-0.231 0.094,-0.243C0.114,-0.255 0.138,-0.264 0.167,-0.27C0.197,-0.276 0.231,-0.279 0.27,-0.279L0.312,-0.279L0.312,-0.305C0.312,-0.319 0.311,-0.331 0.308,-0.341C0.305,-0.351 0.301,-0.36 0.294,-0.367C0.288,-0.374 0.279,-0.379 0.269,-0.382C0.258,-0.385 0.245,-0.387 0.229,-0.387C0.209,-0.387 0.191,-0.384 0.175,-0.38C0.158,-0.375 0.144,-0.37 0.132,-0.365C0.119,-0.359 0.109,-0.354 0.101,-0.35C0.093,-0.345 0.086,-0.343 0.081,-0.343C0.077,-0.343 0.074,-0.344 0.071,-0.346C0.068,-0.348 0.066,-0.352 0.064,-0.356C0.062,-0.36 0.061,-0.365 0.06,-0.372C0.059,-0.378 0.059,-0.385 0.059,-0.392C0.059,-0.402 0.059,-0.41 0.061,-0.416C0.063,-0.422 0.066,-0.427 0.07,-0.432C0.075,-0.437 0.083,-0.442 0.094,-0.448C0.106,-0.453 0.119,-0.458 0.134,-0.463C0.15,-0.468 0.166,-0.472 0.184,-0.475C0.202,-0.478 0.221,-0.48 0.24,-0.48C0.274,-0.48 0.304,-0.477 0.328,-0.47C0.352,-0.463 0.372,-0.453 0.388,-0.439C0.403,-0.425 0.415,-0.408 0.422,-0.386C0.429,-0.364 0.433,-0.338 0.433,-0.308L0.433,-0.015ZM0.312,-0.202L0.265,-0.202C0.245,-0.202 0.228,-0.2 0.214,-0.197C0.2,-0.194 0.189,-0.19 0.18,-0.184C0.171,-0.178 0.165,-0.171 0.161,-0.163C0.157,-0.155 0.155,-0.145 0.155,-0.134C0.155,-0.116 0.161,-0.102 0.172,-0.091C0.184,-0.081 0.2,-0.076 0.22,-0.076C0.237,-0.076 0.253,-0.08 0.268,-0.089C0.282,-0.098 0.297,-0.111 0.312,-0.127L0.312,-0.202Z" style="fill:rgb(73,130,243);fill-rule:nonzero;"/>
                    </g>
                    <g transform="matrix(134.073,0,0,134.073,4848.5,3728.83)">
                        <path d="M0.391,-0.086C0.391,-0.077 0.391,-0.07 0.39,-0.065C0.39,-0.059 0.389,-0.054 0.388,-0.05C0.388,-0.046 0.387,-0.043 0.385,-0.041C0.384,-0.038 0.382,-0.035 0.378,-0.031C0.374,-0.028 0.367,-0.023 0.358,-0.018C0.348,-0.012 0.338,-0.008 0.326,-0.003C0.314,0.001 0.301,0.004 0.286,0.007C0.272,0.009 0.258,0.011 0.243,0.011C0.209,0.011 0.179,0.006 0.154,-0.005C0.128,-0.015 0.106,-0.031 0.088,-0.051C0.071,-0.071 0.058,-0.096 0.049,-0.125C0.04,-0.155 0.035,-0.188 0.035,-0.226C0.035,-0.27 0.041,-0.307 0.052,-0.339C0.062,-0.371 0.078,-0.397 0.097,-0.418C0.117,-0.439 0.14,-0.454 0.167,-0.464C0.193,-0.474 0.222,-0.479 0.254,-0.479C0.267,-0.479 0.28,-0.478 0.293,-0.476C0.305,-0.474 0.317,-0.471 0.328,-0.467C0.339,-0.463 0.349,-0.458 0.357,-0.454C0.366,-0.449 0.372,-0.444 0.375,-0.441C0.379,-0.437 0.382,-0.434 0.383,-0.432C0.385,-0.429 0.386,-0.426 0.386,-0.422C0.387,-0.418 0.388,-0.414 0.388,-0.408C0.389,-0.402 0.389,-0.395 0.389,-0.387C0.389,-0.368 0.388,-0.355 0.384,-0.347C0.381,-0.34 0.377,-0.336 0.372,-0.336C0.366,-0.336 0.36,-0.338 0.354,-0.343C0.348,-0.347 0.34,-0.352 0.332,-0.358C0.324,-0.363 0.313,-0.368 0.302,-0.373C0.29,-0.378 0.276,-0.38 0.26,-0.38C0.228,-0.38 0.203,-0.368 0.187,-0.343C0.17,-0.318 0.161,-0.282 0.161,-0.235C0.161,-0.211 0.163,-0.191 0.167,-0.173C0.172,-0.155 0.178,-0.14 0.186,-0.128C0.195,-0.116 0.205,-0.107 0.218,-0.101C0.23,-0.095 0.245,-0.092 0.261,-0.092C0.278,-0.092 0.293,-0.094 0.305,-0.099C0.317,-0.104 0.328,-0.11 0.337,-0.116C0.346,-0.122 0.354,-0.128 0.36,-0.133C0.366,-0.138 0.371,-0.141 0.375,-0.141C0.378,-0.141 0.381,-0.14 0.383,-0.138C0.385,-0.137 0.386,-0.134 0.387,-0.129C0.389,-0.125 0.389,-0.119 0.39,-0.112C0.391,-0.105 0.391,-0.097 0.391,-0.086Z" style="fill:rgb(73,130,243);fill-rule:nonzero;"/>
                    </g>
                </g>
                <g transform="matrix(0.975733,0,0,1.03414,-221.28,-14.7198)">
                    <g transform="matrix(1.82233e-17,0.929531,-0.740924,1.41701e-16,3046.62,-47210.2)">
                        <path d="M51782.4,3719.52C51782.4,3714.91 51772.9,3711.16 51761.3,3711.16L51652.8,3711.16C51641.1,3711.16 51631.7,3714.91 51631.7,3719.52L51631.7,3762.53C51631.7,3767.14 51641.1,3770.89 51652.8,3770.89L51761.3,3770.89C51772.9,3770.89 51782.4,3767.14 51782.4,3762.53L51782.4,3719.52Z" style="fill:rgb(73,130,243);"/>
                    </g>
                    <g transform="matrix(0.258086,0,0,0.806088,-13127.2,-2158.44)">
                        <g transform="matrix(47.9238,0,0,47.9238,51856.9,3705.15)">
                            <path d="M0.805,-0.018C0.805,-0.014 0.804,-0.011 0.802,-0.009C0.801,-0.006 0.797,-0.004 0.793,-0.002C0.788,-0.001 0.782,0 0.774,0.001C0.766,0.002 0.756,0.003 0.744,0.003C0.732,0.003 0.723,0.002 0.715,0.001C0.707,0 0.701,-0.001 0.696,-0.002C0.692,-0.004 0.688,-0.006 0.687,-0.009C0.685,-0.011 0.684,-0.014 0.684,-0.018L0.684,-0.532L0.683,-0.532L0.5,-0.018C0.498,-0.014 0.496,-0.01 0.493,-0.008C0.49,-0.005 0.486,-0.003 0.481,-0.001C0.476,0.001 0.47,0.002 0.462,0.002C0.454,0.003 0.445,0.003 0.434,0.003C0.423,0.003 0.413,0.003 0.405,0.002C0.397,0.001 0.391,-0 0.386,-0.002C0.381,-0.004 0.377,-0.006 0.374,-0.009C0.371,-0.011 0.369,-0.014 0.368,-0.018L0.191,-0.532L0.19,-0.532L0.19,-0.018C0.19,-0.014 0.19,-0.011 0.188,-0.009C0.186,-0.006 0.183,-0.004 0.178,-0.002C0.173,-0.001 0.167,0 0.159,0.001C0.151,0.002 0.141,0.003 0.129,0.003C0.118,0.003 0.108,0.002 0.1,0.001C0.092,0 0.086,-0.001 0.081,-0.002C0.077,-0.004 0.073,-0.006 0.072,-0.009C0.07,-0.011 0.069,-0.014 0.069,-0.018L0.069,-0.581C0.069,-0.597 0.073,-0.61 0.082,-0.619C0.091,-0.627 0.103,-0.632 0.117,-0.632L0.201,-0.632C0.216,-0.632 0.229,-0.631 0.24,-0.628C0.25,-0.626 0.26,-0.622 0.268,-0.616C0.275,-0.61 0.282,-0.603 0.287,-0.594C0.292,-0.584 0.297,-0.573 0.301,-0.559L0.438,-0.183L0.439,-0.183L0.581,-0.558C0.585,-0.572 0.59,-0.583 0.595,-0.593C0.6,-0.602 0.606,-0.61 0.613,-0.616C0.619,-0.622 0.627,-0.626 0.636,-0.628C0.645,-0.631 0.656,-0.632 0.668,-0.632L0.754,-0.632C0.763,-0.632 0.771,-0.631 0.777,-0.628C0.783,-0.626 0.789,-0.623 0.793,-0.618C0.797,-0.614 0.8,-0.609 0.802,-0.602C0.804,-0.596 0.805,-0.589 0.805,-0.581L0.805,-0.018Z" style="fill:white;fill-rule:nonzero;"/>
                        </g>
                        <g transform="matrix(47.9238,0,0,47.9238,51898.8,3705.15)">
                            <path d="M0.443,-0.189C0.443,-0.156 0.437,-0.127 0.425,-0.102C0.412,-0.077 0.396,-0.056 0.375,-0.039C0.353,-0.023 0.329,-0.01 0.3,-0.001C0.272,0.007 0.242,0.011 0.209,0.011C0.188,0.011 0.167,0.009 0.149,0.006C0.13,0.002 0.113,-0.002 0.099,-0.007C0.085,-0.012 0.073,-0.017 0.063,-0.023C0.054,-0.028 0.047,-0.033 0.042,-0.038C0.038,-0.042 0.035,-0.048 0.033,-0.056C0.032,-0.064 0.031,-0.075 0.031,-0.09C0.031,-0.1 0.031,-0.109 0.032,-0.116C0.032,-0.123 0.033,-0.128 0.035,-0.132C0.036,-0.137 0.038,-0.14 0.041,-0.141C0.043,-0.143 0.046,-0.144 0.049,-0.144C0.054,-0.144 0.06,-0.141 0.069,-0.136C0.077,-0.131 0.088,-0.125 0.101,-0.118C0.114,-0.112 0.129,-0.106 0.147,-0.1C0.165,-0.095 0.186,-0.092 0.21,-0.092C0.226,-0.092 0.24,-0.094 0.252,-0.098C0.264,-0.102 0.275,-0.107 0.283,-0.114C0.292,-0.121 0.299,-0.129 0.303,-0.139C0.308,-0.149 0.31,-0.16 0.31,-0.173C0.31,-0.187 0.306,-0.199 0.298,-0.21C0.291,-0.22 0.28,-0.229 0.268,-0.237C0.255,-0.245 0.241,-0.253 0.225,-0.26C0.209,-0.267 0.193,-0.274 0.176,-0.282C0.159,-0.29 0.142,-0.298 0.126,-0.308C0.111,-0.318 0.096,-0.33 0.084,-0.344C0.071,-0.358 0.061,-0.374 0.053,-0.393C0.045,-0.412 0.042,-0.435 0.042,-0.461C0.042,-0.491 0.047,-0.518 0.058,-0.541C0.07,-0.564 0.085,-0.583 0.104,-0.598C0.123,-0.613 0.145,-0.624 0.171,-0.632C0.197,-0.639 0.224,-0.643 0.253,-0.643C0.268,-0.643 0.283,-0.642 0.298,-0.64C0.313,-0.637 0.327,-0.634 0.34,-0.63C0.353,-0.626 0.365,-0.622 0.375,-0.617C0.385,-0.612 0.392,-0.608 0.395,-0.605C0.398,-0.602 0.4,-0.599 0.402,-0.597C0.403,-0.594 0.404,-0.591 0.405,-0.588C0.405,-0.584 0.406,-0.579 0.406,-0.573C0.407,-0.568 0.407,-0.561 0.407,-0.552C0.407,-0.543 0.406,-0.535 0.406,-0.528C0.406,-0.522 0.405,-0.516 0.404,-0.512C0.402,-0.508 0.401,-0.505 0.399,-0.503C0.397,-0.501 0.394,-0.5 0.39,-0.5C0.387,-0.5 0.381,-0.502 0.373,-0.507C0.365,-0.511 0.356,-0.516 0.344,-0.522C0.333,-0.527 0.32,-0.532 0.305,-0.536C0.29,-0.541 0.273,-0.543 0.255,-0.543C0.241,-0.543 0.229,-0.541 0.219,-0.538C0.208,-0.534 0.2,-0.53 0.193,-0.524C0.186,-0.518 0.18,-0.51 0.177,-0.502C0.174,-0.493 0.172,-0.485 0.172,-0.475C0.172,-0.461 0.176,-0.449 0.183,-0.439C0.191,-0.428 0.201,-0.419 0.214,-0.411C0.227,-0.403 0.242,-0.396 0.258,-0.389C0.274,-0.382 0.291,-0.375 0.308,-0.367C0.325,-0.359 0.341,-0.35 0.357,-0.34C0.374,-0.33 0.388,-0.318 0.401,-0.304C0.414,-0.291 0.424,-0.274 0.432,-0.256C0.439,-0.237 0.443,-0.215 0.443,-0.189Z" style="fill:white;fill-rule:nonzero;"/>
                        </g>
                        <g transform="matrix(47.9238,0,0,47.9238,51921.4,3705.15)">
                            <path d="M0.443,-0.05C0.443,-0.041 0.443,-0.033 0.442,-0.027C0.441,-0.02 0.44,-0.015 0.438,-0.011C0.437,-0.007 0.435,-0.004 0.432,-0.003C0.43,-0.001 0.427,-0 0.424,-0L0.107,-0C0.096,-0 0.087,-0.003 0.08,-0.01C0.073,-0.016 0.069,-0.026 0.069,-0.041L0.069,-0.591C0.069,-0.606 0.073,-0.616 0.08,-0.622C0.087,-0.629 0.096,-0.632 0.107,-0.632L0.422,-0.632C0.425,-0.632 0.428,-0.631 0.43,-0.629C0.432,-0.628 0.434,-0.625 0.436,-0.621C0.438,-0.617 0.439,-0.612 0.44,-0.605C0.441,-0.599 0.441,-0.591 0.441,-0.581C0.441,-0.572 0.441,-0.564 0.44,-0.558C0.439,-0.552 0.438,-0.546 0.436,-0.542C0.434,-0.539 0.432,-0.536 0.43,-0.534C0.428,-0.532 0.425,-0.531 0.422,-0.531L0.197,-0.531L0.197,-0.377L0.388,-0.377C0.391,-0.377 0.393,-0.376 0.396,-0.374C0.398,-0.372 0.4,-0.37 0.402,-0.366C0.403,-0.362 0.405,-0.357 0.406,-0.351C0.406,-0.344 0.407,-0.337 0.407,-0.328C0.407,-0.318 0.406,-0.31 0.406,-0.304C0.405,-0.298 0.403,-0.293 0.402,-0.289C0.4,-0.286 0.398,-0.283 0.396,-0.281C0.393,-0.28 0.391,-0.279 0.388,-0.279L0.197,-0.279L0.197,-0.101L0.424,-0.101C0.427,-0.101 0.43,-0.1 0.432,-0.098C0.435,-0.096 0.437,-0.093 0.438,-0.089C0.44,-0.085 0.441,-0.08 0.442,-0.074C0.443,-0.068 0.443,-0.06 0.443,-0.05Z" style="fill:white;fill-rule:nonzero;"/>
                        </g>
                        <g transform="matrix(47.9238,0,0,47.9238,51944.8,3705.15)">
                            <path d="M0.443,-0.05C0.443,-0.041 0.443,-0.033 0.442,-0.027C0.441,-0.02 0.44,-0.015 0.438,-0.011C0.437,-0.007 0.435,-0.004 0.432,-0.003C0.43,-0.001 0.427,-0 0.424,-0L0.107,-0C0.096,-0 0.087,-0.003 0.08,-0.01C0.073,-0.016 0.069,-0.026 0.069,-0.041L0.069,-0.591C0.069,-0.606 0.073,-0.616 0.08,-0.622C0.087,-0.629 0.096,-0.632 0.107,-0.632L0.422,-0.632C0.425,-0.632 0.428,-0.631 0.43,-0.629C0.432,-0.628 0.434,-0.625 0.436,-0.621C0.438,-0.617 0.439,-0.612 0.44,-0.605C0.441,-0.599 0.441,-0.591 0.441,-0.581C0.441,-0.572 0.441,-0.564 0.44,-0.558C0.439,-0.552 0.438,-0.546 0.436,-0.542C0.434,-0.539 0.432,-0.536 0.43,-0.534C0.428,-0.532 0.425,-0.531 0.422,-0.531L0.197,-0.531L0.197,-0.377L0.388,-0.377C0.391,-0.377 0.393,-0.376 0.396,-0.374C0.398,-0.372 0.4,-0.37 0.402,-0.366C0.403,-0.362 0.405,-0.357 0.406,-0.351C0.406,-0.344 0.407,-0.337 0.407,-0.328C0.407,-0.318 0.406,-0.31 0.406,-0.304C0.405,-0.298 0.403,-0.293 0.402,-0.289C0.4,-0.286 0.398,-0.283 0.396,-0.281C0.393,-0.28 0.391,-0.279 0.388,-0.279L0.197,-0.279L0.197,-0.101L0.424,-0.101C0.427,-0.101 0.43,-0.1 0.432,-0.098C0.435,-0.096 0.437,-0.093 0.438,-0.089C0.44,-0.085 0.441,-0.08 0.442,-0.074C0.443,-0.068 0.443,-0.06 0.443,-0.05Z" style="fill:white;fill-rule:nonzero;"/>
                        </g>
                        <g transform="matrix(47.9238,0,0,47.9238,51968.2,3705.15)">
                            <path d="M0.594,-0.325C0.594,-0.267 0.586,-0.218 0.571,-0.177C0.556,-0.135 0.534,-0.102 0.506,-0.076C0.478,-0.05 0.443,-0.031 0.403,-0.018C0.362,-0.006 0.314,-0 0.258,-0L0.107,-0C0.096,-0 0.087,-0.003 0.08,-0.01C0.073,-0.016 0.069,-0.026 0.069,-0.041L0.069,-0.591C0.069,-0.606 0.073,-0.616 0.08,-0.622C0.087,-0.629 0.096,-0.632 0.107,-0.632L0.269,-0.632C0.325,-0.632 0.373,-0.625 0.412,-0.612C0.452,-0.599 0.485,-0.579 0.511,-0.553C0.538,-0.528 0.559,-0.496 0.573,-0.458C0.587,-0.419 0.594,-0.375 0.594,-0.325ZM0.461,-0.321C0.461,-0.351 0.457,-0.379 0.45,-0.404C0.443,-0.43 0.432,-0.452 0.417,-0.471C0.401,-0.49 0.381,-0.505 0.357,-0.515C0.333,-0.526 0.301,-0.531 0.262,-0.531L0.197,-0.531L0.197,-0.102L0.264,-0.102C0.299,-0.102 0.328,-0.106 0.353,-0.115C0.377,-0.124 0.397,-0.138 0.413,-0.156C0.429,-0.175 0.441,-0.198 0.449,-0.225C0.457,-0.252 0.461,-0.284 0.461,-0.321Z" style="fill:white;fill-rule:nonzero;"/>
                        </g>
                    </g>
                    <g transform="matrix(0.258086,0,0,0.806088,-13127,-2080.49)">
                        <g transform="matrix(47.9238,0,0,47.9238,51889.7,3705.15)">
                            <path d="M0.443,-0.189C0.443,-0.156 0.437,-0.127 0.425,-0.102C0.412,-0.077 0.396,-0.056 0.375,-0.039C0.353,-0.023 0.329,-0.01 0.3,-0.001C0.272,0.007 0.242,0.011 0.209,0.011C0.188,0.011 0.167,0.009 0.149,0.006C0.13,0.002 0.113,-0.002 0.099,-0.007C0.085,-0.012 0.073,-0.017 0.063,-0.023C0.054,-0.028 0.047,-0.033 0.042,-0.038C0.038,-0.042 0.035,-0.048 0.033,-0.056C0.032,-0.064 0.031,-0.075 0.031,-0.09C0.031,-0.1 0.031,-0.109 0.032,-0.116C0.032,-0.123 0.033,-0.128 0.035,-0.132C0.036,-0.137 0.038,-0.14 0.041,-0.141C0.043,-0.143 0.046,-0.144 0.049,-0.144C0.054,-0.144 0.06,-0.141 0.069,-0.136C0.077,-0.131 0.088,-0.125 0.101,-0.118C0.114,-0.112 0.129,-0.106 0.147,-0.1C0.165,-0.095 0.186,-0.092 0.21,-0.092C0.226,-0.092 0.24,-0.094 0.252,-0.098C0.264,-0.102 0.275,-0.107 0.283,-0.114C0.292,-0.121 0.299,-0.129 0.303,-0.139C0.308,-0.149 0.31,-0.16 0.31,-0.173C0.31,-0.187 0.306,-0.199 0.298,-0.21C0.291,-0.22 0.28,-0.229 0.268,-0.237C0.255,-0.245 0.241,-0.253 0.225,-0.26C0.209,-0.267 0.193,-0.274 0.176,-0.282C0.159,-0.29 0.142,-0.298 0.126,-0.308C0.111,-0.318 0.096,-0.33 0.084,-0.344C0.071,-0.358 0.061,-0.374 0.053,-0.393C0.045,-0.412 0.042,-0.435 0.042,-0.461C0.042,-0.491 0.047,-0.518 0.058,-0.541C0.07,-0.564 0.085,-0.583 0.104,-0.598C0.123,-0.613 0.145,-0.624 0.171,-0.632C0.197,-0.639 0.224,-0.643 0.253,-0.643C0.268,-0.643 0.283,-0.642 0.298,-0.64C0.313,-0.637 0.327,-0.634 0.34,-0.63C0.353,-0.626 0.365,-0.622 0.375,-0.617C0.385,-0.612 0.392,-0.608 0.395,-0.605C0.398,-0.602 0.4,-0.599 0.402,-0.597C0.403,-0.594 0.404,-0.591 0.405,-0.588C0.405,-0.584 0.406,-0.579 0.406,-0.573C0.407,-0.568 0.407,-0.561 0.407,-0.552C0.407,-0.543 0.406,-0.535 0.406,-0.528C0.406,-0.522 0.405,-0.516 0.404,-0.512C0.402,-0.508 0.401,-0.505 0.399,-0.503C0.397,-0.501 0.394,-0.5 0.39,-0.5C0.387,-0.5 0.381,-0.502 0.373,-0.507C0.365,-0.511 0.356,-0.516 0.344,-0.522C0.333,-0.527 0.32,-0.532 0.305,-0.536C0.29,-0.541 0.273,-0.543 0.255,-0.543C0.241,-0.543 0.229,-0.541 0.219,-0.538C0.208,-0.534 0.2,-0.53 0.193,-0.524C0.186,-0.518 0.18,-0.51 0.177,-0.502C0.174,-0.493 0.172,-0.485 0.172,-0.475C0.172,-0.461 0.176,-0.449 0.183,-0.439C0.191,-0.428 0.201,-0.419 0.214,-0.411C0.227,-0.403 0.242,-0.396 0.258,-0.389C0.274,-0.382 0.291,-0.375 0.308,-0.367C0.325,-0.359 0.341,-0.35 0.357,-0.34C0.374,-0.33 0.388,-0.318 0.401,-0.304C0.414,-0.291 0.424,-0.274 0.432,-0.256C0.439,-0.237 0.443,-0.215 0.443,-0.189Z" style="fill:white;fill-rule:nonzero;"/>
                        </g>
                        <g transform="matrix(47.9238,0,0,47.9238,51911.8,3705.15)">
                            <path d="M0.586,-0.048C0.59,-0.036 0.593,-0.027 0.594,-0.02C0.595,-0.013 0.593,-0.008 0.59,-0.005C0.586,-0.001 0.58,0.001 0.571,0.002C0.562,0.003 0.549,0.003 0.533,0.003C0.517,0.003 0.504,0.003 0.494,0.002C0.485,0.002 0.478,0.001 0.473,-0.001C0.468,-0.002 0.465,-0.004 0.463,-0.007C0.461,-0.009 0.459,-0.013 0.458,-0.017L0.416,-0.144L0.178,-0.144L0.138,-0.021C0.137,-0.016 0.135,-0.012 0.133,-0.009C0.131,-0.006 0.128,-0.003 0.123,-0.002C0.118,0 0.111,0.001 0.103,0.002C0.094,0.003 0.083,0.003 0.069,0.003C0.054,0.003 0.042,0.002 0.034,0.001C0.025,0 0.019,-0.002 0.016,-0.006C0.013,-0.009 0.012,-0.015 0.013,-0.021C0.014,-0.028 0.016,-0.037 0.02,-0.049L0.215,-0.609C0.217,-0.615 0.219,-0.619 0.222,-0.623C0.224,-0.626 0.228,-0.629 0.234,-0.631C0.24,-0.632 0.248,-0.634 0.258,-0.634C0.268,-0.635 0.281,-0.635 0.298,-0.635C0.317,-0.635 0.332,-0.635 0.344,-0.634C0.355,-0.634 0.364,-0.632 0.37,-0.631C0.377,-0.629 0.381,-0.626 0.384,-0.623C0.387,-0.619 0.389,-0.614 0.391,-0.608L0.586,-0.048ZM0.296,-0.511L0.296,-0.511L0.207,-0.243L0.386,-0.243L0.296,-0.511Z" style="fill:white;fill-rule:nonzero;"/>
                        </g>
                        <g transform="matrix(47.9238,0,0,47.9238,51940.2,3705.15)">
                            <path d="M0.506,-0.096C0.506,-0.088 0.506,-0.081 0.505,-0.075C0.505,-0.069 0.504,-0.064 0.503,-0.06C0.502,-0.056 0.501,-0.053 0.499,-0.05C0.497,-0.047 0.495,-0.044 0.491,-0.04C0.488,-0.036 0.481,-0.031 0.47,-0.025C0.46,-0.02 0.448,-0.014 0.433,-0.009C0.418,-0.003 0.401,0.001 0.382,0.005C0.363,0.008 0.342,0.01 0.32,0.01C0.277,0.01 0.238,0.004 0.203,-0.01C0.168,-0.023 0.139,-0.043 0.114,-0.07C0.09,-0.096 0.071,-0.129 0.058,-0.169C0.045,-0.209 0.039,-0.255 0.039,-0.308C0.039,-0.361 0.046,-0.409 0.06,-0.451C0.074,-0.492 0.094,-0.527 0.12,-0.556C0.146,-0.584 0.177,-0.605 0.213,-0.62C0.249,-0.635 0.288,-0.642 0.332,-0.642C0.349,-0.642 0.366,-0.641 0.382,-0.638C0.399,-0.635 0.414,-0.631 0.427,-0.626C0.441,-0.622 0.454,-0.616 0.465,-0.61C0.476,-0.604 0.484,-0.598 0.488,-0.594C0.492,-0.59 0.495,-0.586 0.497,-0.583C0.499,-0.58 0.5,-0.576 0.501,-0.572C0.502,-0.567 0.503,-0.562 0.503,-0.556C0.504,-0.549 0.504,-0.542 0.504,-0.533C0.504,-0.523 0.504,-0.515 0.503,-0.508C0.502,-0.501 0.501,-0.495 0.5,-0.491C0.498,-0.487 0.496,-0.484 0.494,-0.482C0.491,-0.48 0.489,-0.479 0.486,-0.479C0.481,-0.479 0.475,-0.482 0.467,-0.488C0.46,-0.493 0.45,-0.5 0.438,-0.507C0.426,-0.514 0.412,-0.52 0.396,-0.526C0.379,-0.531 0.36,-0.534 0.337,-0.534C0.312,-0.534 0.289,-0.529 0.27,-0.519C0.25,-0.509 0.233,-0.494 0.219,-0.475C0.206,-0.456 0.195,-0.433 0.188,-0.406C0.181,-0.379 0.177,-0.348 0.177,-0.314C0.177,-0.277 0.181,-0.245 0.189,-0.218C0.196,-0.191 0.207,-0.168 0.221,-0.151C0.236,-0.133 0.253,-0.12 0.273,-0.112C0.293,-0.103 0.315,-0.099 0.34,-0.099C0.363,-0.099 0.383,-0.101 0.399,-0.107C0.416,-0.112 0.43,-0.118 0.442,-0.125C0.454,-0.131 0.464,-0.137 0.471,-0.142C0.479,-0.147 0.485,-0.15 0.489,-0.15C0.493,-0.15 0.495,-0.149 0.497,-0.148C0.499,-0.147 0.501,-0.144 0.502,-0.14C0.503,-0.136 0.504,-0.131 0.505,-0.124C0.506,-0.117 0.506,-0.107 0.506,-0.096Z" style="fill:white;fill-rule:nonzero;"/>
                        </g>
                    </g>
                    <g transform="matrix(3.31324e-18,0.184468,-0.135564,2.85271e-17,866.206,-8748.21)">
                        <path d="M51956.8,4377.89L51956.8,4347.15L52058.8,4347.15L52058.8,4318.62L52160.9,4362.52L52058.8,4406.42L52058.8,4377.89L51956.8,4377.89Z" style="fill:white;"/>
                    </g>
                </g>
            </g>
        </g>
    </g>
</svg>
