<?xml version="1.0" encoding="UTF-8" standalone="no"?>
<!DOCTYPE svg PUBLIC "-//W3C//DTD SVG 1.1//EN" "http://www.w3.org/Graphics/SVG/1.1/DTD/svg11.dtd">
<svg width="100%" height="100%" viewBox="0 0 1100 250" version="1.1" xmlns="http://www.w3.org/2000/svg" xmlns:xlink="http://www.w3.org/1999/xlink" xml:space="preserve" xmlns:serif="http://www.serif.com/" style="fill-rule:evenodd;clip-rule:evenodd;stroke-linejoin:round;stroke-miterlimit:2;">
    <g transform="matrix(1,0,0,1,-813.531,-4862.37)">
        <g transform="matrix(6.59992,0,0,1.88002,0,0)">
            <g transform="matrix(0.877211,0,0,0.917935,101.186,1495.9)">
                <g transform="matrix(0.169184,0,0,0.452248,0.419982,830.962)">
                    <rect x="146.28" y="789.301" width="1123.03" height="320.323" style="fill:none;"/>
                </g>
                <g transform="matrix(0.118094,0,0,0.396183,-422.468,-200.778)">
                    <g transform="matrix(134.073,0,0,134.073,4291.39,3728.83)">
                        <path d="M0.478,-0.017C0.478,-0.013 0.477,-0.01 0.475,-0.008C0.473,-0.006 0.469,-0.004 0.465,-0.002C0.46,-0 0.454,0.001 0.446,0.002C0.438,0.003 0.428,0.003 0.417,0.003C0.404,0.003 0.394,0.003 0.386,0.002C0.378,0.001 0.372,-0 0.368,-0.002C0.363,-0.004 0.36,-0.006 0.358,-0.008C0.356,-0.01 0.355,-0.013 0.355,-0.017L0.355,-0.265C0.355,-0.286 0.353,-0.303 0.35,-0.315C0.347,-0.327 0.343,-0.337 0.337,-0.346C0.331,-0.355 0.323,-0.361 0.314,-0.366C0.305,-0.371 0.294,-0.373 0.282,-0.373C0.266,-0.373 0.25,-0.367 0.234,-0.356C0.218,-0.345 0.202,-0.328 0.185,-0.306L0.185,-0.017C0.185,-0.013 0.184,-0.01 0.182,-0.008C0.18,-0.006 0.176,-0.004 0.172,-0.002C0.167,-0 0.161,0.001 0.153,0.002C0.145,0.003 0.135,0.003 0.123,0.003C0.111,0.003 0.101,0.003 0.093,0.002C0.085,0.001 0.079,-0 0.074,-0.002C0.07,-0.004 0.066,-0.006 0.064,-0.008C0.063,-0.01 0.062,-0.013 0.062,-0.017L0.062,-0.452C0.062,-0.455 0.062,-0.458 0.064,-0.461C0.066,-0.463 0.069,-0.465 0.073,-0.467C0.077,-0.468 0.082,-0.47 0.089,-0.47C0.096,-0.471 0.104,-0.472 0.114,-0.472C0.125,-0.472 0.133,-0.471 0.14,-0.47C0.147,-0.47 0.152,-0.468 0.156,-0.467C0.16,-0.465 0.162,-0.463 0.164,-0.461C0.166,-0.458 0.167,-0.455 0.167,-0.452L0.167,-0.402C0.191,-0.428 0.215,-0.447 0.24,-0.46C0.265,-0.473 0.291,-0.48 0.318,-0.48C0.347,-0.48 0.372,-0.475 0.393,-0.465C0.413,-0.456 0.43,-0.442 0.442,-0.426C0.455,-0.409 0.464,-0.389 0.469,-0.367C0.475,-0.344 0.478,-0.317 0.478,-0.286L0.478,-0.017Z" style="fill:rgb(73,130,243);fill-rule:nonzero;"/>
                    </g>
                    <g transform="matrix(134.073,0,0,134.073,4363.34,3728.83)">
                        <path d="M0.391,-0.086C0.391,-0.077 0.391,-0.07 0.39,-0.065C0.39,-0.059 0.389,-0.054 0.388,-0.05C0.388,-0.046 0.387,-0.043 0.385,-0.041C0.384,-0.038 0.382,-0.035 0.378,-0.031C0.374,-0.028 0.367,-0.023 0.358,-0.018C0.348,-0.012 0.338,-0.008 0.326,-0.003C0.314,0.001 0.301,0.004 0.286,0.007C0.272,0.009 0.258,0.011 0.243,0.011C0.209,0.011 0.179,0.006 0.154,-0.005C0.128,-0.015 0.106,-0.031 0.088,-0.051C0.071,-0.071 0.058,-0.096 0.049,-0.125C0.04,-0.155 0.035,-0.188 0.035,-0.226C0.035,-0.27 0.041,-0.307 0.052,-0.339C0.062,-0.371 0.078,-0.397 0.097,-0.418C0.117,-0.439 0.14,-0.454 0.167,-0.464C0.193,-0.474 0.222,-0.479 0.254,-0.479C0.267,-0.479 0.28,-0.478 0.293,-0.476C0.305,-0.474 0.317,-0.471 0.328,-0.467C0.339,-0.463 0.349,-0.458 0.357,-0.454C0.366,-0.449 0.372,-0.444 0.375,-0.441C0.379,-0.437 0.382,-0.434 0.383,-0.432C0.385,-0.429 0.386,-0.426 0.386,-0.422C0.387,-0.418 0.388,-0.414 0.388,-0.408C0.389,-0.402 0.389,-0.395 0.389,-0.387C0.389,-0.368 0.388,-0.355 0.384,-0.347C0.381,-0.34 0.377,-0.336 0.372,-0.336C0.366,-0.336 0.36,-0.338 0.354,-0.343C0.348,-0.347 0.34,-0.352 0.332,-0.358C0.324,-0.363 0.313,-0.368 0.302,-0.373C0.29,-0.378 0.276,-0.38 0.26,-0.38C0.228,-0.38 0.203,-0.368 0.187,-0.343C0.17,-0.318 0.161,-0.282 0.161,-0.235C0.161,-0.211 0.163,-0.191 0.167,-0.173C0.172,-0.155 0.178,-0.14 0.186,-0.128C0.195,-0.116 0.205,-0.107 0.218,-0.101C0.23,-0.095 0.245,-0.092 0.261,-0.092C0.278,-0.092 0.293,-0.094 0.305,-0.099C0.317,-0.104 0.328,-0.11 0.337,-0.116C0.346,-0.122 0.354,-0.128 0.36,-0.133C0.366,-0.138 0.371,-0.141 0.375,-0.141C0.378,-0.141 0.381,-0.14 0.383,-0.138C0.385,-0.137 0.386,-0.134 0.387,-0.129C0.389,-0.125 0.389,-0.119 0.39,-0.112C0.391,-0.105 0.391,-0.097 0.391,-0.086Z" style="fill:rgb(73,130,243);fill-rule:nonzero;"/>
                    </g>
                    <g transform="matrix(134.073,0,0,134.073,4419.44,3728.83)">
                        <path d="M0.324,-0.618C0.324,-0.609 0.324,-0.601 0.323,-0.595C0.323,-0.59 0.322,-0.585 0.32,-0.582C0.319,-0.579 0.318,-0.577 0.316,-0.576C0.314,-0.575 0.313,-0.574 0.311,-0.574C0.308,-0.574 0.306,-0.575 0.303,-0.576C0.3,-0.577 0.297,-0.578 0.293,-0.58C0.289,-0.581 0.284,-0.582 0.278,-0.583C0.273,-0.584 0.266,-0.585 0.259,-0.585C0.25,-0.585 0.242,-0.584 0.236,-0.581C0.23,-0.578 0.224,-0.574 0.22,-0.568C0.216,-0.562 0.213,-0.554 0.211,-0.544C0.209,-0.535 0.208,-0.523 0.208,-0.509L0.208,-0.469L0.288,-0.469C0.291,-0.469 0.293,-0.468 0.296,-0.466C0.298,-0.465 0.3,-0.462 0.302,-0.458C0.303,-0.455 0.305,-0.449 0.305,-0.443C0.306,-0.436 0.307,-0.428 0.307,-0.419C0.307,-0.401 0.305,-0.388 0.302,-0.381C0.299,-0.373 0.294,-0.369 0.288,-0.369L0.208,-0.369L0.208,-0.017C0.208,-0.013 0.207,-0.01 0.205,-0.008C0.203,-0.006 0.2,-0.004 0.195,-0.002C0.191,-0 0.184,0.001 0.176,0.002C0.168,0.003 0.158,0.003 0.146,0.003C0.135,0.003 0.125,0.003 0.117,0.002C0.109,0.001 0.103,-0 0.098,-0.002C0.093,-0.004 0.09,-0.006 0.088,-0.008C0.086,-0.01 0.085,-0.013 0.085,-0.017L0.085,-0.369L0.031,-0.369C0.025,-0.369 0.02,-0.373 0.017,-0.381C0.014,-0.388 0.012,-0.401 0.012,-0.419C0.012,-0.428 0.013,-0.436 0.013,-0.443C0.014,-0.449 0.015,-0.455 0.017,-0.458C0.018,-0.462 0.02,-0.465 0.023,-0.466C0.025,-0.468 0.028,-0.469 0.031,-0.469L0.085,-0.469L0.085,-0.505C0.085,-0.535 0.088,-0.561 0.094,-0.583C0.1,-0.606 0.109,-0.624 0.122,-0.639C0.134,-0.654 0.15,-0.665 0.17,-0.672C0.189,-0.68 0.212,-0.684 0.238,-0.684C0.251,-0.684 0.263,-0.683 0.274,-0.68C0.286,-0.678 0.295,-0.676 0.301,-0.674C0.308,-0.671 0.312,-0.669 0.314,-0.667C0.317,-0.665 0.319,-0.662 0.32,-0.657C0.322,-0.653 0.323,-0.648 0.323,-0.642C0.324,-0.635 0.324,-0.628 0.324,-0.618Z" style="fill:rgb(73,130,243);fill-rule:nonzero;"/>
                    </g>
                    <g transform="matrix(134.073,0,0,134.073,4461.86,3728.83)">
                        <path d="M0.467,-0.052C0.467,-0.043 0.466,-0.035 0.466,-0.028C0.465,-0.021 0.464,-0.016 0.462,-0.012C0.46,-0.007 0.458,-0.004 0.456,-0.003C0.453,-0.001 0.45,-0 0.447,-0L0.083,-0C0.076,-0 0.07,-0.001 0.065,-0.002C0.06,-0.003 0.056,-0.006 0.052,-0.01C0.049,-0.013 0.047,-0.019 0.045,-0.026C0.044,-0.033 0.043,-0.042 0.043,-0.054C0.043,-0.064 0.043,-0.074 0.044,-0.081C0.045,-0.089 0.047,-0.096 0.05,-0.102C0.052,-0.108 0.056,-0.114 0.06,-0.119C0.064,-0.125 0.069,-0.131 0.076,-0.138L0.185,-0.255C0.207,-0.278 0.224,-0.299 0.238,-0.318C0.251,-0.336 0.262,-0.353 0.269,-0.369C0.277,-0.384 0.282,-0.399 0.284,-0.412C0.287,-0.425 0.289,-0.437 0.289,-0.449C0.289,-0.459 0.287,-0.47 0.283,-0.479C0.28,-0.489 0.275,-0.497 0.268,-0.504C0.262,-0.512 0.253,-0.517 0.243,-0.521C0.233,-0.525 0.221,-0.527 0.208,-0.527C0.188,-0.527 0.171,-0.525 0.156,-0.52C0.142,-0.515 0.129,-0.51 0.117,-0.504C0.106,-0.498 0.097,-0.492 0.089,-0.487C0.082,-0.482 0.076,-0.479 0.072,-0.479C0.069,-0.479 0.066,-0.48 0.064,-0.482C0.062,-0.484 0.06,-0.488 0.059,-0.492C0.058,-0.497 0.057,-0.503 0.056,-0.51C0.055,-0.518 0.055,-0.528 0.055,-0.539C0.055,-0.546 0.055,-0.552 0.055,-0.557C0.056,-0.562 0.057,-0.567 0.058,-0.571C0.059,-0.574 0.06,-0.578 0.062,-0.58C0.063,-0.583 0.066,-0.586 0.07,-0.59C0.074,-0.594 0.082,-0.599 0.093,-0.605C0.103,-0.611 0.117,-0.617 0.133,-0.623C0.149,-0.628 0.166,-0.633 0.186,-0.637C0.205,-0.641 0.225,-0.643 0.246,-0.643C0.278,-0.643 0.307,-0.639 0.332,-0.631C0.356,-0.622 0.377,-0.611 0.393,-0.596C0.409,-0.581 0.421,-0.564 0.429,-0.543C0.437,-0.523 0.441,-0.501 0.441,-0.478C0.441,-0.457 0.439,-0.437 0.436,-0.417C0.432,-0.397 0.424,-0.376 0.411,-0.353C0.399,-0.33 0.381,-0.304 0.359,-0.277C0.336,-0.249 0.307,-0.216 0.27,-0.18L0.196,-0.104L0.445,-0.104C0.448,-0.104 0.451,-0.103 0.454,-0.101C0.457,-0.099 0.459,-0.096 0.461,-0.092C0.463,-0.088 0.464,-0.083 0.465,-0.076C0.466,-0.069 0.467,-0.061 0.467,-0.052Z" style="fill:rgb(73,130,243);fill-rule:nonzero;"/>
                    </g>
                    <g transform="matrix(134.073,0,0,134.073,4529.81,3728.83)">
                        <path d="M0.464,-0.247C0.464,-0.232 0.461,-0.221 0.454,-0.214C0.447,-0.207 0.438,-0.203 0.426,-0.203L0.161,-0.203C0.161,-0.185 0.163,-0.168 0.168,-0.153C0.172,-0.137 0.179,-0.125 0.189,-0.114C0.198,-0.103 0.211,-0.095 0.226,-0.09C0.241,-0.084 0.259,-0.082 0.28,-0.082C0.302,-0.082 0.321,-0.083 0.337,-0.086C0.353,-0.089 0.367,-0.093 0.379,-0.096C0.391,-0.1 0.401,-0.104 0.409,-0.107C0.417,-0.11 0.423,-0.111 0.428,-0.111C0.431,-0.111 0.433,-0.111 0.435,-0.11C0.437,-0.108 0.439,-0.106 0.44,-0.104C0.441,-0.101 0.442,-0.096 0.443,-0.091C0.443,-0.086 0.443,-0.079 0.443,-0.071C0.443,-0.064 0.443,-0.058 0.443,-0.052C0.443,-0.047 0.442,-0.043 0.441,-0.04C0.441,-0.036 0.44,-0.033 0.438,-0.031C0.437,-0.028 0.435,-0.026 0.433,-0.023C0.431,-0.021 0.425,-0.018 0.416,-0.014C0.407,-0.01 0.395,-0.006 0.38,-0.003C0.365,0.001 0.348,0.004 0.33,0.007C0.311,0.01 0.291,0.011 0.269,0.011C0.23,0.011 0.196,0.006 0.167,-0.003C0.138,-0.013 0.114,-0.028 0.094,-0.048C0.075,-0.068 0.06,-0.093 0.051,-0.123C0.041,-0.153 0.036,-0.189 0.036,-0.229C0.036,-0.268 0.041,-0.303 0.051,-0.334C0.061,-0.365 0.076,-0.392 0.095,-0.413C0.114,-0.435 0.138,-0.451 0.165,-0.463C0.193,-0.474 0.224,-0.48 0.258,-0.48C0.295,-0.48 0.326,-0.475 0.352,-0.464C0.378,-0.453 0.399,-0.438 0.416,-0.419C0.432,-0.4 0.444,-0.378 0.452,-0.352C0.46,-0.326 0.464,-0.297 0.464,-0.267L0.464,-0.247ZM0.345,-0.282C0.346,-0.317 0.339,-0.344 0.324,-0.364C0.309,-0.383 0.286,-0.393 0.255,-0.393C0.24,-0.393 0.226,-0.39 0.215,-0.384C0.203,-0.378 0.193,-0.371 0.186,-0.361C0.178,-0.351 0.172,-0.339 0.168,-0.325C0.164,-0.312 0.162,-0.298 0.161,-0.282L0.345,-0.282Z" style="fill:rgb(73,130,243);fill-rule:nonzero;"/>
                    </g>
                    <g transform="matrix(134.073,0,0,134.073,4597.31,3728.83)">
                        <path d="M0.454,-0.422C0.454,-0.406 0.452,-0.395 0.449,-0.387C0.445,-0.38 0.441,-0.376 0.436,-0.376L0.384,-0.376C0.391,-0.368 0.397,-0.359 0.4,-0.349C0.403,-0.339 0.404,-0.329 0.404,-0.318C0.404,-0.293 0.4,-0.27 0.392,-0.251C0.383,-0.231 0.371,-0.214 0.355,-0.201C0.339,-0.187 0.32,-0.177 0.298,-0.17C0.276,-0.163 0.251,-0.16 0.224,-0.16C0.21,-0.16 0.196,-0.161 0.184,-0.165C0.171,-0.168 0.161,-0.172 0.154,-0.177C0.15,-0.173 0.147,-0.167 0.144,-0.162C0.141,-0.156 0.139,-0.149 0.139,-0.142C0.139,-0.133 0.143,-0.125 0.152,-0.119C0.16,-0.113 0.172,-0.11 0.187,-0.109L0.292,-0.105C0.317,-0.104 0.339,-0.101 0.359,-0.094C0.378,-0.088 0.394,-0.08 0.407,-0.069C0.421,-0.058 0.431,-0.045 0.438,-0.03C0.445,-0.014 0.448,0.003 0.448,0.022C0.448,0.044 0.444,0.064 0.434,0.083C0.425,0.102 0.41,0.119 0.392,0.133C0.373,0.147 0.349,0.158 0.321,0.166C0.292,0.174 0.259,0.178 0.221,0.178C0.184,0.178 0.152,0.175 0.126,0.169C0.1,0.164 0.078,0.155 0.061,0.145C0.045,0.135 0.032,0.122 0.025,0.108C0.017,0.093 0.013,0.077 0.013,0.06C0.013,0.049 0.015,0.039 0.017,0.029C0.02,0.02 0.024,0.01 0.03,0.001C0.035,-0.008 0.042,-0.016 0.049,-0.024C0.057,-0.033 0.066,-0.04 0.076,-0.048C0.062,-0.055 0.051,-0.066 0.044,-0.078C0.036,-0.091 0.032,-0.105 0.032,-0.121C0.032,-0.14 0.037,-0.157 0.045,-0.173C0.054,-0.189 0.066,-0.203 0.08,-0.216C0.068,-0.227 0.059,-0.241 0.052,-0.257C0.045,-0.273 0.042,-0.293 0.042,-0.316C0.042,-0.342 0.046,-0.365 0.055,-0.385C0.064,-0.405 0.077,-0.421 0.093,-0.435C0.109,-0.449 0.128,-0.46 0.15,-0.467C0.172,-0.474 0.196,-0.478 0.223,-0.478C0.237,-0.478 0.25,-0.477 0.262,-0.476C0.275,-0.474 0.287,-0.472 0.297,-0.469L0.436,-0.469C0.441,-0.469 0.446,-0.465 0.449,-0.458C0.452,-0.451 0.454,-0.439 0.454,-0.422ZM0.296,-0.319C0.296,-0.342 0.29,-0.361 0.277,-0.374C0.264,-0.387 0.245,-0.393 0.222,-0.393C0.21,-0.393 0.199,-0.391 0.19,-0.387C0.181,-0.383 0.173,-0.377 0.167,-0.37C0.161,-0.363 0.157,-0.355 0.154,-0.346C0.151,-0.337 0.149,-0.327 0.149,-0.317C0.149,-0.295 0.156,-0.277 0.169,-0.264C0.182,-0.252 0.2,-0.245 0.223,-0.245C0.236,-0.245 0.246,-0.247 0.255,-0.251C0.264,-0.255 0.272,-0.26 0.278,-0.267C0.284,-0.274 0.289,-0.282 0.292,-0.291C0.295,-0.3 0.296,-0.309 0.296,-0.319ZM0.325,0.029C0.325,0.014 0.319,0.003 0.308,-0.005C0.296,-0.013 0.28,-0.017 0.259,-0.018L0.172,-0.02C0.163,-0.014 0.157,-0.008 0.152,-0.002C0.147,0.003 0.142,0.009 0.139,0.014C0.136,0.019 0.134,0.024 0.133,0.029C0.132,0.034 0.132,0.039 0.132,0.044C0.132,0.061 0.14,0.073 0.156,0.082C0.173,0.09 0.196,0.094 0.226,0.094C0.245,0.094 0.26,0.092 0.273,0.089C0.286,0.085 0.296,0.08 0.304,0.074C0.312,0.068 0.317,0.061 0.32,0.053C0.324,0.045 0.325,0.037 0.325,0.029Z" style="fill:rgb(73,130,243);fill-rule:nonzero;"/>
                    </g>
                    <g transform="matrix(134.073,0,0,134.073,4660.88,3728.83)">
                        <path d="M0.324,-0.618C0.324,-0.609 0.324,-0.601 0.323,-0.595C0.323,-0.59 0.322,-0.585 0.32,-0.582C0.319,-0.579 0.318,-0.577 0.316,-0.576C0.314,-0.575 0.313,-0.574 0.311,-0.574C0.308,-0.574 0.306,-0.575 0.303,-0.576C0.3,-0.577 0.297,-0.578 0.293,-0.58C0.289,-0.581 0.284,-0.582 0.278,-0.583C0.273,-0.584 0.266,-0.585 0.259,-0.585C0.25,-0.585 0.242,-0.584 0.236,-0.581C0.23,-0.578 0.224,-0.574 0.22,-0.568C0.216,-0.562 0.213,-0.554 0.211,-0.544C0.209,-0.535 0.208,-0.523 0.208,-0.509L0.208,-0.469L0.288,-0.469C0.291,-0.469 0.293,-0.468 0.296,-0.466C0.298,-0.465 0.3,-0.462 0.302,-0.458C0.303,-0.455 0.305,-0.449 0.305,-0.443C0.306,-0.436 0.307,-0.428 0.307,-0.419C0.307,-0.401 0.305,-0.388 0.302,-0.381C0.299,-0.373 0.294,-0.369 0.288,-0.369L0.208,-0.369L0.208,-0.017C0.208,-0.013 0.207,-0.01 0.205,-0.008C0.203,-0.006 0.2,-0.004 0.195,-0.002C0.191,-0 0.184,0.001 0.176,0.002C0.168,0.003 0.158,0.003 0.146,0.003C0.135,0.003 0.125,0.003 0.117,0.002C0.109,0.001 0.103,-0 0.098,-0.002C0.093,-0.004 0.09,-0.006 0.088,-0.008C0.086,-0.01 0.085,-0.013 0.085,-0.017L0.085,-0.369L0.031,-0.369C0.025,-0.369 0.02,-0.373 0.017,-0.381C0.014,-0.388 0.012,-0.401 0.012,-0.419C0.012,-0.428 0.013,-0.436 0.013,-0.443C0.014,-0.449 0.015,-0.455 0.017,-0.458C0.018,-0.462 0.02,-0.465 0.023,-0.466C0.025,-0.468 0.028,-0.469 0.031,-0.469L0.085,-0.469L0.085,-0.505C0.085,-0.535 0.088,-0.561 0.094,-0.583C0.1,-0.606 0.109,-0.624 0.122,-0.639C0.134,-0.654 0.15,-0.665 0.17,-0.672C0.189,-0.68 0.212,-0.684 0.238,-0.684C0.251,-0.684 0.263,-0.683 0.274,-0.68C0.286,-0.678 0.295,-0.676 0.301,-0.674C0.308,-0.671 0.312,-0.669 0.314,-0.667C0.317,-0.665 0.319,-0.662 0.32,-0.657C0.322,-0.653 0.323,-0.648 0.323,-0.642C0.324,-0.635 0.324,-0.628 0.324,-0.618Z" style="fill:rgb(73,130,243);fill-rule:nonzero;"/>
                    </g>
                </g>
                <g transform="matrix(0.931001,0,0,1,-207.998,404.887)">
                    <g transform="matrix(1.88454e-17,0.961264,-0.776524,1.48509e-16,3178.74,-48848.6)">
                        <path d="M51782.4,3719.52C51782.4,3714.91 51772.9,3711.16 51761.3,3711.16L51652.8,3711.16C51641.1,3711.16 51631.7,3714.91 51631.7,3719.52L51631.7,3762.53C51631.7,3767.14 51641.1,3770.89 51652.8,3770.89L51761.3,3770.89C51772.9,3770.89 51782.4,3767.14 51782.4,3762.53L51782.4,3719.52Z" style="fill:rgb(73,130,243);"/>
                    </g>
                    <g transform="matrix(0.258086,0,0,0.806088,-13128.1,-2157.86)">
                        <g transform="matrix(47.9238,0,0,47.9238,51888.2,3705.15)">
                            <path d="M0.59,-0.045C0.59,-0.037 0.589,-0.031 0.586,-0.025C0.583,-0.019 0.58,-0.014 0.575,-0.01C0.571,-0.006 0.566,-0.003 0.56,-0.002C0.554,0 0.548,0.001 0.542,0.001L0.487,0.001C0.475,0.001 0.466,-0 0.457,-0.002C0.449,-0.005 0.441,-0.009 0.434,-0.015C0.427,-0.021 0.421,-0.029 0.414,-0.039C0.408,-0.05 0.4,-0.063 0.392,-0.079L0.235,-0.375C0.226,-0.392 0.216,-0.411 0.207,-0.431C0.198,-0.452 0.189,-0.472 0.182,-0.491L0.181,-0.491C0.182,-0.467 0.183,-0.444 0.184,-0.421C0.184,-0.397 0.185,-0.373 0.185,-0.349L0.185,-0.018C0.185,-0.015 0.184,-0.012 0.182,-0.009C0.18,-0.007 0.177,-0.004 0.173,-0.003C0.168,-0.001 0.162,0 0.155,0.001C0.147,0.002 0.138,0.003 0.126,0.003C0.115,0.003 0.105,0.002 0.098,0.001C0.09,0 0.084,-0.001 0.08,-0.003C0.076,-0.004 0.073,-0.007 0.071,-0.009C0.07,-0.012 0.069,-0.015 0.069,-0.018L0.069,-0.586C0.069,-0.601 0.073,-0.613 0.082,-0.62C0.091,-0.628 0.102,-0.632 0.115,-0.632L0.184,-0.632C0.196,-0.632 0.207,-0.631 0.215,-0.629C0.224,-0.627 0.231,-0.623 0.238,-0.618C0.245,-0.613 0.251,-0.607 0.257,-0.598C0.263,-0.589 0.269,-0.579 0.275,-0.566L0.398,-0.335C0.405,-0.321 0.412,-0.307 0.419,-0.294C0.426,-0.28 0.433,-0.267 0.439,-0.253C0.446,-0.24 0.452,-0.226 0.458,-0.213C0.465,-0.2 0.471,-0.187 0.477,-0.174L0.477,-0.174C0.476,-0.197 0.475,-0.221 0.475,-0.246C0.474,-0.27 0.474,-0.294 0.474,-0.316L0.474,-0.613C0.474,-0.616 0.475,-0.619 0.477,-0.622C0.479,-0.624 0.482,-0.626 0.487,-0.628C0.491,-0.63 0.497,-0.632 0.505,-0.633C0.512,-0.633 0.522,-0.634 0.534,-0.634C0.545,-0.634 0.554,-0.633 0.562,-0.633C0.569,-0.632 0.575,-0.63 0.579,-0.628C0.583,-0.626 0.586,-0.624 0.587,-0.622C0.589,-0.619 0.59,-0.616 0.59,-0.613L0.59,-0.045Z" style="fill:white;fill-rule:nonzero;"/>
                        </g>
                        <g transform="matrix(47.9238,0,0,47.9238,51919.7,3705.15)">
                            <path d="M0.506,-0.096C0.506,-0.088 0.506,-0.081 0.505,-0.075C0.505,-0.069 0.504,-0.064 0.503,-0.06C0.502,-0.056 0.501,-0.053 0.499,-0.05C0.497,-0.047 0.495,-0.044 0.491,-0.04C0.488,-0.036 0.481,-0.031 0.47,-0.025C0.46,-0.02 0.448,-0.014 0.433,-0.009C0.418,-0.003 0.401,0.001 0.382,0.005C0.363,0.008 0.342,0.01 0.32,0.01C0.277,0.01 0.238,0.004 0.203,-0.01C0.168,-0.023 0.139,-0.043 0.114,-0.07C0.09,-0.096 0.071,-0.129 0.058,-0.169C0.045,-0.209 0.039,-0.255 0.039,-0.308C0.039,-0.361 0.046,-0.409 0.06,-0.451C0.074,-0.492 0.094,-0.527 0.12,-0.556C0.146,-0.584 0.177,-0.605 0.213,-0.62C0.249,-0.635 0.288,-0.642 0.332,-0.642C0.349,-0.642 0.366,-0.641 0.382,-0.638C0.399,-0.635 0.414,-0.631 0.427,-0.626C0.441,-0.622 0.454,-0.616 0.465,-0.61C0.476,-0.604 0.484,-0.598 0.488,-0.594C0.492,-0.59 0.495,-0.586 0.497,-0.583C0.499,-0.58 0.5,-0.576 0.501,-0.572C0.502,-0.567 0.503,-0.562 0.503,-0.556C0.504,-0.549 0.504,-0.542 0.504,-0.533C0.504,-0.523 0.504,-0.515 0.503,-0.508C0.502,-0.501 0.501,-0.495 0.5,-0.491C0.498,-0.487 0.496,-0.484 0.494,-0.482C0.491,-0.48 0.489,-0.479 0.486,-0.479C0.481,-0.479 0.475,-0.482 0.467,-0.488C0.46,-0.493 0.45,-0.5 0.438,-0.507C0.426,-0.514 0.412,-0.52 0.396,-0.526C0.379,-0.531 0.36,-0.534 0.337,-0.534C0.312,-0.534 0.289,-0.529 0.27,-0.519C0.25,-0.509 0.233,-0.494 0.219,-0.475C0.206,-0.456 0.195,-0.433 0.188,-0.406C0.181,-0.379 0.177,-0.348 0.177,-0.314C0.177,-0.277 0.181,-0.245 0.189,-0.218C0.196,-0.191 0.207,-0.168 0.221,-0.151C0.236,-0.133 0.253,-0.12 0.273,-0.112C0.293,-0.103 0.315,-0.099 0.34,-0.099C0.363,-0.099 0.383,-0.101 0.399,-0.107C0.416,-0.112 0.43,-0.118 0.442,-0.125C0.454,-0.131 0.464,-0.137 0.471,-0.142C0.479,-0.147 0.485,-0.15 0.489,-0.15C0.493,-0.15 0.495,-0.149 0.497,-0.148C0.499,-0.147 0.501,-0.144 0.502,-0.14C0.503,-0.136 0.504,-0.131 0.505,-0.124C0.506,-0.117 0.506,-0.107 0.506,-0.096Z" style="fill:white;fill-rule:nonzero;"/>
                        </g>
                        <g transform="matrix(47.9238,0,0,47.9238,51945.1,3705.15)">
                            <path d="M0.423,-0.579C0.423,-0.569 0.423,-0.561 0.422,-0.554C0.421,-0.548 0.42,-0.542 0.418,-0.539C0.416,-0.535 0.414,-0.532 0.412,-0.53C0.41,-0.528 0.407,-0.527 0.404,-0.527L0.198,-0.527L0.198,-0.357L0.392,-0.357C0.395,-0.357 0.397,-0.356 0.399,-0.354C0.402,-0.353 0.404,-0.35 0.406,-0.346C0.407,-0.342 0.409,-0.337 0.409,-0.331C0.41,-0.324 0.411,-0.316 0.411,-0.306C0.411,-0.296 0.41,-0.288 0.409,-0.282C0.409,-0.275 0.407,-0.27 0.406,-0.266C0.404,-0.261 0.402,-0.258 0.399,-0.257C0.397,-0.255 0.395,-0.254 0.392,-0.254L0.198,-0.254L0.198,-0.019C0.198,-0.015 0.197,-0.012 0.195,-0.009C0.193,-0.007 0.189,-0.004 0.184,-0.003C0.179,-0.001 0.173,0 0.165,0.001C0.156,0.002 0.146,0.003 0.133,0.003C0.121,0.003 0.111,0.002 0.102,0.001C0.094,0 0.087,-0.001 0.083,-0.003C0.078,-0.004 0.074,-0.007 0.072,-0.009C0.07,-0.012 0.069,-0.015 0.069,-0.019L0.069,-0.591C0.069,-0.606 0.073,-0.616 0.08,-0.622C0.087,-0.629 0.096,-0.632 0.107,-0.632L0.404,-0.632C0.407,-0.632 0.41,-0.631 0.412,-0.629C0.414,-0.627 0.416,-0.624 0.418,-0.62C0.42,-0.616 0.421,-0.611 0.422,-0.604C0.423,-0.597 0.423,-0.589 0.423,-0.579Z" style="fill:white;fill-rule:nonzero;"/>
                        </g>
                    </g>
                    <g transform="matrix(0.258086,0,0,0.806088,-13128,-2079.91)">
                        <g transform="matrix(47.9238,0,0,47.9238,51890,3705.15)">
                            <path d="M0.443,-0.05C0.443,-0.041 0.443,-0.033 0.442,-0.027C0.441,-0.02 0.44,-0.015 0.438,-0.011C0.437,-0.007 0.435,-0.004 0.432,-0.003C0.43,-0.001 0.427,-0 0.424,-0L0.107,-0C0.096,-0 0.087,-0.003 0.08,-0.01C0.073,-0.016 0.069,-0.026 0.069,-0.041L0.069,-0.591C0.069,-0.606 0.073,-0.616 0.08,-0.622C0.087,-0.629 0.096,-0.632 0.107,-0.632L0.422,-0.632C0.425,-0.632 0.428,-0.631 0.43,-0.629C0.432,-0.628 0.434,-0.625 0.436,-0.621C0.438,-0.617 0.439,-0.612 0.44,-0.605C0.441,-0.599 0.441,-0.591 0.441,-0.581C0.441,-0.572 0.441,-0.564 0.44,-0.558C0.439,-0.552 0.438,-0.546 0.436,-0.542C0.434,-0.539 0.432,-0.536 0.43,-0.534C0.428,-0.532 0.425,-0.531 0.422,-0.531L0.197,-0.531L0.197,-0.377L0.388,-0.377C0.391,-0.377 0.393,-0.376 0.396,-0.374C0.398,-0.372 0.4,-0.37 0.402,-0.366C0.403,-0.362 0.405,-0.357 0.406,-0.351C0.406,-0.344 0.407,-0.337 0.407,-0.328C0.407,-0.318 0.406,-0.31 0.406,-0.304C0.405,-0.298 0.403,-0.293 0.402,-0.289C0.4,-0.286 0.398,-0.283 0.396,-0.281C0.393,-0.28 0.391,-0.279 0.388,-0.279L0.197,-0.279L0.197,-0.101L0.424,-0.101C0.427,-0.101 0.43,-0.1 0.432,-0.098C0.435,-0.096 0.437,-0.093 0.438,-0.089C0.44,-0.085 0.441,-0.08 0.442,-0.074C0.443,-0.068 0.443,-0.06 0.443,-0.05Z" style="fill:white;fill-rule:nonzero;"/>
                        </g>
                        <g transform="matrix(47.9238,0,0,47.9238,51912.7,3705.15)">
                            <path d="M0.576,-0.534C0.576,-0.524 0.575,-0.516 0.574,-0.509C0.574,-0.502 0.573,-0.497 0.571,-0.493C0.57,-0.489 0.568,-0.486 0.566,-0.484C0.564,-0.483 0.561,-0.482 0.558,-0.482C0.554,-0.482 0.547,-0.485 0.538,-0.491C0.528,-0.497 0.516,-0.503 0.5,-0.51C0.484,-0.517 0.466,-0.523 0.444,-0.529C0.422,-0.535 0.397,-0.538 0.369,-0.538C0.338,-0.538 0.31,-0.532 0.286,-0.522C0.261,-0.511 0.24,-0.496 0.222,-0.477C0.205,-0.457 0.191,-0.434 0.182,-0.407C0.172,-0.38 0.167,-0.35 0.167,-0.317C0.167,-0.281 0.172,-0.249 0.182,-0.221C0.191,-0.194 0.205,-0.171 0.222,-0.152C0.239,-0.134 0.26,-0.12 0.284,-0.11C0.309,-0.101 0.335,-0.096 0.365,-0.096C0.379,-0.096 0.393,-0.098 0.407,-0.101C0.421,-0.104 0.434,-0.109 0.446,-0.116L0.446,-0.262L0.327,-0.262C0.321,-0.262 0.316,-0.266 0.313,-0.273C0.31,-0.281 0.308,-0.293 0.308,-0.311C0.308,-0.32 0.309,-0.327 0.309,-0.333C0.31,-0.34 0.311,-0.345 0.313,-0.348C0.315,-0.352 0.317,-0.355 0.319,-0.357C0.321,-0.358 0.324,-0.359 0.327,-0.359L0.54,-0.359C0.545,-0.359 0.55,-0.358 0.554,-0.357C0.558,-0.355 0.562,-0.352 0.565,-0.349C0.568,-0.345 0.57,-0.341 0.572,-0.336C0.573,-0.331 0.574,-0.325 0.574,-0.318L0.574,-0.067C0.574,-0.057 0.573,-0.049 0.569,-0.041C0.566,-0.034 0.559,-0.028 0.548,-0.024C0.538,-0.02 0.524,-0.015 0.509,-0.011C0.493,-0.006 0.477,-0.002 0.46,0.001C0.443,0.004 0.427,0.007 0.409,0.008C0.392,0.01 0.375,0.011 0.358,0.011C0.307,0.011 0.262,0.003 0.222,-0.011C0.183,-0.025 0.149,-0.046 0.121,-0.074C0.093,-0.101 0.072,-0.135 0.058,-0.175C0.043,-0.214 0.036,-0.259 0.036,-0.309C0.036,-0.361 0.043,-0.407 0.059,-0.448C0.075,-0.49 0.097,-0.525 0.125,-0.553C0.154,-0.582 0.189,-0.604 0.229,-0.62C0.27,-0.635 0.315,-0.643 0.365,-0.643C0.392,-0.643 0.417,-0.641 0.439,-0.637C0.462,-0.633 0.482,-0.629 0.498,-0.623C0.515,-0.618 0.529,-0.612 0.54,-0.606C0.551,-0.6 0.559,-0.594 0.563,-0.59C0.568,-0.585 0.571,-0.579 0.573,-0.571C0.575,-0.562 0.576,-0.55 0.576,-0.534Z" style="fill:white;fill-rule:nonzero;"/>
                        </g>
                        <g transform="matrix(47.9238,0,0,47.9238,51943.3,3705.15)">
                            <path d="M0.423,-0.579C0.423,-0.569 0.423,-0.561 0.422,-0.554C0.421,-0.548 0.42,-0.542 0.418,-0.539C0.416,-0.535 0.414,-0.532 0.412,-0.53C0.41,-0.528 0.407,-0.527 0.404,-0.527L0.198,-0.527L0.198,-0.357L0.392,-0.357C0.395,-0.357 0.397,-0.356 0.399,-0.354C0.402,-0.353 0.404,-0.35 0.406,-0.346C0.407,-0.342 0.409,-0.337 0.409,-0.331C0.41,-0.324 0.411,-0.316 0.411,-0.306C0.411,-0.296 0.41,-0.288 0.409,-0.282C0.409,-0.275 0.407,-0.27 0.406,-0.266C0.404,-0.261 0.402,-0.258 0.399,-0.257C0.397,-0.255 0.395,-0.254 0.392,-0.254L0.198,-0.254L0.198,-0.019C0.198,-0.015 0.197,-0.012 0.195,-0.009C0.193,-0.007 0.189,-0.004 0.184,-0.003C0.179,-0.001 0.173,0 0.165,0.001C0.156,0.002 0.146,0.003 0.133,0.003C0.121,0.003 0.111,0.002 0.102,0.001C0.094,0 0.087,-0.001 0.083,-0.003C0.078,-0.004 0.074,-0.007 0.072,-0.009C0.07,-0.012 0.069,-0.015 0.069,-0.019L0.069,-0.591C0.069,-0.606 0.073,-0.616 0.08,-0.622C0.087,-0.629 0.096,-0.632 0.107,-0.632L0.404,-0.632C0.407,-0.632 0.41,-0.631 0.412,-0.629C0.414,-0.627 0.416,-0.624 0.418,-0.62C0.42,-0.616 0.421,-0.611 0.422,-0.604C0.423,-0.597 0.423,-0.589 0.423,-0.579Z" style="fill:white;fill-rule:nonzero;"/>
                        </g>
                    </g>
                    <g transform="matrix(3.31324e-18,0.184468,-0.135564,2.85271e-17,865.278,-8747.63)">
                        <path d="M51956.8,4377.89L51956.8,4347.15L52060.1,4347.15L52060.1,4318.62L52160.9,4362.52L52060.1,4406.42L52060.1,4377.89L51956.8,4377.89Z" style="fill:white;"/>
                    </g>
                </g>
            </g>
        </g>
    </g>
</svg>
