<?xml version="1.0" encoding="UTF-8" standalone="no"?>
<!DOCTYPE svg PUBLIC "-//W3C//DTD SVG 1.1//EN" "http://www.w3.org/Graphics/SVG/1.1/DTD/svg11.dtd">
<svg width="100%" height="100%" viewBox="0 0 1303 283" version="1.1" xmlns="http://www.w3.org/2000/svg" xmlns:xlink="http://www.w3.org/1999/xlink" xml:space="preserve" xmlns:serif="http://www.serif.com/" style="fill-rule:evenodd;clip-rule:evenodd;stroke-linecap:round;stroke-linejoin:round;stroke-miterlimit:1.5;">
    <g transform="matrix(1,0,0,1,-1812.15,-3342.99)">
        <g transform="matrix(5.39006,0,0,1.72574,0,0)">
            <g transform="matrix(1.58767,0,0,2.61937,-81636.6,-7780.15)">
                <path d="M51782.4,3720.12C51782.4,3715.18 51780.3,3711.16 51777.7,3711.16L51636.4,3711.16C51633.8,3711.16 51631.7,3715.18 51631.7,3720.12L51631.7,3761.93C51631.7,3766.88 51633.8,3770.89 51636.4,3770.89L51777.7,3770.89C51780.3,3770.89 51782.4,3766.88 51782.4,3761.93L51782.4,3720.12Z" style="fill:rgb(73,130,243);stroke:rgb(13,77,203);stroke-width:1.83px;"/>
            </g>
        </g>
        <g transform="matrix(5.39006,0,0,1.72574,0,0)">
            <g transform="matrix(0.121031,0,0,0.37802,-146.887,631.295)">
                <g transform="matrix(191.611,0,0,191.611,4291.39,3728.83)">
                    <path d="M0.538,-0.017C0.538,-0.013 0.537,-0.01 0.536,-0.008C0.534,-0.005 0.531,-0.003 0.526,-0.001C0.521,0 0.514,0.001 0.505,0.002C0.495,0.003 0.483,0.003 0.466,0.003C0.453,0.003 0.442,0.003 0.434,0.002C0.425,0.001 0.419,0 0.414,-0.002C0.41,-0.003 0.406,-0.006 0.404,-0.009C0.402,-0.011 0.401,-0.015 0.399,-0.019L0.343,-0.16C0.336,-0.176 0.329,-0.19 0.323,-0.202C0.316,-0.215 0.309,-0.225 0.301,-0.233C0.293,-0.241 0.284,-0.248 0.273,-0.252C0.263,-0.256 0.251,-0.258 0.237,-0.258L0.197,-0.258L0.197,-0.018C0.197,-0.014 0.196,-0.011 0.194,-0.009C0.192,-0.006 0.188,-0.004 0.184,-0.002C0.179,-0.001 0.172,0 0.164,0.001C0.156,0.002 0.146,0.003 0.133,0.003C0.12,0.003 0.11,0.002 0.102,0.001C0.094,0 0.087,-0.001 0.082,-0.002C0.077,-0.004 0.074,-0.006 0.072,-0.009C0.07,-0.011 0.069,-0.014 0.069,-0.018L0.069,-0.591C0.069,-0.606 0.073,-0.616 0.08,-0.622C0.087,-0.629 0.096,-0.632 0.107,-0.632L0.271,-0.632C0.287,-0.632 0.301,-0.632 0.312,-0.631C0.322,-0.63 0.332,-0.629 0.341,-0.628C0.366,-0.625 0.389,-0.619 0.409,-0.61C0.43,-0.601 0.447,-0.59 0.461,-0.575C0.475,-0.561 0.486,-0.545 0.494,-0.525C0.501,-0.506 0.505,-0.484 0.505,-0.458C0.505,-0.437 0.502,-0.418 0.497,-0.401C0.491,-0.383 0.484,-0.368 0.473,-0.354C0.463,-0.34 0.45,-0.328 0.435,-0.318C0.419,-0.308 0.402,-0.3 0.382,-0.294C0.392,-0.289 0.401,-0.284 0.409,-0.277C0.417,-0.271 0.425,-0.263 0.432,-0.254C0.44,-0.244 0.447,-0.234 0.453,-0.222C0.46,-0.21 0.466,-0.197 0.472,-0.182L0.525,-0.057C0.53,-0.045 0.534,-0.036 0.535,-0.03C0.537,-0.024 0.538,-0.02 0.538,-0.017ZM0.372,-0.445C0.372,-0.466 0.367,-0.484 0.358,-0.498C0.348,-0.512 0.333,-0.522 0.312,-0.528C0.305,-0.53 0.298,-0.531 0.289,-0.532C0.281,-0.533 0.27,-0.534 0.255,-0.534L0.197,-0.534L0.197,-0.354L0.263,-0.354C0.281,-0.354 0.297,-0.357 0.311,-0.361C0.324,-0.365 0.336,-0.372 0.345,-0.38C0.354,-0.388 0.361,-0.397 0.365,-0.408C0.37,-0.419 0.372,-0.432 0.372,-0.445Z" style="fill:white;fill-rule:nonzero;"/>
                </g>
                <g transform="matrix(191.611,0,0,191.611,4396.46,3728.83)">
                    <path d="M0.464,-0.247C0.464,-0.232 0.461,-0.221 0.454,-0.214C0.447,-0.207 0.438,-0.203 0.426,-0.203L0.161,-0.203C0.161,-0.185 0.163,-0.168 0.168,-0.153C0.172,-0.137 0.179,-0.125 0.189,-0.114C0.198,-0.103 0.211,-0.095 0.226,-0.09C0.241,-0.084 0.259,-0.082 0.28,-0.082C0.302,-0.082 0.321,-0.083 0.337,-0.086C0.353,-0.089 0.367,-0.093 0.379,-0.096C0.391,-0.1 0.401,-0.104 0.409,-0.107C0.417,-0.11 0.423,-0.111 0.428,-0.111C0.431,-0.111 0.433,-0.111 0.435,-0.11C0.437,-0.108 0.439,-0.106 0.44,-0.104C0.441,-0.101 0.442,-0.096 0.443,-0.091C0.443,-0.086 0.443,-0.079 0.443,-0.071C0.443,-0.064 0.443,-0.058 0.443,-0.052C0.443,-0.047 0.442,-0.043 0.441,-0.04C0.441,-0.036 0.44,-0.033 0.438,-0.031C0.437,-0.028 0.435,-0.026 0.433,-0.023C0.431,-0.021 0.425,-0.018 0.416,-0.014C0.407,-0.01 0.395,-0.006 0.38,-0.003C0.365,0.001 0.348,0.004 0.33,0.007C0.311,0.01 0.291,0.011 0.269,0.011C0.23,0.011 0.196,0.006 0.167,-0.003C0.138,-0.013 0.114,-0.028 0.094,-0.048C0.075,-0.068 0.06,-0.093 0.051,-0.123C0.041,-0.153 0.036,-0.189 0.036,-0.229C0.036,-0.268 0.041,-0.303 0.051,-0.334C0.061,-0.365 0.076,-0.392 0.095,-0.413C0.114,-0.435 0.138,-0.451 0.165,-0.463C0.193,-0.474 0.224,-0.48 0.258,-0.48C0.295,-0.48 0.326,-0.475 0.352,-0.464C0.378,-0.453 0.399,-0.438 0.416,-0.419C0.432,-0.4 0.444,-0.378 0.452,-0.352C0.46,-0.326 0.464,-0.297 0.464,-0.267L0.464,-0.247ZM0.345,-0.282C0.346,-0.317 0.339,-0.344 0.324,-0.364C0.309,-0.383 0.286,-0.393 0.255,-0.393C0.24,-0.393 0.226,-0.39 0.215,-0.384C0.203,-0.378 0.193,-0.371 0.186,-0.361C0.178,-0.351 0.172,-0.339 0.168,-0.325C0.164,-0.312 0.162,-0.298 0.161,-0.282L0.345,-0.282Z" style="fill:white;fill-rule:nonzero;"/>
                </g>
                <g transform="matrix(191.611,0,0,191.611,4491.98,3728.83)">
                    <path d="M0.462,-0.453C0.462,-0.451 0.462,-0.449 0.462,-0.447C0.462,-0.444 0.462,-0.442 0.461,-0.439C0.461,-0.436 0.46,-0.433 0.459,-0.43C0.458,-0.426 0.457,-0.422 0.456,-0.417L0.325,-0.023C0.324,-0.018 0.321,-0.013 0.319,-0.01C0.316,-0.007 0.311,-0.004 0.305,-0.002C0.299,-0 0.29,0.001 0.279,0.002C0.268,0.003 0.254,0.003 0.236,0.003C0.219,0.003 0.205,0.003 0.194,0.002C0.183,0.001 0.175,-0 0.168,-0.002C0.162,-0.004 0.158,-0.007 0.155,-0.01C0.152,-0.014 0.15,-0.018 0.148,-0.023L0.018,-0.417C0.016,-0.424 0.014,-0.43 0.013,-0.435C0.012,-0.44 0.011,-0.444 0.011,-0.446C0.011,-0.449 0.011,-0.451 0.011,-0.453C0.011,-0.456 0.012,-0.459 0.013,-0.461C0.015,-0.464 0.018,-0.466 0.023,-0.467C0.028,-0.469 0.034,-0.47 0.042,-0.471C0.05,-0.471 0.06,-0.472 0.072,-0.472C0.085,-0.472 0.096,-0.471 0.104,-0.47C0.112,-0.47 0.119,-0.469 0.123,-0.467C0.128,-0.466 0.131,-0.463 0.133,-0.461C0.135,-0.458 0.137,-0.455 0.138,-0.451L0.237,-0.131L0.24,-0.119L0.243,-0.131L0.341,-0.451C0.342,-0.455 0.343,-0.458 0.345,-0.461C0.348,-0.463 0.351,-0.466 0.355,-0.467C0.36,-0.469 0.366,-0.47 0.374,-0.47C0.381,-0.471 0.391,-0.472 0.404,-0.472C0.416,-0.472 0.426,-0.471 0.433,-0.471C0.441,-0.47 0.447,-0.469 0.451,-0.467C0.455,-0.466 0.458,-0.464 0.46,-0.461C0.462,-0.459 0.462,-0.456 0.462,-0.453Z" style="fill:white;fill-rule:nonzero;"/>
                </g>
                <g transform="matrix(191.611,0,0,191.611,4580.86,3728.83)">
                    <path d="M0.464,-0.247C0.464,-0.232 0.461,-0.221 0.454,-0.214C0.447,-0.207 0.438,-0.203 0.426,-0.203L0.161,-0.203C0.161,-0.185 0.163,-0.168 0.168,-0.153C0.172,-0.137 0.179,-0.125 0.189,-0.114C0.198,-0.103 0.211,-0.095 0.226,-0.09C0.241,-0.084 0.259,-0.082 0.28,-0.082C0.302,-0.082 0.321,-0.083 0.337,-0.086C0.353,-0.089 0.367,-0.093 0.379,-0.096C0.391,-0.1 0.401,-0.104 0.409,-0.107C0.417,-0.11 0.423,-0.111 0.428,-0.111C0.431,-0.111 0.433,-0.111 0.435,-0.11C0.437,-0.108 0.439,-0.106 0.44,-0.104C0.441,-0.101 0.442,-0.096 0.443,-0.091C0.443,-0.086 0.443,-0.079 0.443,-0.071C0.443,-0.064 0.443,-0.058 0.443,-0.052C0.443,-0.047 0.442,-0.043 0.441,-0.04C0.441,-0.036 0.44,-0.033 0.438,-0.031C0.437,-0.028 0.435,-0.026 0.433,-0.023C0.431,-0.021 0.425,-0.018 0.416,-0.014C0.407,-0.01 0.395,-0.006 0.38,-0.003C0.365,0.001 0.348,0.004 0.33,0.007C0.311,0.01 0.291,0.011 0.269,0.011C0.23,0.011 0.196,0.006 0.167,-0.003C0.138,-0.013 0.114,-0.028 0.094,-0.048C0.075,-0.068 0.06,-0.093 0.051,-0.123C0.041,-0.153 0.036,-0.189 0.036,-0.229C0.036,-0.268 0.041,-0.303 0.051,-0.334C0.061,-0.365 0.076,-0.392 0.095,-0.413C0.114,-0.435 0.138,-0.451 0.165,-0.463C0.193,-0.474 0.224,-0.48 0.258,-0.48C0.295,-0.48 0.326,-0.475 0.352,-0.464C0.378,-0.453 0.399,-0.438 0.416,-0.419C0.432,-0.4 0.444,-0.378 0.452,-0.352C0.46,-0.326 0.464,-0.297 0.464,-0.267L0.464,-0.247ZM0.345,-0.282C0.346,-0.317 0.339,-0.344 0.324,-0.364C0.309,-0.383 0.286,-0.393 0.255,-0.393C0.24,-0.393 0.226,-0.39 0.215,-0.384C0.203,-0.378 0.193,-0.371 0.186,-0.361C0.178,-0.351 0.172,-0.339 0.168,-0.325C0.164,-0.312 0.162,-0.298 0.161,-0.282L0.345,-0.282Z" style="fill:white;fill-rule:nonzero;"/>
                </g>
                <g transform="matrix(191.611,0,0,191.611,4677.32,3728.83)">
                    <path d="M0.341,-0.412C0.341,-0.4 0.341,-0.39 0.34,-0.383C0.34,-0.375 0.339,-0.369 0.337,-0.365C0.336,-0.361 0.334,-0.358 0.332,-0.356C0.33,-0.355 0.327,-0.354 0.324,-0.354C0.322,-0.354 0.319,-0.355 0.315,-0.356C0.312,-0.357 0.309,-0.358 0.304,-0.359C0.3,-0.361 0.296,-0.362 0.291,-0.363C0.286,-0.364 0.281,-0.365 0.275,-0.365C0.268,-0.365 0.261,-0.363 0.254,-0.361C0.248,-0.358 0.24,-0.354 0.233,-0.348C0.226,-0.342 0.218,-0.334 0.21,-0.324C0.202,-0.314 0.194,-0.302 0.185,-0.288L0.185,-0.017C0.185,-0.013 0.184,-0.01 0.182,-0.008C0.18,-0.006 0.176,-0.004 0.172,-0.002C0.167,-0 0.161,0.001 0.153,0.002C0.145,0.003 0.135,0.003 0.123,0.003C0.111,0.003 0.101,0.003 0.093,0.002C0.085,0.001 0.079,-0 0.074,-0.002C0.07,-0.004 0.066,-0.006 0.064,-0.008C0.063,-0.01 0.062,-0.013 0.062,-0.017L0.062,-0.452C0.062,-0.455 0.062,-0.458 0.064,-0.461C0.066,-0.463 0.069,-0.465 0.073,-0.467C0.077,-0.468 0.082,-0.47 0.089,-0.47C0.096,-0.471 0.104,-0.472 0.114,-0.472C0.125,-0.472 0.133,-0.471 0.14,-0.47C0.147,-0.47 0.152,-0.468 0.156,-0.467C0.16,-0.465 0.162,-0.463 0.164,-0.461C0.166,-0.458 0.167,-0.455 0.167,-0.452L0.167,-0.398C0.178,-0.414 0.189,-0.428 0.199,-0.438C0.209,-0.449 0.218,-0.457 0.228,-0.463C0.237,-0.47 0.246,-0.474 0.255,-0.476C0.264,-0.479 0.273,-0.48 0.282,-0.48C0.286,-0.48 0.291,-0.48 0.296,-0.479C0.301,-0.479 0.306,-0.478 0.311,-0.477C0.316,-0.476 0.321,-0.474 0.325,-0.473C0.329,-0.471 0.331,-0.47 0.333,-0.468C0.335,-0.467 0.336,-0.465 0.337,-0.463C0.338,-0.461 0.339,-0.458 0.339,-0.455C0.34,-0.451 0.34,-0.446 0.341,-0.439C0.341,-0.433 0.341,-0.423 0.341,-0.412Z" style="fill:white;fill-rule:nonzero;"/>
                </g>
                <g transform="matrix(191.611,0,0,191.611,4745.44,3728.83)">
                    <path d="M0.319,-0.06C0.319,-0.045 0.318,-0.034 0.317,-0.027C0.315,-0.019 0.313,-0.014 0.31,-0.01C0.307,-0.007 0.302,-0.005 0.297,-0.002C0.291,0 0.284,0.002 0.277,0.004C0.269,0.006 0.261,0.007 0.252,0.008C0.243,0.009 0.234,0.01 0.225,0.01C0.2,0.01 0.179,0.007 0.161,0C0.143,-0.006 0.128,-0.015 0.117,-0.028C0.105,-0.041 0.096,-0.057 0.091,-0.077C0.085,-0.096 0.083,-0.119 0.083,-0.146L0.083,-0.369L0.03,-0.369C0.024,-0.369 0.019,-0.373 0.016,-0.381C0.013,-0.388 0.011,-0.401 0.011,-0.419C0.011,-0.428 0.012,-0.436 0.012,-0.443C0.013,-0.449 0.014,-0.455 0.016,-0.458C0.018,-0.462 0.02,-0.465 0.022,-0.466C0.025,-0.468 0.028,-0.469 0.031,-0.469L0.083,-0.469L0.083,-0.566C0.083,-0.569 0.083,-0.572 0.085,-0.575C0.087,-0.577 0.09,-0.58 0.095,-0.581C0.1,-0.583 0.106,-0.584 0.114,-0.585C0.122,-0.586 0.132,-0.586 0.144,-0.586C0.156,-0.586 0.166,-0.586 0.174,-0.585C0.182,-0.584 0.188,-0.583 0.192,-0.581C0.197,-0.58 0.2,-0.577 0.202,-0.575C0.204,-0.572 0.205,-0.569 0.205,-0.566L0.205,-0.469L0.3,-0.469C0.303,-0.469 0.306,-0.468 0.308,-0.466C0.311,-0.465 0.313,-0.462 0.314,-0.458C0.316,-0.455 0.317,-0.449 0.318,-0.443C0.319,-0.436 0.319,-0.428 0.319,-0.419C0.319,-0.401 0.318,-0.388 0.314,-0.381C0.311,-0.373 0.306,-0.369 0.3,-0.369L0.205,-0.369L0.205,-0.165C0.205,-0.141 0.209,-0.123 0.216,-0.111C0.224,-0.099 0.237,-0.093 0.256,-0.093C0.263,-0.093 0.269,-0.094 0.274,-0.095C0.279,-0.096 0.284,-0.097 0.288,-0.099C0.292,-0.1 0.295,-0.102 0.298,-0.103C0.301,-0.104 0.303,-0.104 0.306,-0.104C0.308,-0.104 0.309,-0.104 0.311,-0.103C0.313,-0.102 0.314,-0.099 0.315,-0.096C0.316,-0.093 0.317,-0.088 0.318,-0.082C0.319,-0.076 0.319,-0.069 0.319,-0.06Z" style="fill:white;fill-rule:nonzero;"/>
                </g>
                <g transform="matrix(191.611,0,0,191.611,4855.18,3728.83)">
                    <path d="M0.319,-0.06C0.319,-0.045 0.318,-0.034 0.317,-0.027C0.315,-0.019 0.313,-0.014 0.31,-0.01C0.307,-0.007 0.302,-0.005 0.297,-0.002C0.291,0 0.284,0.002 0.277,0.004C0.269,0.006 0.261,0.007 0.252,0.008C0.243,0.009 0.234,0.01 0.225,0.01C0.2,0.01 0.179,0.007 0.161,0C0.143,-0.006 0.128,-0.015 0.117,-0.028C0.105,-0.041 0.096,-0.057 0.091,-0.077C0.085,-0.096 0.083,-0.119 0.083,-0.146L0.083,-0.369L0.03,-0.369C0.024,-0.369 0.019,-0.373 0.016,-0.381C0.013,-0.388 0.011,-0.401 0.011,-0.419C0.011,-0.428 0.012,-0.436 0.012,-0.443C0.013,-0.449 0.014,-0.455 0.016,-0.458C0.018,-0.462 0.02,-0.465 0.022,-0.466C0.025,-0.468 0.028,-0.469 0.031,-0.469L0.083,-0.469L0.083,-0.566C0.083,-0.569 0.083,-0.572 0.085,-0.575C0.087,-0.577 0.09,-0.58 0.095,-0.581C0.1,-0.583 0.106,-0.584 0.114,-0.585C0.122,-0.586 0.132,-0.586 0.144,-0.586C0.156,-0.586 0.166,-0.586 0.174,-0.585C0.182,-0.584 0.188,-0.583 0.192,-0.581C0.197,-0.58 0.2,-0.577 0.202,-0.575C0.204,-0.572 0.205,-0.569 0.205,-0.566L0.205,-0.469L0.3,-0.469C0.303,-0.469 0.306,-0.468 0.308,-0.466C0.311,-0.465 0.313,-0.462 0.314,-0.458C0.316,-0.455 0.317,-0.449 0.318,-0.443C0.319,-0.436 0.319,-0.428 0.319,-0.419C0.319,-0.401 0.318,-0.388 0.314,-0.381C0.311,-0.373 0.306,-0.369 0.3,-0.369L0.205,-0.369L0.205,-0.165C0.205,-0.141 0.209,-0.123 0.216,-0.111C0.224,-0.099 0.237,-0.093 0.256,-0.093C0.263,-0.093 0.269,-0.094 0.274,-0.095C0.279,-0.096 0.284,-0.097 0.288,-0.099C0.292,-0.1 0.295,-0.102 0.298,-0.103C0.301,-0.104 0.303,-0.104 0.306,-0.104C0.308,-0.104 0.309,-0.104 0.311,-0.103C0.313,-0.102 0.314,-0.099 0.315,-0.096C0.316,-0.093 0.317,-0.088 0.318,-0.082C0.319,-0.076 0.319,-0.069 0.319,-0.06Z" style="fill:white;fill-rule:nonzero;"/>
                </g>
                <g transform="matrix(191.611,0,0,191.611,4919.74,3728.83)">
                    <path d="M0.502,-0.239C0.502,-0.202 0.497,-0.168 0.487,-0.137C0.478,-0.107 0.463,-0.08 0.443,-0.058C0.423,-0.036 0.398,-0.019 0.368,-0.007C0.338,0.005 0.303,0.011 0.263,0.011C0.224,0.011 0.191,0.006 0.162,-0.005C0.133,-0.016 0.11,-0.031 0.091,-0.052C0.072,-0.072 0.058,-0.097 0.049,-0.127C0.04,-0.157 0.035,-0.192 0.035,-0.23C0.035,-0.267 0.04,-0.301 0.05,-0.332C0.06,-0.363 0.075,-0.389 0.095,-0.411C0.115,-0.433 0.139,-0.45 0.169,-0.462C0.199,-0.474 0.234,-0.48 0.274,-0.48C0.313,-0.48 0.347,-0.475 0.375,-0.464C0.404,-0.454 0.428,-0.438 0.447,-0.417C0.465,-0.397 0.479,-0.372 0.488,-0.342C0.497,-0.312 0.502,-0.278 0.502,-0.239ZM0.375,-0.234C0.375,-0.255 0.374,-0.275 0.37,-0.293C0.367,-0.311 0.361,-0.327 0.353,-0.34C0.345,-0.354 0.334,-0.364 0.321,-0.372C0.307,-0.379 0.29,-0.383 0.27,-0.383C0.251,-0.383 0.235,-0.379 0.222,-0.373C0.208,-0.366 0.197,-0.356 0.188,-0.344C0.179,-0.331 0.173,-0.315 0.168,-0.297C0.164,-0.279 0.162,-0.258 0.162,-0.235C0.162,-0.214 0.163,-0.194 0.167,-0.176C0.171,-0.158 0.176,-0.142 0.184,-0.129C0.192,-0.116 0.203,-0.105 0.217,-0.098C0.23,-0.091 0.247,-0.087 0.268,-0.087C0.286,-0.087 0.302,-0.09 0.316,-0.097C0.33,-0.104 0.341,-0.113 0.35,-0.126C0.358,-0.139 0.365,-0.154 0.369,-0.172C0.373,-0.19 0.375,-0.211 0.375,-0.234Z" style="fill:white;fill-rule:nonzero;"/>
                </g>
                <g transform="matrix(191.611,0,0,191.611,5066.07,3728.83)">
                    <path d="M0.475,-0.017C0.475,-0.013 0.474,-0.01 0.472,-0.008C0.471,-0.005 0.468,-0.003 0.464,-0.001C0.46,0 0.455,0.001 0.448,0.002C0.441,0.003 0.433,0.003 0.423,0.003C0.413,0.003 0.404,0.003 0.398,0.002C0.391,0.001 0.386,0 0.382,-0.001C0.378,-0.003 0.375,-0.005 0.373,-0.008C0.372,-0.01 0.371,-0.013 0.371,-0.017L0.371,-0.065C0.348,-0.041 0.325,-0.022 0.3,-0.009C0.275,0.005 0.248,0.011 0.218,0.011C0.185,0.011 0.157,0.005 0.134,-0.008C0.111,-0.021 0.092,-0.038 0.078,-0.06C0.063,-0.082 0.053,-0.107 0.046,-0.136C0.04,-0.166 0.037,-0.196 0.037,-0.229C0.037,-0.267 0.041,-0.302 0.049,-0.333C0.057,-0.364 0.069,-0.39 0.085,-0.412C0.101,-0.434 0.121,-0.451 0.145,-0.462C0.169,-0.474 0.196,-0.48 0.227,-0.48C0.251,-0.48 0.274,-0.475 0.293,-0.465C0.313,-0.455 0.333,-0.441 0.353,-0.421L0.353,-0.657C0.353,-0.66 0.353,-0.663 0.355,-0.666C0.357,-0.669 0.36,-0.671 0.365,-0.673C0.37,-0.674 0.376,-0.676 0.384,-0.677C0.392,-0.678 0.402,-0.678 0.414,-0.678C0.426,-0.678 0.436,-0.678 0.443,-0.677C0.451,-0.676 0.457,-0.674 0.462,-0.673C0.466,-0.671 0.47,-0.669 0.472,-0.666C0.474,-0.663 0.475,-0.66 0.475,-0.657L0.475,-0.017ZM0.353,-0.308C0.335,-0.33 0.318,-0.347 0.302,-0.358C0.286,-0.37 0.269,-0.376 0.251,-0.376C0.236,-0.376 0.222,-0.372 0.21,-0.364C0.199,-0.356 0.189,-0.345 0.182,-0.332C0.175,-0.319 0.17,-0.304 0.167,-0.287C0.163,-0.271 0.162,-0.254 0.162,-0.237C0.162,-0.219 0.163,-0.201 0.166,-0.184C0.169,-0.166 0.174,-0.151 0.18,-0.137C0.187,-0.124 0.196,-0.113 0.207,-0.105C0.218,-0.097 0.232,-0.093 0.249,-0.093C0.257,-0.093 0.266,-0.094 0.274,-0.096C0.282,-0.099 0.29,-0.103 0.298,-0.108C0.306,-0.114 0.315,-0.121 0.324,-0.13C0.333,-0.139 0.342,-0.15 0.353,-0.163L0.353,-0.308Z" style="fill:white;fill-rule:nonzero;"/>
                </g>
                <g transform="matrix(191.611,0,0,191.611,5168.89,3728.83)">
                    <path d="M0.464,-0.247C0.464,-0.232 0.461,-0.221 0.454,-0.214C0.447,-0.207 0.438,-0.203 0.426,-0.203L0.161,-0.203C0.161,-0.185 0.163,-0.168 0.168,-0.153C0.172,-0.137 0.179,-0.125 0.189,-0.114C0.198,-0.103 0.211,-0.095 0.226,-0.09C0.241,-0.084 0.259,-0.082 0.28,-0.082C0.302,-0.082 0.321,-0.083 0.337,-0.086C0.353,-0.089 0.367,-0.093 0.379,-0.096C0.391,-0.1 0.401,-0.104 0.409,-0.107C0.417,-0.11 0.423,-0.111 0.428,-0.111C0.431,-0.111 0.433,-0.111 0.435,-0.11C0.437,-0.108 0.439,-0.106 0.44,-0.104C0.441,-0.101 0.442,-0.096 0.443,-0.091C0.443,-0.086 0.443,-0.079 0.443,-0.071C0.443,-0.064 0.443,-0.058 0.443,-0.052C0.443,-0.047 0.442,-0.043 0.441,-0.04C0.441,-0.036 0.44,-0.033 0.438,-0.031C0.437,-0.028 0.435,-0.026 0.433,-0.023C0.431,-0.021 0.425,-0.018 0.416,-0.014C0.407,-0.01 0.395,-0.006 0.38,-0.003C0.365,0.001 0.348,0.004 0.33,0.007C0.311,0.01 0.291,0.011 0.269,0.011C0.23,0.011 0.196,0.006 0.167,-0.003C0.138,-0.013 0.114,-0.028 0.094,-0.048C0.075,-0.068 0.06,-0.093 0.051,-0.123C0.041,-0.153 0.036,-0.189 0.036,-0.229C0.036,-0.268 0.041,-0.303 0.051,-0.334C0.061,-0.365 0.076,-0.392 0.095,-0.413C0.114,-0.435 0.138,-0.451 0.165,-0.463C0.193,-0.474 0.224,-0.48 0.258,-0.48C0.295,-0.48 0.326,-0.475 0.352,-0.464C0.378,-0.453 0.399,-0.438 0.416,-0.419C0.432,-0.4 0.444,-0.378 0.452,-0.352C0.46,-0.326 0.464,-0.297 0.464,-0.267L0.464,-0.247ZM0.345,-0.282C0.346,-0.317 0.339,-0.344 0.324,-0.364C0.309,-0.383 0.286,-0.393 0.255,-0.393C0.24,-0.393 0.226,-0.39 0.215,-0.384C0.203,-0.378 0.193,-0.371 0.186,-0.361C0.178,-0.351 0.172,-0.339 0.168,-0.325C0.164,-0.312 0.162,-0.298 0.161,-0.282L0.345,-0.282Z" style="fill:white;fill-rule:nonzero;"/>
                </g>
                <g transform="matrix(191.611,0,0,191.611,5263.95,3728.83)">
                    <path d="M0.324,-0.618C0.324,-0.609 0.324,-0.601 0.323,-0.595C0.323,-0.59 0.322,-0.585 0.32,-0.582C0.319,-0.579 0.318,-0.577 0.316,-0.576C0.314,-0.575 0.313,-0.574 0.311,-0.574C0.308,-0.574 0.306,-0.575 0.303,-0.576C0.3,-0.577 0.297,-0.578 0.293,-0.58C0.289,-0.581 0.284,-0.582 0.278,-0.583C0.273,-0.584 0.266,-0.585 0.259,-0.585C0.25,-0.585 0.242,-0.584 0.236,-0.581C0.23,-0.578 0.224,-0.574 0.22,-0.568C0.216,-0.562 0.213,-0.554 0.211,-0.544C0.209,-0.535 0.208,-0.523 0.208,-0.509L0.208,-0.469L0.288,-0.469C0.291,-0.469 0.293,-0.468 0.296,-0.466C0.298,-0.465 0.3,-0.462 0.302,-0.458C0.303,-0.455 0.305,-0.449 0.305,-0.443C0.306,-0.436 0.307,-0.428 0.307,-0.419C0.307,-0.401 0.305,-0.388 0.302,-0.381C0.299,-0.373 0.294,-0.369 0.288,-0.369L0.208,-0.369L0.208,-0.017C0.208,-0.013 0.207,-0.01 0.205,-0.008C0.203,-0.006 0.2,-0.004 0.195,-0.002C0.191,-0 0.184,0.001 0.176,0.002C0.168,0.003 0.158,0.003 0.146,0.003C0.135,0.003 0.125,0.003 0.117,0.002C0.109,0.001 0.103,-0 0.098,-0.002C0.093,-0.004 0.09,-0.006 0.088,-0.008C0.086,-0.01 0.085,-0.013 0.085,-0.017L0.085,-0.369L0.031,-0.369C0.025,-0.369 0.02,-0.373 0.017,-0.381C0.014,-0.388 0.012,-0.401 0.012,-0.419C0.012,-0.428 0.013,-0.436 0.013,-0.443C0.014,-0.449 0.015,-0.455 0.017,-0.458C0.018,-0.462 0.02,-0.465 0.023,-0.466C0.025,-0.468 0.028,-0.469 0.031,-0.469L0.085,-0.469L0.085,-0.505C0.085,-0.535 0.088,-0.561 0.094,-0.583C0.1,-0.606 0.109,-0.624 0.122,-0.639C0.134,-0.654 0.15,-0.665 0.17,-0.672C0.189,-0.68 0.212,-0.684 0.238,-0.684C0.251,-0.684 0.263,-0.683 0.274,-0.68C0.286,-0.678 0.295,-0.676 0.301,-0.674C0.308,-0.671 0.312,-0.669 0.314,-0.667C0.317,-0.665 0.319,-0.662 0.32,-0.657C0.322,-0.653 0.323,-0.648 0.323,-0.642C0.324,-0.635 0.324,-0.628 0.324,-0.618Z" style="fill:white;fill-rule:nonzero;"/>
                </g>
                <g transform="matrix(191.611,0,0,191.611,5321.49,3728.83)">
                    <path d="M0.433,-0.015C0.433,-0.011 0.431,-0.007 0.428,-0.004C0.424,-0.002 0.419,0 0.412,0.001C0.405,0.002 0.395,0.003 0.381,0.003C0.367,0.003 0.356,0.002 0.349,0.001C0.343,0 0.338,-0.002 0.335,-0.004C0.332,-0.007 0.331,-0.011 0.331,-0.015L0.331,-0.05C0.313,-0.031 0.293,-0.016 0.27,-0.005C0.247,0.006 0.221,0.011 0.193,0.011C0.17,0.011 0.149,0.008 0.13,0.002C0.11,-0.004 0.094,-0.013 0.079,-0.025C0.065,-0.037 0.054,-0.051 0.046,-0.069C0.039,-0.086 0.035,-0.107 0.035,-0.13C0.035,-0.156 0.04,-0.178 0.05,-0.197C0.059,-0.215 0.074,-0.231 0.094,-0.243C0.114,-0.255 0.138,-0.264 0.167,-0.27C0.197,-0.276 0.231,-0.279 0.27,-0.279L0.312,-0.279L0.312,-0.305C0.312,-0.319 0.311,-0.331 0.308,-0.341C0.305,-0.351 0.301,-0.36 0.294,-0.367C0.288,-0.374 0.279,-0.379 0.269,-0.382C0.258,-0.385 0.245,-0.387 0.229,-0.387C0.209,-0.387 0.191,-0.384 0.175,-0.38C0.158,-0.375 0.144,-0.37 0.132,-0.365C0.119,-0.359 0.109,-0.354 0.101,-0.35C0.093,-0.345 0.086,-0.343 0.081,-0.343C0.077,-0.343 0.074,-0.344 0.071,-0.346C0.068,-0.348 0.066,-0.352 0.064,-0.356C0.062,-0.36 0.061,-0.365 0.06,-0.372C0.059,-0.378 0.059,-0.385 0.059,-0.392C0.059,-0.402 0.059,-0.41 0.061,-0.416C0.063,-0.422 0.066,-0.427 0.07,-0.432C0.075,-0.437 0.083,-0.442 0.094,-0.448C0.106,-0.453 0.119,-0.458 0.134,-0.463C0.15,-0.468 0.166,-0.472 0.184,-0.475C0.202,-0.478 0.221,-0.48 0.24,-0.48C0.274,-0.48 0.304,-0.477 0.328,-0.47C0.352,-0.463 0.372,-0.453 0.388,-0.439C0.403,-0.425 0.415,-0.408 0.422,-0.386C0.429,-0.364 0.433,-0.338 0.433,-0.308L0.433,-0.015ZM0.312,-0.202L0.265,-0.202C0.245,-0.202 0.228,-0.2 0.214,-0.197C0.2,-0.194 0.189,-0.19 0.18,-0.184C0.171,-0.178 0.165,-0.171 0.161,-0.163C0.157,-0.155 0.155,-0.145 0.155,-0.134C0.155,-0.116 0.161,-0.102 0.172,-0.091C0.184,-0.081 0.2,-0.076 0.22,-0.076C0.237,-0.076 0.253,-0.08 0.268,-0.089C0.282,-0.098 0.297,-0.111 0.312,-0.127L0.312,-0.202Z" style="fill:white;fill-rule:nonzero;"/>
                </g>
                <g transform="matrix(191.611,0,0,191.611,5416.08,3728.83)">
                    <path d="M0.475,-0.017C0.475,-0.013 0.474,-0.01 0.472,-0.008C0.471,-0.006 0.468,-0.004 0.464,-0.002C0.46,-0 0.454,0.001 0.448,0.002C0.441,0.003 0.432,0.003 0.422,0.003C0.412,0.003 0.403,0.003 0.396,0.002C0.39,0.001 0.384,-0 0.38,-0.002C0.376,-0.004 0.374,-0.006 0.372,-0.008C0.37,-0.01 0.37,-0.013 0.37,-0.017L0.37,-0.067C0.346,-0.041 0.321,-0.021 0.296,-0.008C0.271,0.005 0.245,0.011 0.219,0.011C0.189,0.011 0.164,0.006 0.143,-0.003C0.123,-0.013 0.107,-0.027 0.094,-0.043C0.081,-0.06 0.073,-0.08 0.067,-0.102C0.062,-0.125 0.059,-0.152 0.059,-0.186L0.059,-0.452C0.059,-0.455 0.06,-0.458 0.062,-0.461C0.064,-0.463 0.067,-0.465 0.072,-0.467C0.076,-0.468 0.083,-0.47 0.091,-0.47C0.099,-0.471 0.108,-0.472 0.12,-0.472C0.132,-0.472 0.142,-0.471 0.15,-0.47C0.158,-0.47 0.164,-0.468 0.169,-0.467C0.173,-0.465 0.177,-0.463 0.179,-0.461C0.181,-0.458 0.182,-0.455 0.182,-0.452L0.182,-0.206C0.182,-0.183 0.183,-0.166 0.186,-0.154C0.189,-0.142 0.193,-0.131 0.199,-0.123C0.205,-0.114 0.213,-0.108 0.222,-0.103C0.232,-0.098 0.243,-0.096 0.255,-0.096C0.271,-0.096 0.286,-0.101 0.302,-0.113C0.318,-0.124 0.335,-0.141 0.353,-0.163L0.353,-0.452C0.353,-0.455 0.353,-0.458 0.355,-0.461C0.357,-0.463 0.36,-0.465 0.365,-0.467C0.37,-0.468 0.376,-0.47 0.384,-0.47C0.392,-0.471 0.402,-0.472 0.414,-0.472C0.426,-0.472 0.436,-0.471 0.443,-0.47C0.451,-0.47 0.457,-0.468 0.462,-0.467C0.466,-0.465 0.47,-0.463 0.472,-0.461C0.474,-0.458 0.475,-0.455 0.475,-0.452L0.475,-0.017Z" style="fill:white;fill-rule:nonzero;"/>
                </g>
                <g transform="matrix(191.611,0,0,191.611,5518.9,3728.83)">
                    <path d="M0.185,-0.017C0.185,-0.013 0.184,-0.01 0.182,-0.008C0.18,-0.006 0.176,-0.004 0.172,-0.002C0.167,-0 0.161,0.001 0.153,0.002C0.145,0.003 0.135,0.003 0.123,0.003C0.111,0.003 0.101,0.003 0.093,0.002C0.085,0.001 0.079,-0 0.074,-0.002C0.07,-0.004 0.066,-0.006 0.064,-0.008C0.063,-0.01 0.062,-0.013 0.062,-0.017L0.062,-0.659C0.062,-0.662 0.063,-0.665 0.064,-0.667C0.066,-0.67 0.07,-0.672 0.074,-0.674C0.079,-0.676 0.085,-0.677 0.093,-0.678C0.101,-0.679 0.111,-0.68 0.123,-0.68C0.135,-0.68 0.145,-0.679 0.153,-0.678C0.161,-0.677 0.167,-0.676 0.172,-0.674C0.176,-0.672 0.18,-0.67 0.182,-0.667C0.184,-0.665 0.185,-0.662 0.185,-0.659L0.185,-0.017Z" style="fill:white;fill-rule:nonzero;"/>
                </g>
                <g transform="matrix(191.611,0,0,191.611,5565.96,3728.83)">
                    <path d="M0.319,-0.06C0.319,-0.045 0.318,-0.034 0.317,-0.027C0.315,-0.019 0.313,-0.014 0.31,-0.01C0.307,-0.007 0.302,-0.005 0.297,-0.002C0.291,0 0.284,0.002 0.277,0.004C0.269,0.006 0.261,0.007 0.252,0.008C0.243,0.009 0.234,0.01 0.225,0.01C0.2,0.01 0.179,0.007 0.161,0C0.143,-0.006 0.128,-0.015 0.117,-0.028C0.105,-0.041 0.096,-0.057 0.091,-0.077C0.085,-0.096 0.083,-0.119 0.083,-0.146L0.083,-0.369L0.03,-0.369C0.024,-0.369 0.019,-0.373 0.016,-0.381C0.013,-0.388 0.011,-0.401 0.011,-0.419C0.011,-0.428 0.012,-0.436 0.012,-0.443C0.013,-0.449 0.014,-0.455 0.016,-0.458C0.018,-0.462 0.02,-0.465 0.022,-0.466C0.025,-0.468 0.028,-0.469 0.031,-0.469L0.083,-0.469L0.083,-0.566C0.083,-0.569 0.083,-0.572 0.085,-0.575C0.087,-0.577 0.09,-0.58 0.095,-0.581C0.1,-0.583 0.106,-0.584 0.114,-0.585C0.122,-0.586 0.132,-0.586 0.144,-0.586C0.156,-0.586 0.166,-0.586 0.174,-0.585C0.182,-0.584 0.188,-0.583 0.192,-0.581C0.197,-0.58 0.2,-0.577 0.202,-0.575C0.204,-0.572 0.205,-0.569 0.205,-0.566L0.205,-0.469L0.3,-0.469C0.303,-0.469 0.306,-0.468 0.308,-0.466C0.311,-0.465 0.313,-0.462 0.314,-0.458C0.316,-0.455 0.317,-0.449 0.318,-0.443C0.319,-0.436 0.319,-0.428 0.319,-0.419C0.319,-0.401 0.318,-0.388 0.314,-0.381C0.311,-0.373 0.306,-0.369 0.3,-0.369L0.205,-0.369L0.205,-0.165C0.205,-0.141 0.209,-0.123 0.216,-0.111C0.224,-0.099 0.237,-0.093 0.256,-0.093C0.263,-0.093 0.269,-0.094 0.274,-0.095C0.279,-0.096 0.284,-0.097 0.288,-0.099C0.292,-0.1 0.295,-0.102 0.298,-0.103C0.301,-0.104 0.303,-0.104 0.306,-0.104C0.308,-0.104 0.309,-0.104 0.311,-0.103C0.313,-0.102 0.314,-0.099 0.315,-0.096C0.316,-0.093 0.317,-0.088 0.318,-0.082C0.319,-0.076 0.319,-0.069 0.319,-0.06Z" style="fill:white;fill-rule:nonzero;"/>
                </g>
                <g transform="matrix(191.611,0,0,191.611,5632.39,3728.83)">
                    <path d="M0.368,-0.14C0.368,-0.115 0.364,-0.093 0.354,-0.074C0.345,-0.055 0.332,-0.04 0.315,-0.027C0.298,-0.014 0.278,-0.005 0.255,0.002C0.232,0.008 0.207,0.011 0.18,0.011C0.163,0.011 0.148,0.01 0.133,0.008C0.118,0.005 0.105,0.002 0.093,-0.002C0.082,-0.005 0.072,-0.009 0.064,-0.013C0.056,-0.017 0.05,-0.021 0.047,-0.024C0.043,-0.028 0.041,-0.033 0.039,-0.04C0.037,-0.048 0.036,-0.058 0.036,-0.073C0.036,-0.082 0.036,-0.09 0.037,-0.095C0.037,-0.101 0.038,-0.106 0.04,-0.109C0.041,-0.113 0.042,-0.115 0.044,-0.116C0.046,-0.117 0.049,-0.118 0.052,-0.118C0.055,-0.118 0.061,-0.116 0.068,-0.112C0.075,-0.108 0.083,-0.103 0.094,-0.098C0.104,-0.093 0.116,-0.089 0.13,-0.084C0.144,-0.08 0.16,-0.078 0.177,-0.078C0.188,-0.078 0.198,-0.079 0.207,-0.082C0.215,-0.084 0.223,-0.087 0.229,-0.091C0.236,-0.096 0.24,-0.101 0.244,-0.107C0.247,-0.114 0.249,-0.121 0.249,-0.13C0.249,-0.14 0.246,-0.148 0.24,-0.155C0.233,-0.162 0.226,-0.168 0.216,-0.173C0.206,-0.179 0.194,-0.183 0.182,-0.188C0.169,-0.193 0.156,-0.198 0.143,-0.203C0.13,-0.209 0.117,-0.215 0.105,-0.222C0.092,-0.229 0.081,-0.238 0.071,-0.249C0.061,-0.259 0.053,-0.271 0.047,-0.286C0.041,-0.301 0.038,-0.318 0.038,-0.339C0.038,-0.36 0.042,-0.379 0.05,-0.396C0.058,-0.414 0.07,-0.429 0.085,-0.441C0.101,-0.453 0.119,-0.463 0.141,-0.47C0.163,-0.477 0.188,-0.48 0.215,-0.48C0.229,-0.48 0.242,-0.479 0.255,-0.477C0.268,-0.475 0.28,-0.473 0.29,-0.47C0.3,-0.467 0.309,-0.464 0.316,-0.46C0.324,-0.457 0.329,-0.454 0.332,-0.451C0.335,-0.449 0.337,-0.447 0.338,-0.444C0.34,-0.442 0.341,-0.439 0.341,-0.435C0.342,-0.432 0.343,-0.428 0.343,-0.423C0.344,-0.418 0.344,-0.411 0.344,-0.404C0.344,-0.395 0.344,-0.388 0.343,-0.382C0.343,-0.377 0.342,-0.372 0.341,-0.369C0.339,-0.366 0.338,-0.364 0.336,-0.363C0.334,-0.361 0.332,-0.361 0.329,-0.361C0.326,-0.361 0.322,-0.363 0.315,-0.366C0.309,-0.369 0.302,-0.373 0.292,-0.377C0.283,-0.381 0.272,-0.385 0.26,-0.388C0.248,-0.391 0.234,-0.393 0.218,-0.393C0.207,-0.393 0.198,-0.392 0.189,-0.39C0.181,-0.387 0.175,-0.384 0.169,-0.38C0.164,-0.376 0.16,-0.371 0.158,-0.365C0.155,-0.359 0.154,-0.353 0.154,-0.347C0.154,-0.337 0.157,-0.328 0.163,-0.321C0.169,-0.314 0.177,-0.308 0.188,-0.303C0.198,-0.298 0.209,-0.293 0.222,-0.289C0.235,-0.284 0.248,-0.279 0.261,-0.274C0.274,-0.268 0.287,-0.262 0.3,-0.255C0.313,-0.248 0.324,-0.239 0.334,-0.229C0.345,-0.218 0.353,-0.206 0.359,-0.191C0.365,-0.177 0.368,-0.16 0.368,-0.14Z" style="fill:white;fill-rule:nonzero;"/>
                </g>
            </g>
        </g>
    </g>
</svg>
