<?xml version="1.0" encoding="UTF-8" standalone="no"?>
<!DOCTYPE svg PUBLIC "-//W3C//DTD SVG 1.1//EN" "http://www.w3.org/Graphics/SVG/1.1/DTD/svg11.dtd">
<svg width="100%" height="100%" viewBox="0 0 1303 283" version="1.1" xmlns="http://www.w3.org/2000/svg" xmlns:xlink="http://www.w3.org/1999/xlink" xml:space="preserve" xmlns:serif="http://www.serif.com/" style="fill-rule:evenodd;clip-rule:evenodd;stroke-linecap:round;stroke-linejoin:round;stroke-miterlimit:1.5;">
    <g transform="matrix(1,0,0,1,-398.982,-4108.92)">
        <g transform="matrix(5.39006,0,0,1.72574,0,0)">
            <g transform="matrix(1.58767,0,0,2.61937,-81898.8,-7336.32)">
                <path d="M51782.4,3720.12C51782.4,3715.18 51780.3,3711.16 51777.7,3711.16L51636.4,3711.16C51633.8,3711.16 51631.7,3715.18 51631.7,3720.12L51631.7,3761.93C51631.7,3766.88 51633.8,3770.89 51636.4,3770.89L51777.7,3770.89C51780.3,3770.89 51782.4,3766.88 51782.4,3761.93L51782.4,3720.12Z" style="fill:rgb(41,148,8);stroke:rgb(33,118,6);stroke-width:1.83px;"/>
            </g>
        </g>
        <g transform="matrix(5.39006,0,0,1.72574,0,0)">
            <g transform="matrix(0.121031,0,0,0.37802,-419.615,1076.81)">
                <g transform="matrix(191.611,0,0,191.611,4291.39,3728.83)">
                    <path d="M0.443,-0.189C0.443,-0.156 0.437,-0.127 0.425,-0.102C0.412,-0.077 0.396,-0.056 0.375,-0.039C0.353,-0.023 0.329,-0.01 0.3,-0.001C0.272,0.007 0.242,0.011 0.209,0.011C0.188,0.011 0.167,0.009 0.149,0.006C0.13,0.002 0.113,-0.002 0.099,-0.007C0.085,-0.012 0.073,-0.017 0.063,-0.023C0.054,-0.028 0.047,-0.033 0.042,-0.038C0.038,-0.042 0.035,-0.048 0.033,-0.056C0.032,-0.064 0.031,-0.075 0.031,-0.09C0.031,-0.1 0.031,-0.109 0.032,-0.116C0.032,-0.123 0.033,-0.128 0.035,-0.132C0.036,-0.137 0.038,-0.14 0.041,-0.141C0.043,-0.143 0.046,-0.144 0.049,-0.144C0.054,-0.144 0.06,-0.141 0.069,-0.136C0.077,-0.131 0.088,-0.125 0.101,-0.118C0.114,-0.112 0.129,-0.106 0.147,-0.1C0.165,-0.095 0.186,-0.092 0.21,-0.092C0.226,-0.092 0.24,-0.094 0.252,-0.098C0.264,-0.102 0.275,-0.107 0.283,-0.114C0.292,-0.121 0.299,-0.129 0.303,-0.139C0.308,-0.149 0.31,-0.16 0.31,-0.173C0.31,-0.187 0.306,-0.199 0.298,-0.21C0.291,-0.22 0.28,-0.229 0.268,-0.237C0.255,-0.245 0.241,-0.253 0.225,-0.26C0.209,-0.267 0.193,-0.274 0.176,-0.282C0.159,-0.29 0.142,-0.298 0.126,-0.308C0.111,-0.318 0.096,-0.33 0.084,-0.344C0.071,-0.358 0.061,-0.374 0.053,-0.393C0.045,-0.412 0.042,-0.435 0.042,-0.461C0.042,-0.491 0.047,-0.518 0.058,-0.541C0.07,-0.564 0.085,-0.583 0.104,-0.598C0.123,-0.613 0.145,-0.624 0.171,-0.632C0.197,-0.639 0.224,-0.643 0.253,-0.643C0.268,-0.643 0.283,-0.642 0.298,-0.64C0.313,-0.637 0.327,-0.634 0.34,-0.63C0.353,-0.626 0.365,-0.622 0.375,-0.617C0.385,-0.612 0.392,-0.608 0.395,-0.605C0.398,-0.602 0.4,-0.599 0.402,-0.597C0.403,-0.594 0.404,-0.591 0.405,-0.588C0.405,-0.584 0.406,-0.579 0.406,-0.573C0.407,-0.568 0.407,-0.561 0.407,-0.552C0.407,-0.543 0.406,-0.535 0.406,-0.528C0.406,-0.522 0.405,-0.516 0.404,-0.512C0.402,-0.508 0.401,-0.505 0.399,-0.503C0.397,-0.501 0.394,-0.5 0.39,-0.5C0.387,-0.5 0.381,-0.502 0.373,-0.507C0.365,-0.511 0.356,-0.516 0.344,-0.522C0.333,-0.527 0.32,-0.532 0.305,-0.536C0.29,-0.541 0.273,-0.543 0.255,-0.543C0.241,-0.543 0.229,-0.541 0.219,-0.538C0.208,-0.534 0.2,-0.53 0.193,-0.524C0.186,-0.518 0.18,-0.51 0.177,-0.502C0.174,-0.493 0.172,-0.485 0.172,-0.475C0.172,-0.461 0.176,-0.449 0.183,-0.439C0.191,-0.428 0.201,-0.419 0.214,-0.411C0.227,-0.403 0.242,-0.396 0.258,-0.389C0.274,-0.382 0.291,-0.375 0.308,-0.367C0.325,-0.359 0.341,-0.35 0.357,-0.34C0.374,-0.33 0.388,-0.318 0.401,-0.304C0.414,-0.291 0.424,-0.274 0.432,-0.256C0.439,-0.237 0.443,-0.215 0.443,-0.189Z" style="fill:white;fill-rule:nonzero;"/>
                </g>
                <g transform="matrix(191.611,0,0,191.611,4381.96,3728.83)">
                    <path d="M0.433,-0.015C0.433,-0.011 0.431,-0.007 0.428,-0.004C0.424,-0.002 0.419,0 0.412,0.001C0.405,0.002 0.395,0.003 0.381,0.003C0.367,0.003 0.356,0.002 0.349,0.001C0.343,0 0.338,-0.002 0.335,-0.004C0.332,-0.007 0.331,-0.011 0.331,-0.015L0.331,-0.05C0.313,-0.031 0.293,-0.016 0.27,-0.005C0.247,0.006 0.221,0.011 0.193,0.011C0.17,0.011 0.149,0.008 0.13,0.002C0.11,-0.004 0.094,-0.013 0.079,-0.025C0.065,-0.037 0.054,-0.051 0.046,-0.069C0.039,-0.086 0.035,-0.107 0.035,-0.13C0.035,-0.156 0.04,-0.178 0.05,-0.197C0.059,-0.215 0.074,-0.231 0.094,-0.243C0.114,-0.255 0.138,-0.264 0.167,-0.27C0.197,-0.276 0.231,-0.279 0.27,-0.279L0.312,-0.279L0.312,-0.305C0.312,-0.319 0.311,-0.331 0.308,-0.341C0.305,-0.351 0.301,-0.36 0.294,-0.367C0.288,-0.374 0.279,-0.379 0.269,-0.382C0.258,-0.385 0.245,-0.387 0.229,-0.387C0.209,-0.387 0.191,-0.384 0.175,-0.38C0.158,-0.375 0.144,-0.37 0.132,-0.365C0.119,-0.359 0.109,-0.354 0.101,-0.35C0.093,-0.345 0.086,-0.343 0.081,-0.343C0.077,-0.343 0.074,-0.344 0.071,-0.346C0.068,-0.348 0.066,-0.352 0.064,-0.356C0.062,-0.36 0.061,-0.365 0.06,-0.372C0.059,-0.378 0.059,-0.385 0.059,-0.392C0.059,-0.402 0.059,-0.41 0.061,-0.416C0.063,-0.422 0.066,-0.427 0.07,-0.432C0.075,-0.437 0.083,-0.442 0.094,-0.448C0.106,-0.453 0.119,-0.458 0.134,-0.463C0.15,-0.468 0.166,-0.472 0.184,-0.475C0.202,-0.478 0.221,-0.48 0.24,-0.48C0.274,-0.48 0.304,-0.477 0.328,-0.47C0.352,-0.463 0.372,-0.453 0.388,-0.439C0.403,-0.425 0.415,-0.408 0.422,-0.386C0.429,-0.364 0.433,-0.338 0.433,-0.308L0.433,-0.015ZM0.312,-0.202L0.265,-0.202C0.245,-0.202 0.228,-0.2 0.214,-0.197C0.2,-0.194 0.189,-0.19 0.18,-0.184C0.171,-0.178 0.165,-0.171 0.161,-0.163C0.157,-0.155 0.155,-0.145 0.155,-0.134C0.155,-0.116 0.161,-0.102 0.172,-0.091C0.184,-0.081 0.2,-0.076 0.22,-0.076C0.237,-0.076 0.253,-0.08 0.268,-0.089C0.282,-0.098 0.297,-0.111 0.312,-0.127L0.312,-0.202Z" style="fill:white;fill-rule:nonzero;"/>
                </g>
                <g transform="matrix(191.611,0,0,191.611,4473.83,3728.83)">
                    <path d="M0.462,-0.453C0.462,-0.451 0.462,-0.449 0.462,-0.447C0.462,-0.444 0.462,-0.442 0.461,-0.439C0.461,-0.436 0.46,-0.433 0.459,-0.43C0.458,-0.426 0.457,-0.422 0.456,-0.417L0.325,-0.023C0.324,-0.018 0.321,-0.013 0.319,-0.01C0.316,-0.007 0.311,-0.004 0.305,-0.002C0.299,-0 0.29,0.001 0.279,0.002C0.268,0.003 0.254,0.003 0.236,0.003C0.219,0.003 0.205,0.003 0.194,0.002C0.183,0.001 0.175,-0 0.168,-0.002C0.162,-0.004 0.158,-0.007 0.155,-0.01C0.152,-0.014 0.15,-0.018 0.148,-0.023L0.018,-0.417C0.016,-0.424 0.014,-0.43 0.013,-0.435C0.012,-0.44 0.011,-0.444 0.011,-0.446C0.011,-0.449 0.011,-0.451 0.011,-0.453C0.011,-0.456 0.012,-0.459 0.013,-0.461C0.015,-0.464 0.018,-0.466 0.023,-0.467C0.028,-0.469 0.034,-0.47 0.042,-0.471C0.05,-0.471 0.06,-0.472 0.072,-0.472C0.085,-0.472 0.096,-0.471 0.104,-0.47C0.112,-0.47 0.119,-0.469 0.123,-0.467C0.128,-0.466 0.131,-0.463 0.133,-0.461C0.135,-0.458 0.137,-0.455 0.138,-0.451L0.237,-0.131L0.24,-0.119L0.243,-0.131L0.341,-0.451C0.342,-0.455 0.343,-0.458 0.345,-0.461C0.348,-0.463 0.351,-0.466 0.355,-0.467C0.36,-0.469 0.366,-0.47 0.374,-0.47C0.381,-0.471 0.391,-0.472 0.404,-0.472C0.416,-0.472 0.426,-0.471 0.433,-0.471C0.441,-0.47 0.447,-0.469 0.451,-0.467C0.455,-0.466 0.458,-0.464 0.46,-0.461C0.462,-0.459 0.462,-0.456 0.462,-0.453Z" style="fill:white;fill-rule:nonzero;"/>
                </g>
                <g transform="matrix(191.611,0,0,191.611,4562.71,3728.83)">
                    <path d="M0.464,-0.247C0.464,-0.232 0.461,-0.221 0.454,-0.214C0.447,-0.207 0.438,-0.203 0.426,-0.203L0.161,-0.203C0.161,-0.185 0.163,-0.168 0.168,-0.153C0.172,-0.137 0.179,-0.125 0.189,-0.114C0.198,-0.103 0.211,-0.095 0.226,-0.09C0.241,-0.084 0.259,-0.082 0.28,-0.082C0.302,-0.082 0.321,-0.083 0.337,-0.086C0.353,-0.089 0.367,-0.093 0.379,-0.096C0.391,-0.1 0.401,-0.104 0.409,-0.107C0.417,-0.11 0.423,-0.111 0.428,-0.111C0.431,-0.111 0.433,-0.111 0.435,-0.11C0.437,-0.108 0.439,-0.106 0.44,-0.104C0.441,-0.101 0.442,-0.096 0.443,-0.091C0.443,-0.086 0.443,-0.079 0.443,-0.071C0.443,-0.064 0.443,-0.058 0.443,-0.052C0.443,-0.047 0.442,-0.043 0.441,-0.04C0.441,-0.036 0.44,-0.033 0.438,-0.031C0.437,-0.028 0.435,-0.026 0.433,-0.023C0.431,-0.021 0.425,-0.018 0.416,-0.014C0.407,-0.01 0.395,-0.006 0.38,-0.003C0.365,0.001 0.348,0.004 0.33,0.007C0.311,0.01 0.291,0.011 0.269,0.011C0.23,0.011 0.196,0.006 0.167,-0.003C0.138,-0.013 0.114,-0.028 0.094,-0.048C0.075,-0.068 0.06,-0.093 0.051,-0.123C0.041,-0.153 0.036,-0.189 0.036,-0.229C0.036,-0.268 0.041,-0.303 0.051,-0.334C0.061,-0.365 0.076,-0.392 0.095,-0.413C0.114,-0.435 0.138,-0.451 0.165,-0.463C0.193,-0.474 0.224,-0.48 0.258,-0.48C0.295,-0.48 0.326,-0.475 0.352,-0.464C0.378,-0.453 0.399,-0.438 0.416,-0.419C0.432,-0.4 0.444,-0.378 0.452,-0.352C0.46,-0.326 0.464,-0.297 0.464,-0.267L0.464,-0.247ZM0.345,-0.282C0.346,-0.317 0.339,-0.344 0.324,-0.364C0.309,-0.383 0.286,-0.393 0.255,-0.393C0.24,-0.393 0.226,-0.39 0.215,-0.384C0.203,-0.378 0.193,-0.371 0.186,-0.361C0.178,-0.351 0.172,-0.339 0.168,-0.325C0.164,-0.312 0.162,-0.298 0.161,-0.282L0.345,-0.282Z" style="fill:white;fill-rule:nonzero;"/>
                </g>
                <g transform="matrix(191.611,0,0,191.611,4702.49,3728.83)">
                    <path d="M0.391,-0.086C0.391,-0.077 0.391,-0.07 0.39,-0.065C0.39,-0.059 0.389,-0.054 0.388,-0.05C0.388,-0.046 0.387,-0.043 0.385,-0.041C0.384,-0.038 0.382,-0.035 0.378,-0.031C0.374,-0.028 0.367,-0.023 0.358,-0.018C0.348,-0.012 0.338,-0.008 0.326,-0.003C0.314,0.001 0.301,0.004 0.286,0.007C0.272,0.009 0.258,0.011 0.243,0.011C0.209,0.011 0.179,0.006 0.154,-0.005C0.128,-0.015 0.106,-0.031 0.088,-0.051C0.071,-0.071 0.058,-0.096 0.049,-0.125C0.04,-0.155 0.035,-0.188 0.035,-0.226C0.035,-0.27 0.041,-0.307 0.052,-0.339C0.062,-0.371 0.078,-0.397 0.097,-0.418C0.117,-0.439 0.14,-0.454 0.167,-0.464C0.193,-0.474 0.222,-0.479 0.254,-0.479C0.267,-0.479 0.28,-0.478 0.293,-0.476C0.305,-0.474 0.317,-0.471 0.328,-0.467C0.339,-0.463 0.349,-0.458 0.357,-0.454C0.366,-0.449 0.372,-0.444 0.375,-0.441C0.379,-0.437 0.382,-0.434 0.383,-0.432C0.385,-0.429 0.386,-0.426 0.386,-0.422C0.387,-0.418 0.388,-0.414 0.388,-0.408C0.389,-0.402 0.389,-0.395 0.389,-0.387C0.389,-0.368 0.388,-0.355 0.384,-0.347C0.381,-0.34 0.377,-0.336 0.372,-0.336C0.366,-0.336 0.36,-0.338 0.354,-0.343C0.348,-0.347 0.34,-0.352 0.332,-0.358C0.324,-0.363 0.313,-0.368 0.302,-0.373C0.29,-0.378 0.276,-0.38 0.26,-0.38C0.228,-0.38 0.203,-0.368 0.187,-0.343C0.17,-0.318 0.161,-0.282 0.161,-0.235C0.161,-0.211 0.163,-0.191 0.167,-0.173C0.172,-0.155 0.178,-0.14 0.186,-0.128C0.195,-0.116 0.205,-0.107 0.218,-0.101C0.23,-0.095 0.245,-0.092 0.261,-0.092C0.278,-0.092 0.293,-0.094 0.305,-0.099C0.317,-0.104 0.328,-0.11 0.337,-0.116C0.346,-0.122 0.354,-0.128 0.36,-0.133C0.366,-0.138 0.371,-0.141 0.375,-0.141C0.378,-0.141 0.381,-0.14 0.383,-0.138C0.385,-0.137 0.386,-0.134 0.387,-0.129C0.389,-0.125 0.389,-0.119 0.39,-0.112C0.391,-0.105 0.391,-0.097 0.391,-0.086Z" style="fill:white;fill-rule:nonzero;"/>
                </g>
                <g transform="matrix(191.611,0,0,191.611,4782.67,3728.83)">
                    <path d="M0.478,-0.017C0.478,-0.013 0.477,-0.01 0.475,-0.008C0.473,-0.006 0.469,-0.004 0.465,-0.002C0.46,-0 0.454,0.001 0.446,0.002C0.438,0.003 0.428,0.003 0.417,0.003C0.404,0.003 0.394,0.003 0.386,0.002C0.378,0.001 0.372,-0 0.368,-0.002C0.363,-0.004 0.36,-0.006 0.358,-0.008C0.356,-0.01 0.355,-0.013 0.355,-0.017L0.355,-0.265C0.355,-0.286 0.353,-0.303 0.35,-0.315C0.347,-0.327 0.343,-0.337 0.337,-0.346C0.331,-0.355 0.323,-0.361 0.314,-0.366C0.305,-0.371 0.294,-0.373 0.282,-0.373C0.266,-0.373 0.25,-0.367 0.234,-0.356C0.218,-0.345 0.202,-0.328 0.185,-0.306L0.185,-0.017C0.185,-0.013 0.184,-0.01 0.182,-0.008C0.18,-0.006 0.176,-0.004 0.172,-0.002C0.167,-0 0.161,0.001 0.153,0.002C0.145,0.003 0.135,0.003 0.123,0.003C0.111,0.003 0.101,0.003 0.093,0.002C0.085,0.001 0.079,-0 0.074,-0.002C0.07,-0.004 0.066,-0.006 0.064,-0.008C0.063,-0.01 0.062,-0.013 0.062,-0.017L0.062,-0.659C0.062,-0.662 0.063,-0.665 0.064,-0.667C0.066,-0.67 0.07,-0.672 0.074,-0.674C0.079,-0.676 0.085,-0.677 0.093,-0.678C0.101,-0.679 0.111,-0.68 0.123,-0.68C0.135,-0.68 0.145,-0.679 0.153,-0.678C0.161,-0.677 0.167,-0.676 0.172,-0.674C0.176,-0.672 0.18,-0.67 0.182,-0.667C0.184,-0.665 0.185,-0.662 0.185,-0.659L0.185,-0.418C0.206,-0.439 0.227,-0.454 0.249,-0.465C0.271,-0.475 0.294,-0.48 0.318,-0.48C0.347,-0.48 0.372,-0.475 0.393,-0.465C0.413,-0.456 0.43,-0.442 0.442,-0.425C0.455,-0.408 0.464,-0.389 0.469,-0.366C0.475,-0.343 0.478,-0.316 0.478,-0.284L0.478,-0.017Z" style="fill:white;fill-rule:nonzero;"/>
                </g>
                <g transform="matrix(191.611,0,0,191.611,4885.5,3728.83)">
                    <path d="M0.433,-0.015C0.433,-0.011 0.431,-0.007 0.428,-0.004C0.424,-0.002 0.419,0 0.412,0.001C0.405,0.002 0.395,0.003 0.381,0.003C0.367,0.003 0.356,0.002 0.349,0.001C0.343,0 0.338,-0.002 0.335,-0.004C0.332,-0.007 0.331,-0.011 0.331,-0.015L0.331,-0.05C0.313,-0.031 0.293,-0.016 0.27,-0.005C0.247,0.006 0.221,0.011 0.193,0.011C0.17,0.011 0.149,0.008 0.13,0.002C0.11,-0.004 0.094,-0.013 0.079,-0.025C0.065,-0.037 0.054,-0.051 0.046,-0.069C0.039,-0.086 0.035,-0.107 0.035,-0.13C0.035,-0.156 0.04,-0.178 0.05,-0.197C0.059,-0.215 0.074,-0.231 0.094,-0.243C0.114,-0.255 0.138,-0.264 0.167,-0.27C0.197,-0.276 0.231,-0.279 0.27,-0.279L0.312,-0.279L0.312,-0.305C0.312,-0.319 0.311,-0.331 0.308,-0.341C0.305,-0.351 0.301,-0.36 0.294,-0.367C0.288,-0.374 0.279,-0.379 0.269,-0.382C0.258,-0.385 0.245,-0.387 0.229,-0.387C0.209,-0.387 0.191,-0.384 0.175,-0.38C0.158,-0.375 0.144,-0.37 0.132,-0.365C0.119,-0.359 0.109,-0.354 0.101,-0.35C0.093,-0.345 0.086,-0.343 0.081,-0.343C0.077,-0.343 0.074,-0.344 0.071,-0.346C0.068,-0.348 0.066,-0.352 0.064,-0.356C0.062,-0.36 0.061,-0.365 0.06,-0.372C0.059,-0.378 0.059,-0.385 0.059,-0.392C0.059,-0.402 0.059,-0.41 0.061,-0.416C0.063,-0.422 0.066,-0.427 0.07,-0.432C0.075,-0.437 0.083,-0.442 0.094,-0.448C0.106,-0.453 0.119,-0.458 0.134,-0.463C0.15,-0.468 0.166,-0.472 0.184,-0.475C0.202,-0.478 0.221,-0.48 0.24,-0.48C0.274,-0.48 0.304,-0.477 0.328,-0.47C0.352,-0.463 0.372,-0.453 0.388,-0.439C0.403,-0.425 0.415,-0.408 0.422,-0.386C0.429,-0.364 0.433,-0.338 0.433,-0.308L0.433,-0.015ZM0.312,-0.202L0.265,-0.202C0.245,-0.202 0.228,-0.2 0.214,-0.197C0.2,-0.194 0.189,-0.19 0.18,-0.184C0.171,-0.178 0.165,-0.171 0.161,-0.163C0.157,-0.155 0.155,-0.145 0.155,-0.134C0.155,-0.116 0.161,-0.102 0.172,-0.091C0.184,-0.081 0.2,-0.076 0.22,-0.076C0.237,-0.076 0.253,-0.08 0.268,-0.089C0.282,-0.098 0.297,-0.111 0.312,-0.127L0.312,-0.202Z" style="fill:white;fill-rule:nonzero;"/>
                </g>
                <g transform="matrix(191.611,0,0,191.611,4980.09,3728.83)">
                    <path d="M0.478,-0.017C0.478,-0.013 0.477,-0.01 0.475,-0.008C0.473,-0.006 0.469,-0.004 0.465,-0.002C0.46,-0 0.454,0.001 0.446,0.002C0.438,0.003 0.428,0.003 0.417,0.003C0.404,0.003 0.394,0.003 0.386,0.002C0.378,0.001 0.372,-0 0.368,-0.002C0.363,-0.004 0.36,-0.006 0.358,-0.008C0.356,-0.01 0.355,-0.013 0.355,-0.017L0.355,-0.265C0.355,-0.286 0.353,-0.303 0.35,-0.315C0.347,-0.327 0.343,-0.337 0.337,-0.346C0.331,-0.355 0.323,-0.361 0.314,-0.366C0.305,-0.371 0.294,-0.373 0.282,-0.373C0.266,-0.373 0.25,-0.367 0.234,-0.356C0.218,-0.345 0.202,-0.328 0.185,-0.306L0.185,-0.017C0.185,-0.013 0.184,-0.01 0.182,-0.008C0.18,-0.006 0.176,-0.004 0.172,-0.002C0.167,-0 0.161,0.001 0.153,0.002C0.145,0.003 0.135,0.003 0.123,0.003C0.111,0.003 0.101,0.003 0.093,0.002C0.085,0.001 0.079,-0 0.074,-0.002C0.07,-0.004 0.066,-0.006 0.064,-0.008C0.063,-0.01 0.062,-0.013 0.062,-0.017L0.062,-0.452C0.062,-0.455 0.062,-0.458 0.064,-0.461C0.066,-0.463 0.069,-0.465 0.073,-0.467C0.077,-0.468 0.082,-0.47 0.089,-0.47C0.096,-0.471 0.104,-0.472 0.114,-0.472C0.125,-0.472 0.133,-0.471 0.14,-0.47C0.147,-0.47 0.152,-0.468 0.156,-0.467C0.16,-0.465 0.162,-0.463 0.164,-0.461C0.166,-0.458 0.167,-0.455 0.167,-0.452L0.167,-0.402C0.191,-0.428 0.215,-0.447 0.24,-0.46C0.265,-0.473 0.291,-0.48 0.318,-0.48C0.347,-0.48 0.372,-0.475 0.393,-0.465C0.413,-0.456 0.43,-0.442 0.442,-0.426C0.455,-0.409 0.464,-0.389 0.469,-0.367C0.475,-0.344 0.478,-0.317 0.478,-0.286L0.478,-0.017Z" style="fill:white;fill-rule:nonzero;"/>
                </g>
                <g transform="matrix(191.611,0,0,191.611,5082.91,3728.83)">
                    <path d="M0.454,-0.422C0.454,-0.406 0.452,-0.395 0.449,-0.387C0.445,-0.38 0.441,-0.376 0.436,-0.376L0.384,-0.376C0.391,-0.368 0.397,-0.359 0.4,-0.349C0.403,-0.339 0.404,-0.329 0.404,-0.318C0.404,-0.293 0.4,-0.27 0.392,-0.251C0.383,-0.231 0.371,-0.214 0.355,-0.201C0.339,-0.187 0.32,-0.177 0.298,-0.17C0.276,-0.163 0.251,-0.16 0.224,-0.16C0.21,-0.16 0.196,-0.161 0.184,-0.165C0.171,-0.168 0.161,-0.172 0.154,-0.177C0.15,-0.173 0.147,-0.167 0.144,-0.162C0.141,-0.156 0.139,-0.149 0.139,-0.142C0.139,-0.133 0.143,-0.125 0.152,-0.119C0.16,-0.113 0.172,-0.11 0.187,-0.109L0.292,-0.105C0.317,-0.104 0.339,-0.101 0.359,-0.094C0.378,-0.088 0.394,-0.08 0.407,-0.069C0.421,-0.058 0.431,-0.045 0.438,-0.03C0.445,-0.014 0.448,0.003 0.448,0.022C0.448,0.044 0.444,0.064 0.434,0.083C0.425,0.102 0.41,0.119 0.392,0.133C0.373,0.147 0.349,0.158 0.321,0.166C0.292,0.174 0.259,0.178 0.221,0.178C0.184,0.178 0.152,0.175 0.126,0.169C0.1,0.164 0.078,0.155 0.061,0.145C0.045,0.135 0.032,0.122 0.025,0.108C0.017,0.093 0.013,0.077 0.013,0.06C0.013,0.049 0.015,0.039 0.017,0.029C0.02,0.02 0.024,0.01 0.03,0.001C0.035,-0.008 0.042,-0.016 0.049,-0.024C0.057,-0.033 0.066,-0.04 0.076,-0.048C0.062,-0.055 0.051,-0.066 0.044,-0.078C0.036,-0.091 0.032,-0.105 0.032,-0.121C0.032,-0.14 0.037,-0.157 0.045,-0.173C0.054,-0.189 0.066,-0.203 0.08,-0.216C0.068,-0.227 0.059,-0.241 0.052,-0.257C0.045,-0.273 0.042,-0.293 0.042,-0.316C0.042,-0.342 0.046,-0.365 0.055,-0.385C0.064,-0.405 0.077,-0.421 0.093,-0.435C0.109,-0.449 0.128,-0.46 0.15,-0.467C0.172,-0.474 0.196,-0.478 0.223,-0.478C0.237,-0.478 0.25,-0.477 0.262,-0.476C0.275,-0.474 0.287,-0.472 0.297,-0.469L0.436,-0.469C0.441,-0.469 0.446,-0.465 0.449,-0.458C0.452,-0.451 0.454,-0.439 0.454,-0.422ZM0.296,-0.319C0.296,-0.342 0.29,-0.361 0.277,-0.374C0.264,-0.387 0.245,-0.393 0.222,-0.393C0.21,-0.393 0.199,-0.391 0.19,-0.387C0.181,-0.383 0.173,-0.377 0.167,-0.37C0.161,-0.363 0.157,-0.355 0.154,-0.346C0.151,-0.337 0.149,-0.327 0.149,-0.317C0.149,-0.295 0.156,-0.277 0.169,-0.264C0.182,-0.252 0.2,-0.245 0.223,-0.245C0.236,-0.245 0.246,-0.247 0.255,-0.251C0.264,-0.255 0.272,-0.26 0.278,-0.267C0.284,-0.274 0.289,-0.282 0.292,-0.291C0.295,-0.3 0.296,-0.309 0.296,-0.319ZM0.325,0.029C0.325,0.014 0.319,0.003 0.308,-0.005C0.296,-0.013 0.28,-0.017 0.259,-0.018L0.172,-0.02C0.163,-0.014 0.157,-0.008 0.152,-0.002C0.147,0.003 0.142,0.009 0.139,0.014C0.136,0.019 0.134,0.024 0.133,0.029C0.132,0.034 0.132,0.039 0.132,0.044C0.132,0.061 0.14,0.073 0.156,0.082C0.173,0.09 0.196,0.094 0.226,0.094C0.245,0.094 0.26,0.092 0.273,0.089C0.286,0.085 0.296,0.08 0.304,0.074C0.312,0.068 0.317,0.061 0.32,0.053C0.324,0.045 0.325,0.037 0.325,0.029Z" style="fill:white;fill-rule:nonzero;"/>
                </g>
                <g transform="matrix(191.611,0,0,191.611,5171.7,3728.83)">
                    <path d="M0.464,-0.247C0.464,-0.232 0.461,-0.221 0.454,-0.214C0.447,-0.207 0.438,-0.203 0.426,-0.203L0.161,-0.203C0.161,-0.185 0.163,-0.168 0.168,-0.153C0.172,-0.137 0.179,-0.125 0.189,-0.114C0.198,-0.103 0.211,-0.095 0.226,-0.09C0.241,-0.084 0.259,-0.082 0.28,-0.082C0.302,-0.082 0.321,-0.083 0.337,-0.086C0.353,-0.089 0.367,-0.093 0.379,-0.096C0.391,-0.1 0.401,-0.104 0.409,-0.107C0.417,-0.11 0.423,-0.111 0.428,-0.111C0.431,-0.111 0.433,-0.111 0.435,-0.11C0.437,-0.108 0.439,-0.106 0.44,-0.104C0.441,-0.101 0.442,-0.096 0.443,-0.091C0.443,-0.086 0.443,-0.079 0.443,-0.071C0.443,-0.064 0.443,-0.058 0.443,-0.052C0.443,-0.047 0.442,-0.043 0.441,-0.04C0.441,-0.036 0.44,-0.033 0.438,-0.031C0.437,-0.028 0.435,-0.026 0.433,-0.023C0.431,-0.021 0.425,-0.018 0.416,-0.014C0.407,-0.01 0.395,-0.006 0.38,-0.003C0.365,0.001 0.348,0.004 0.33,0.007C0.311,0.01 0.291,0.011 0.269,0.011C0.23,0.011 0.196,0.006 0.167,-0.003C0.138,-0.013 0.114,-0.028 0.094,-0.048C0.075,-0.068 0.06,-0.093 0.051,-0.123C0.041,-0.153 0.036,-0.189 0.036,-0.229C0.036,-0.268 0.041,-0.303 0.051,-0.334C0.061,-0.365 0.076,-0.392 0.095,-0.413C0.114,-0.435 0.138,-0.451 0.165,-0.463C0.193,-0.474 0.224,-0.48 0.258,-0.48C0.295,-0.48 0.326,-0.475 0.352,-0.464C0.378,-0.453 0.399,-0.438 0.416,-0.419C0.432,-0.4 0.444,-0.378 0.452,-0.352C0.46,-0.326 0.464,-0.297 0.464,-0.267L0.464,-0.247ZM0.345,-0.282C0.346,-0.317 0.339,-0.344 0.324,-0.364C0.309,-0.383 0.286,-0.393 0.255,-0.393C0.24,-0.393 0.226,-0.39 0.215,-0.384C0.203,-0.378 0.193,-0.371 0.186,-0.361C0.178,-0.351 0.172,-0.339 0.168,-0.325C0.164,-0.312 0.162,-0.298 0.161,-0.282L0.345,-0.282Z" style="fill:white;fill-rule:nonzero;"/>
                </g>
                <g transform="matrix(191.611,0,0,191.611,5268.16,3728.83)">
                    <path d="M0.368,-0.14C0.368,-0.115 0.364,-0.093 0.354,-0.074C0.345,-0.055 0.332,-0.04 0.315,-0.027C0.298,-0.014 0.278,-0.005 0.255,0.002C0.232,0.008 0.207,0.011 0.18,0.011C0.163,0.011 0.148,0.01 0.133,0.008C0.118,0.005 0.105,0.002 0.093,-0.002C0.082,-0.005 0.072,-0.009 0.064,-0.013C0.056,-0.017 0.05,-0.021 0.047,-0.024C0.043,-0.028 0.041,-0.033 0.039,-0.04C0.037,-0.048 0.036,-0.058 0.036,-0.073C0.036,-0.082 0.036,-0.09 0.037,-0.095C0.037,-0.101 0.038,-0.106 0.04,-0.109C0.041,-0.113 0.042,-0.115 0.044,-0.116C0.046,-0.117 0.049,-0.118 0.052,-0.118C0.055,-0.118 0.061,-0.116 0.068,-0.112C0.075,-0.108 0.083,-0.103 0.094,-0.098C0.104,-0.093 0.116,-0.089 0.13,-0.084C0.144,-0.08 0.16,-0.078 0.177,-0.078C0.188,-0.078 0.198,-0.079 0.207,-0.082C0.215,-0.084 0.223,-0.087 0.229,-0.091C0.236,-0.096 0.24,-0.101 0.244,-0.107C0.247,-0.114 0.249,-0.121 0.249,-0.13C0.249,-0.14 0.246,-0.148 0.24,-0.155C0.233,-0.162 0.226,-0.168 0.216,-0.173C0.206,-0.179 0.194,-0.183 0.182,-0.188C0.169,-0.193 0.156,-0.198 0.143,-0.203C0.13,-0.209 0.117,-0.215 0.105,-0.222C0.092,-0.229 0.081,-0.238 0.071,-0.249C0.061,-0.259 0.053,-0.271 0.047,-0.286C0.041,-0.301 0.038,-0.318 0.038,-0.339C0.038,-0.36 0.042,-0.379 0.05,-0.396C0.058,-0.414 0.07,-0.429 0.085,-0.441C0.101,-0.453 0.119,-0.463 0.141,-0.47C0.163,-0.477 0.188,-0.48 0.215,-0.48C0.229,-0.48 0.242,-0.479 0.255,-0.477C0.268,-0.475 0.28,-0.473 0.29,-0.47C0.3,-0.467 0.309,-0.464 0.316,-0.46C0.324,-0.457 0.329,-0.454 0.332,-0.451C0.335,-0.449 0.337,-0.447 0.338,-0.444C0.34,-0.442 0.341,-0.439 0.341,-0.435C0.342,-0.432 0.343,-0.428 0.343,-0.423C0.344,-0.418 0.344,-0.411 0.344,-0.404C0.344,-0.395 0.344,-0.388 0.343,-0.382C0.343,-0.377 0.342,-0.372 0.341,-0.369C0.339,-0.366 0.338,-0.364 0.336,-0.363C0.334,-0.361 0.332,-0.361 0.329,-0.361C0.326,-0.361 0.322,-0.363 0.315,-0.366C0.309,-0.369 0.302,-0.373 0.292,-0.377C0.283,-0.381 0.272,-0.385 0.26,-0.388C0.248,-0.391 0.234,-0.393 0.218,-0.393C0.207,-0.393 0.198,-0.392 0.189,-0.39C0.181,-0.387 0.175,-0.384 0.169,-0.38C0.164,-0.376 0.16,-0.371 0.158,-0.365C0.155,-0.359 0.154,-0.353 0.154,-0.347C0.154,-0.337 0.157,-0.328 0.163,-0.321C0.169,-0.314 0.177,-0.308 0.188,-0.303C0.198,-0.298 0.209,-0.293 0.222,-0.289C0.235,-0.284 0.248,-0.279 0.261,-0.274C0.274,-0.268 0.287,-0.262 0.3,-0.255C0.313,-0.248 0.324,-0.239 0.334,-0.229C0.345,-0.218 0.353,-0.206 0.359,-0.191C0.365,-0.177 0.368,-0.16 0.368,-0.14Z" style="fill:white;fill-rule:nonzero;"/>
                </g>
                <g transform="matrix(191.611,0,0,191.611,5387.91,3728.83)">
                    <path d="M0.04,-0.176C0.04,-0.194 0.043,-0.212 0.048,-0.228C0.053,-0.244 0.062,-0.259 0.072,-0.273C0.083,-0.288 0.096,-0.301 0.112,-0.314C0.128,-0.327 0.146,-0.34 0.167,-0.353C0.155,-0.368 0.145,-0.382 0.136,-0.395C0.128,-0.408 0.121,-0.421 0.115,-0.433C0.109,-0.445 0.105,-0.456 0.102,-0.467C0.1,-0.478 0.098,-0.489 0.098,-0.5C0.098,-0.522 0.102,-0.544 0.11,-0.564C0.118,-0.584 0.131,-0.601 0.148,-0.616C0.166,-0.63 0.188,-0.642 0.214,-0.651C0.241,-0.659 0.273,-0.664 0.311,-0.664C0.345,-0.664 0.374,-0.66 0.399,-0.654C0.424,-0.647 0.444,-0.638 0.46,-0.626C0.476,-0.614 0.488,-0.6 0.496,-0.582C0.503,-0.565 0.507,-0.545 0.507,-0.523C0.507,-0.504 0.504,-0.486 0.497,-0.469C0.491,-0.453 0.481,-0.437 0.467,-0.422C0.454,-0.407 0.437,-0.392 0.417,-0.379C0.396,-0.365 0.373,-0.351 0.346,-0.337C0.354,-0.327 0.364,-0.316 0.375,-0.305C0.386,-0.294 0.397,-0.282 0.409,-0.271C0.42,-0.26 0.432,-0.249 0.444,-0.238C0.456,-0.227 0.467,-0.216 0.478,-0.207C0.482,-0.214 0.486,-0.221 0.49,-0.229C0.493,-0.238 0.496,-0.247 0.498,-0.256C0.501,-0.266 0.503,-0.275 0.504,-0.285C0.506,-0.295 0.506,-0.305 0.506,-0.314L0.506,-0.329C0.506,-0.333 0.507,-0.336 0.508,-0.338C0.51,-0.341 0.512,-0.343 0.516,-0.345C0.52,-0.346 0.526,-0.348 0.534,-0.348C0.542,-0.349 0.551,-0.35 0.563,-0.35C0.575,-0.35 0.584,-0.349 0.592,-0.349C0.599,-0.348 0.605,-0.347 0.61,-0.346C0.614,-0.344 0.617,-0.342 0.619,-0.339C0.621,-0.336 0.622,-0.333 0.622,-0.329L0.622,-0.313C0.622,-0.297 0.62,-0.282 0.618,-0.266C0.616,-0.25 0.613,-0.234 0.608,-0.219C0.604,-0.204 0.598,-0.189 0.592,-0.176C0.585,-0.162 0.578,-0.149 0.57,-0.137C0.582,-0.128 0.592,-0.121 0.6,-0.115C0.608,-0.109 0.615,-0.104 0.621,-0.101C0.627,-0.097 0.632,-0.095 0.636,-0.094C0.64,-0.092 0.643,-0.092 0.646,-0.092L0.656,-0.092C0.659,-0.092 0.661,-0.091 0.663,-0.088C0.665,-0.086 0.667,-0.082 0.667,-0.076C0.668,-0.07 0.669,-0.062 0.669,-0.05C0.669,-0.038 0.669,-0.029 0.668,-0.022C0.668,-0.015 0.667,-0.01 0.666,-0.007C0.665,-0.004 0.663,-0.001 0.66,0.001C0.657,0.003 0.653,0.005 0.646,0.007C0.639,0.009 0.632,0.01 0.623,0.01C0.615,0.01 0.608,0.009 0.6,0.007C0.593,0.005 0.584,0.002 0.574,-0.003C0.564,-0.008 0.552,-0.015 0.539,-0.023C0.525,-0.031 0.51,-0.042 0.492,-0.055C0.477,-0.045 0.461,-0.035 0.445,-0.027C0.429,-0.019 0.412,-0.012 0.394,-0.006C0.376,-0.001 0.358,0.003 0.339,0.006C0.32,0.009 0.3,0.011 0.278,0.011C0.257,0.011 0.236,0.009 0.216,0.006C0.196,0.003 0.177,-0.002 0.159,-0.009C0.142,-0.016 0.125,-0.024 0.111,-0.034C0.096,-0.044 0.084,-0.056 0.073,-0.07C0.063,-0.084 0.055,-0.1 0.049,-0.117C0.043,-0.135 0.04,-0.155 0.04,-0.176ZM0.228,-0.506C0.228,-0.499 0.229,-0.492 0.231,-0.485C0.233,-0.477 0.236,-0.47 0.24,-0.462C0.245,-0.454 0.25,-0.445 0.256,-0.436C0.262,-0.427 0.269,-0.418 0.277,-0.407C0.296,-0.418 0.312,-0.427 0.325,-0.436C0.338,-0.445 0.348,-0.453 0.356,-0.462C0.364,-0.47 0.369,-0.478 0.373,-0.487C0.376,-0.495 0.377,-0.503 0.377,-0.512C0.377,-0.52 0.376,-0.527 0.373,-0.534C0.37,-0.541 0.366,-0.547 0.359,-0.552C0.353,-0.557 0.346,-0.561 0.336,-0.564C0.327,-0.567 0.317,-0.568 0.304,-0.568C0.291,-0.568 0.279,-0.567 0.269,-0.564C0.26,-0.561 0.252,-0.556 0.246,-0.551C0.239,-0.545 0.235,-0.538 0.232,-0.531C0.229,-0.523 0.228,-0.515 0.228,-0.506ZM0.173,-0.183C0.173,-0.169 0.175,-0.156 0.181,-0.145C0.186,-0.133 0.193,-0.123 0.203,-0.114C0.213,-0.106 0.225,-0.099 0.24,-0.094C0.254,-0.09 0.271,-0.087 0.29,-0.087C0.299,-0.087 0.309,-0.088 0.319,-0.09C0.328,-0.092 0.338,-0.094 0.347,-0.097C0.356,-0.101 0.365,-0.104 0.373,-0.109C0.382,-0.113 0.389,-0.118 0.396,-0.123C0.382,-0.135 0.367,-0.147 0.352,-0.16C0.337,-0.174 0.323,-0.187 0.309,-0.2C0.295,-0.214 0.282,-0.227 0.269,-0.24C0.256,-0.253 0.244,-0.266 0.234,-0.277C0.223,-0.27 0.213,-0.263 0.206,-0.255C0.198,-0.247 0.192,-0.24 0.187,-0.232C0.182,-0.224 0.179,-0.216 0.176,-0.208C0.174,-0.2 0.173,-0.192 0.173,-0.183Z" style="fill:white;fill-rule:nonzero;"/>
                </g>
                <g transform="matrix(191.611,0,0,191.611,5566.24,3728.83)">
                    <path d="M0.443,-0.05C0.443,-0.041 0.443,-0.033 0.442,-0.027C0.441,-0.02 0.44,-0.015 0.438,-0.011C0.437,-0.007 0.435,-0.004 0.432,-0.003C0.43,-0.001 0.427,-0 0.424,-0L0.107,-0C0.096,-0 0.087,-0.003 0.08,-0.01C0.073,-0.016 0.069,-0.026 0.069,-0.041L0.069,-0.591C0.069,-0.606 0.073,-0.616 0.08,-0.622C0.087,-0.629 0.096,-0.632 0.107,-0.632L0.422,-0.632C0.425,-0.632 0.428,-0.631 0.43,-0.629C0.432,-0.628 0.434,-0.625 0.436,-0.621C0.438,-0.617 0.439,-0.612 0.44,-0.605C0.441,-0.599 0.441,-0.591 0.441,-0.581C0.441,-0.572 0.441,-0.564 0.44,-0.558C0.439,-0.552 0.438,-0.546 0.436,-0.542C0.434,-0.539 0.432,-0.536 0.43,-0.534C0.428,-0.532 0.425,-0.531 0.422,-0.531L0.197,-0.531L0.197,-0.377L0.388,-0.377C0.391,-0.377 0.393,-0.376 0.396,-0.374C0.398,-0.372 0.4,-0.37 0.402,-0.366C0.403,-0.362 0.405,-0.357 0.406,-0.351C0.406,-0.344 0.407,-0.337 0.407,-0.328C0.407,-0.318 0.406,-0.31 0.406,-0.304C0.405,-0.298 0.403,-0.293 0.402,-0.289C0.4,-0.286 0.398,-0.283 0.396,-0.281C0.393,-0.28 0.391,-0.279 0.388,-0.279L0.197,-0.279L0.197,-0.101L0.424,-0.101C0.427,-0.101 0.43,-0.1 0.432,-0.098C0.435,-0.096 0.437,-0.093 0.438,-0.089C0.44,-0.085 0.441,-0.08 0.442,-0.074C0.443,-0.068 0.443,-0.06 0.443,-0.05Z" style="fill:white;fill-rule:nonzero;"/>
                </g>
                <g transform="matrix(191.611,0,0,191.611,5659.71,3728.83)">
                    <path d="M0.44,-0.025C0.443,-0.02 0.444,-0.015 0.444,-0.012C0.443,-0.008 0.441,-0.005 0.437,-0.003C0.432,-0.001 0.425,0.001 0.416,0.002C0.406,0.003 0.394,0.003 0.378,0.003C0.363,0.003 0.351,0.003 0.343,0.002C0.334,0.002 0.327,0.001 0.322,-0.001C0.316,-0.002 0.313,-0.004 0.31,-0.006C0.308,-0.008 0.306,-0.011 0.305,-0.014L0.224,-0.169L0.144,-0.014C0.142,-0.011 0.14,-0.008 0.138,-0.006C0.136,-0.004 0.132,-0.002 0.128,-0.001C0.123,0.001 0.116,0.002 0.108,0.002C0.099,0.003 0.088,0.003 0.075,0.003C0.06,0.003 0.049,0.003 0.041,0.002C0.032,0.001 0.026,-0.001 0.022,-0.003C0.018,-0.005 0.016,-0.008 0.016,-0.012C0.016,-0.015 0.017,-0.02 0.02,-0.025L0.141,-0.24L0.029,-0.441C0.026,-0.447 0.025,-0.452 0.025,-0.456C0.024,-0.46 0.027,-0.463 0.031,-0.465C0.035,-0.468 0.042,-0.469 0.051,-0.47C0.06,-0.471 0.073,-0.472 0.089,-0.472C0.103,-0.472 0.115,-0.471 0.123,-0.471C0.132,-0.47 0.139,-0.47 0.144,-0.469C0.148,-0.468 0.152,-0.466 0.154,-0.464C0.157,-0.462 0.159,-0.459 0.16,-0.456L0.238,-0.311L0.315,-0.456C0.316,-0.459 0.317,-0.461 0.319,-0.463C0.321,-0.465 0.324,-0.466 0.329,-0.468C0.333,-0.469 0.339,-0.47 0.346,-0.471C0.353,-0.471 0.363,-0.472 0.376,-0.472C0.39,-0.472 0.402,-0.471 0.41,-0.471C0.419,-0.47 0.425,-0.469 0.429,-0.466C0.433,-0.464 0.434,-0.461 0.434,-0.457C0.434,-0.453 0.432,-0.447 0.429,-0.441L0.32,-0.243L0.44,-0.025Z" style="fill:white;fill-rule:nonzero;"/>
                </g>
                <g transform="matrix(191.611,0,0,191.611,5747.75,3728.83)">
                    <path d="M0.185,-0.017C0.185,-0.013 0.184,-0.01 0.182,-0.008C0.18,-0.006 0.176,-0.004 0.172,-0.002C0.167,-0 0.161,0.001 0.153,0.002C0.145,0.003 0.135,0.003 0.123,0.003C0.111,0.003 0.101,0.003 0.093,0.002C0.085,0.001 0.079,-0 0.074,-0.002C0.07,-0.004 0.066,-0.006 0.064,-0.008C0.063,-0.01 0.062,-0.013 0.062,-0.017L0.062,-0.451C0.062,-0.454 0.063,-0.457 0.064,-0.46C0.066,-0.462 0.07,-0.464 0.074,-0.466C0.079,-0.468 0.085,-0.469 0.093,-0.47C0.101,-0.471 0.111,-0.472 0.123,-0.472C0.135,-0.472 0.145,-0.471 0.153,-0.47C0.161,-0.469 0.167,-0.468 0.172,-0.466C0.176,-0.464 0.18,-0.462 0.182,-0.46C0.184,-0.457 0.185,-0.454 0.185,-0.451L0.185,-0.017ZM0.194,-0.6C0.194,-0.575 0.189,-0.558 0.179,-0.548C0.169,-0.539 0.15,-0.534 0.123,-0.534C0.095,-0.534 0.076,-0.539 0.067,-0.548C0.057,-0.557 0.052,-0.573 0.052,-0.597C0.052,-0.622 0.057,-0.639 0.067,-0.649C0.077,-0.658 0.096,-0.663 0.124,-0.663C0.151,-0.663 0.169,-0.658 0.179,-0.649C0.189,-0.64 0.194,-0.623 0.194,-0.6Z" style="fill:white;fill-rule:nonzero;"/>
                </g>
                <g transform="matrix(191.611,0,0,191.611,5794.81,3728.83)">
                    <path d="M0.319,-0.06C0.319,-0.045 0.318,-0.034 0.317,-0.027C0.315,-0.019 0.313,-0.014 0.31,-0.01C0.307,-0.007 0.302,-0.005 0.297,-0.002C0.291,0 0.284,0.002 0.277,0.004C0.269,0.006 0.261,0.007 0.252,0.008C0.243,0.009 0.234,0.01 0.225,0.01C0.2,0.01 0.179,0.007 0.161,0C0.143,-0.006 0.128,-0.015 0.117,-0.028C0.105,-0.041 0.096,-0.057 0.091,-0.077C0.085,-0.096 0.083,-0.119 0.083,-0.146L0.083,-0.369L0.03,-0.369C0.024,-0.369 0.019,-0.373 0.016,-0.381C0.013,-0.388 0.011,-0.401 0.011,-0.419C0.011,-0.428 0.012,-0.436 0.012,-0.443C0.013,-0.449 0.014,-0.455 0.016,-0.458C0.018,-0.462 0.02,-0.465 0.022,-0.466C0.025,-0.468 0.028,-0.469 0.031,-0.469L0.083,-0.469L0.083,-0.566C0.083,-0.569 0.083,-0.572 0.085,-0.575C0.087,-0.577 0.09,-0.58 0.095,-0.581C0.1,-0.583 0.106,-0.584 0.114,-0.585C0.122,-0.586 0.132,-0.586 0.144,-0.586C0.156,-0.586 0.166,-0.586 0.174,-0.585C0.182,-0.584 0.188,-0.583 0.192,-0.581C0.197,-0.58 0.2,-0.577 0.202,-0.575C0.204,-0.572 0.205,-0.569 0.205,-0.566L0.205,-0.469L0.3,-0.469C0.303,-0.469 0.306,-0.468 0.308,-0.466C0.311,-0.465 0.313,-0.462 0.314,-0.458C0.316,-0.455 0.317,-0.449 0.318,-0.443C0.319,-0.436 0.319,-0.428 0.319,-0.419C0.319,-0.401 0.318,-0.388 0.314,-0.381C0.311,-0.373 0.306,-0.369 0.3,-0.369L0.205,-0.369L0.205,-0.165C0.205,-0.141 0.209,-0.123 0.216,-0.111C0.224,-0.099 0.237,-0.093 0.256,-0.093C0.263,-0.093 0.269,-0.094 0.274,-0.095C0.279,-0.096 0.284,-0.097 0.288,-0.099C0.292,-0.1 0.295,-0.102 0.298,-0.103C0.301,-0.104 0.303,-0.104 0.306,-0.104C0.308,-0.104 0.309,-0.104 0.311,-0.103C0.313,-0.102 0.314,-0.099 0.315,-0.096C0.316,-0.093 0.317,-0.088 0.318,-0.082C0.319,-0.076 0.319,-0.069 0.319,-0.06Z" style="fill:white;fill-rule:nonzero;"/>
                </g>
            </g>
        </g>
    </g>
</svg>
