<?xml version="1.0" encoding="UTF-8" standalone="no"?>
<!DOCTYPE svg PUBLIC "-//W3C//DTD SVG 1.1//EN" "http://www.w3.org/Graphics/SVG/1.1/DTD/svg11.dtd">
<svg width="100%" height="100%" viewBox="0 0 1100 250" version="1.1" xmlns="http://www.w3.org/2000/svg" xmlns:xlink="http://www.w3.org/1999/xlink" xml:space="preserve" xmlns:serif="http://www.serif.com/" style="fill-rule:evenodd;clip-rule:evenodd;stroke-linecap:round;stroke-linejoin:round;stroke-miterlimit:1.5;">
    <g transform="matrix(1,0,0,1,-814.099,-2722.47)">
        <g transform="matrix(6.59992,0,0,1.88002,0,0)">
            <g transform="matrix(0.982823,0,0,0.917935,-168.124,0)">
                <g transform="matrix(0.892542,0,0,1,274.017,0)">
                    <g>
                        <g transform="matrix(0.169184,0,0,0.452248,0.518085,1220.61)">
                            <rect x="146.28" y="789.301" width="1123.03" height="320.323" style="fill:none;"/>
                        </g>
                        <g transform="matrix(0.118094,0,0,0.396183,-421.198,167.486)">
                            <g transform="matrix(134.073,0,0,134.073,4291.39,3728.83)">
                                <path d="M0.443,-0.189C0.443,-0.156 0.437,-0.127 0.425,-0.102C0.412,-0.077 0.396,-0.056 0.375,-0.039C0.353,-0.023 0.329,-0.01 0.3,-0.001C0.272,0.007 0.242,0.011 0.209,0.011C0.188,0.011 0.167,0.009 0.149,0.006C0.13,0.002 0.113,-0.002 0.099,-0.007C0.085,-0.012 0.073,-0.017 0.063,-0.023C0.054,-0.028 0.047,-0.033 0.042,-0.038C0.038,-0.042 0.035,-0.048 0.033,-0.056C0.032,-0.064 0.031,-0.075 0.031,-0.09C0.031,-0.1 0.031,-0.109 0.032,-0.116C0.032,-0.123 0.033,-0.128 0.035,-0.132C0.036,-0.137 0.038,-0.14 0.041,-0.141C0.043,-0.143 0.046,-0.144 0.049,-0.144C0.054,-0.144 0.06,-0.141 0.069,-0.136C0.077,-0.131 0.088,-0.125 0.101,-0.118C0.114,-0.112 0.129,-0.106 0.147,-0.1C0.165,-0.095 0.186,-0.092 0.21,-0.092C0.226,-0.092 0.24,-0.094 0.252,-0.098C0.264,-0.102 0.275,-0.107 0.283,-0.114C0.292,-0.121 0.299,-0.129 0.303,-0.139C0.308,-0.149 0.31,-0.16 0.31,-0.173C0.31,-0.187 0.306,-0.199 0.298,-0.21C0.291,-0.22 0.28,-0.229 0.268,-0.237C0.255,-0.245 0.241,-0.253 0.225,-0.26C0.209,-0.267 0.193,-0.274 0.176,-0.282C0.159,-0.29 0.142,-0.298 0.126,-0.308C0.111,-0.318 0.096,-0.33 0.084,-0.344C0.071,-0.358 0.061,-0.374 0.053,-0.393C0.045,-0.412 0.042,-0.435 0.042,-0.461C0.042,-0.491 0.047,-0.518 0.058,-0.541C0.07,-0.564 0.085,-0.583 0.104,-0.598C0.123,-0.613 0.145,-0.624 0.171,-0.632C0.197,-0.639 0.224,-0.643 0.253,-0.643C0.268,-0.643 0.283,-0.642 0.298,-0.64C0.313,-0.637 0.327,-0.634 0.34,-0.63C0.353,-0.626 0.365,-0.622 0.375,-0.617C0.385,-0.612 0.392,-0.608 0.395,-0.605C0.398,-0.602 0.4,-0.599 0.402,-0.597C0.403,-0.594 0.404,-0.591 0.405,-0.588C0.405,-0.584 0.406,-0.579 0.406,-0.573C0.407,-0.568 0.407,-0.561 0.407,-0.552C0.407,-0.543 0.406,-0.535 0.406,-0.528C0.406,-0.522 0.405,-0.516 0.404,-0.512C0.402,-0.508 0.401,-0.505 0.399,-0.503C0.397,-0.501 0.394,-0.5 0.39,-0.5C0.387,-0.5 0.381,-0.502 0.373,-0.507C0.365,-0.511 0.356,-0.516 0.344,-0.522C0.333,-0.527 0.32,-0.532 0.305,-0.536C0.29,-0.541 0.273,-0.543 0.255,-0.543C0.241,-0.543 0.229,-0.541 0.219,-0.538C0.208,-0.534 0.2,-0.53 0.193,-0.524C0.186,-0.518 0.18,-0.51 0.177,-0.502C0.174,-0.493 0.172,-0.485 0.172,-0.475C0.172,-0.461 0.176,-0.449 0.183,-0.439C0.191,-0.428 0.201,-0.419 0.214,-0.411C0.227,-0.403 0.242,-0.396 0.258,-0.389C0.274,-0.382 0.291,-0.375 0.308,-0.367C0.325,-0.359 0.341,-0.35 0.357,-0.34C0.374,-0.33 0.388,-0.318 0.401,-0.304C0.414,-0.291 0.424,-0.274 0.432,-0.256C0.439,-0.237 0.443,-0.215 0.443,-0.189Z" style="fill:rgb(2,70,100);fill-rule:nonzero;"/>
                            </g>
                            <g transform="matrix(134.073,0,0,134.073,4354.76,3728.83)">
                                <path d="M0.478,-0.017C0.478,-0.013 0.477,-0.01 0.475,-0.008C0.473,-0.006 0.469,-0.004 0.465,-0.002C0.46,-0 0.454,0.001 0.446,0.002C0.438,0.003 0.428,0.003 0.417,0.003C0.404,0.003 0.394,0.003 0.386,0.002C0.378,0.001 0.372,-0 0.368,-0.002C0.363,-0.004 0.36,-0.006 0.358,-0.008C0.356,-0.01 0.355,-0.013 0.355,-0.017L0.355,-0.265C0.355,-0.286 0.353,-0.303 0.35,-0.315C0.347,-0.327 0.343,-0.337 0.337,-0.346C0.331,-0.355 0.323,-0.361 0.314,-0.366C0.305,-0.371 0.294,-0.373 0.282,-0.373C0.266,-0.373 0.25,-0.367 0.234,-0.356C0.218,-0.345 0.202,-0.328 0.185,-0.306L0.185,-0.017C0.185,-0.013 0.184,-0.01 0.182,-0.008C0.18,-0.006 0.176,-0.004 0.172,-0.002C0.167,-0 0.161,0.001 0.153,0.002C0.145,0.003 0.135,0.003 0.123,0.003C0.111,0.003 0.101,0.003 0.093,0.002C0.085,0.001 0.079,-0 0.074,-0.002C0.07,-0.004 0.066,-0.006 0.064,-0.008C0.063,-0.01 0.062,-0.013 0.062,-0.017L0.062,-0.659C0.062,-0.662 0.063,-0.665 0.064,-0.667C0.066,-0.67 0.07,-0.672 0.074,-0.674C0.079,-0.676 0.085,-0.677 0.093,-0.678C0.101,-0.679 0.111,-0.68 0.123,-0.68C0.135,-0.68 0.145,-0.679 0.153,-0.678C0.161,-0.677 0.167,-0.676 0.172,-0.674C0.176,-0.672 0.18,-0.67 0.182,-0.667C0.184,-0.665 0.185,-0.662 0.185,-0.659L0.185,-0.418C0.206,-0.439 0.227,-0.454 0.249,-0.465C0.271,-0.475 0.294,-0.48 0.318,-0.48C0.347,-0.48 0.372,-0.475 0.393,-0.465C0.413,-0.456 0.43,-0.442 0.442,-0.425C0.455,-0.408 0.464,-0.389 0.469,-0.366C0.475,-0.343 0.478,-0.316 0.478,-0.284L0.478,-0.017Z" style="fill:rgb(2,70,100);fill-rule:nonzero;"/>
                            </g>
                            <g transform="matrix(134.073,0,0,134.073,4426.71,3728.83)">
                                <path d="M0.502,-0.239C0.502,-0.202 0.497,-0.168 0.487,-0.137C0.478,-0.107 0.463,-0.08 0.443,-0.058C0.423,-0.036 0.398,-0.019 0.368,-0.007C0.338,0.005 0.303,0.011 0.263,0.011C0.224,0.011 0.191,0.006 0.162,-0.005C0.133,-0.016 0.11,-0.031 0.091,-0.052C0.072,-0.072 0.058,-0.097 0.049,-0.127C0.04,-0.157 0.035,-0.192 0.035,-0.23C0.035,-0.267 0.04,-0.301 0.05,-0.332C0.06,-0.363 0.075,-0.389 0.095,-0.411C0.115,-0.433 0.139,-0.45 0.169,-0.462C0.199,-0.474 0.234,-0.48 0.274,-0.48C0.313,-0.48 0.347,-0.475 0.375,-0.464C0.404,-0.454 0.428,-0.438 0.447,-0.417C0.465,-0.397 0.479,-0.372 0.488,-0.342C0.497,-0.312 0.502,-0.278 0.502,-0.239ZM0.375,-0.234C0.375,-0.255 0.374,-0.275 0.37,-0.293C0.367,-0.311 0.361,-0.327 0.353,-0.34C0.345,-0.354 0.334,-0.364 0.321,-0.372C0.307,-0.379 0.29,-0.383 0.27,-0.383C0.251,-0.383 0.235,-0.379 0.222,-0.373C0.208,-0.366 0.197,-0.356 0.188,-0.344C0.179,-0.331 0.173,-0.315 0.168,-0.297C0.164,-0.279 0.162,-0.258 0.162,-0.235C0.162,-0.214 0.163,-0.194 0.167,-0.176C0.171,-0.158 0.176,-0.142 0.184,-0.129C0.192,-0.116 0.203,-0.105 0.217,-0.098C0.23,-0.091 0.247,-0.087 0.268,-0.087C0.286,-0.087 0.302,-0.09 0.316,-0.097C0.33,-0.104 0.341,-0.113 0.35,-0.126C0.358,-0.139 0.365,-0.154 0.369,-0.172C0.373,-0.19 0.375,-0.211 0.375,-0.234Z" style="fill:rgb(2,70,100);fill-rule:nonzero;"/>
                            </g>
                            <g transform="matrix(134.073,0,0,134.073,4498.52,3728.83)">
                                <path d="M0.728,-0.453C0.728,-0.45 0.728,-0.445 0.727,-0.44C0.726,-0.435 0.724,-0.427 0.721,-0.417L0.605,-0.023C0.603,-0.018 0.601,-0.013 0.599,-0.01C0.596,-0.007 0.592,-0.004 0.587,-0.002C0.581,-0 0.574,0.001 0.564,0.002C0.554,0.003 0.541,0.003 0.525,0.003C0.509,0.003 0.496,0.003 0.486,0.002C0.476,0.001 0.468,-0 0.462,-0.002C0.456,-0.004 0.452,-0.007 0.45,-0.01C0.447,-0.014 0.445,-0.018 0.444,-0.023L0.371,-0.288L0.37,-0.292L0.369,-0.288L0.301,-0.023C0.3,-0.018 0.298,-0.013 0.296,-0.01C0.293,-0.007 0.289,-0.004 0.283,-0.002C0.277,-0 0.269,0.001 0.259,0.002C0.249,0.003 0.236,0.003 0.22,0.003C0.204,0.003 0.191,0.003 0.181,0.002C0.171,0.001 0.163,-0 0.157,-0.002C0.152,-0.004 0.148,-0.007 0.145,-0.01C0.142,-0.014 0.14,-0.018 0.139,-0.023L0.024,-0.417C0.021,-0.427 0.019,-0.434 0.018,-0.44C0.017,-0.445 0.017,-0.45 0.017,-0.453C0.017,-0.456 0.018,-0.459 0.02,-0.462C0.022,-0.464 0.025,-0.466 0.03,-0.468C0.034,-0.469 0.041,-0.47 0.049,-0.471C0.057,-0.471 0.067,-0.472 0.079,-0.472C0.092,-0.472 0.102,-0.471 0.11,-0.471C0.118,-0.47 0.125,-0.469 0.129,-0.467C0.134,-0.466 0.137,-0.463 0.139,-0.461C0.141,-0.458 0.142,-0.455 0.143,-0.451L0.229,-0.131L0.23,-0.125L0.231,-0.131L0.313,-0.451C0.313,-0.455 0.315,-0.458 0.317,-0.461C0.319,-0.463 0.322,-0.466 0.327,-0.467C0.331,-0.469 0.337,-0.47 0.344,-0.471C0.352,-0.471 0.362,-0.472 0.374,-0.472C0.386,-0.472 0.396,-0.471 0.403,-0.47C0.411,-0.47 0.417,-0.469 0.421,-0.467C0.426,-0.466 0.429,-0.464 0.43,-0.461C0.432,-0.459 0.434,-0.456 0.435,-0.453L0.521,-0.13L0.523,-0.125L0.524,-0.131L0.607,-0.451C0.608,-0.455 0.609,-0.458 0.611,-0.461C0.613,-0.463 0.616,-0.466 0.621,-0.467C0.625,-0.469 0.631,-0.47 0.639,-0.471C0.647,-0.471 0.657,-0.472 0.669,-0.472C0.681,-0.472 0.691,-0.471 0.698,-0.471C0.706,-0.47 0.712,-0.469 0.717,-0.468C0.721,-0.466 0.724,-0.464 0.726,-0.462C0.727,-0.459 0.728,-0.456 0.728,-0.453Z" style="fill:rgb(2,70,100);fill-rule:nonzero;"/>
                            </g>
                            <g transform="matrix(134.073,0,0,134.073,4598.42,3728.83)">
                                <path d="M0.123,0.126C0.121,0.131 0.119,0.134 0.117,0.137C0.114,0.139 0.11,0.141 0.106,0.143C0.101,0.145 0.095,0.146 0.088,0.147C0.081,0.148 0.072,0.148 0.062,0.148C0.048,0.148 0.037,0.147 0.029,0.146C0.02,0.145 0.014,0.143 0.01,0.14C0.005,0.138 0.003,0.134 0.002,0.13C0.001,0.126 0.002,0.121 0.004,0.116L0.296,-0.704C0.297,-0.708 0.299,-0.712 0.302,-0.715C0.304,-0.717 0.308,-0.72 0.313,-0.721C0.317,-0.723 0.323,-0.724 0.33,-0.725C0.338,-0.726 0.347,-0.726 0.357,-0.726C0.371,-0.726 0.382,-0.725 0.39,-0.724C0.398,-0.723 0.404,-0.721 0.409,-0.718C0.413,-0.716 0.415,-0.712 0.416,-0.708C0.417,-0.704 0.416,-0.699 0.415,-0.694L0.123,0.126Z" style="fill:rgb(2,70,100);fill-rule:nonzero;"/>
                            </g>
                            <g transform="matrix(134.073,0,0,134.073,4656.03,3728.83)">
                                <path d="M0.562,-0.018C0.562,-0.014 0.561,-0.011 0.559,-0.009C0.557,-0.006 0.553,-0.004 0.548,-0.002C0.543,-0.001 0.537,0 0.529,0.001C0.521,0.002 0.51,0.003 0.498,0.003C0.485,0.003 0.475,0.002 0.467,0.001C0.458,0 0.452,-0.001 0.447,-0.002C0.442,-0.004 0.439,-0.006 0.437,-0.009C0.435,-0.011 0.434,-0.014 0.434,-0.018L0.434,-0.273L0.197,-0.273L0.197,-0.018C0.197,-0.014 0.196,-0.011 0.194,-0.009C0.192,-0.006 0.189,-0.004 0.184,-0.002C0.179,-0.001 0.173,0 0.165,0.001C0.156,0.002 0.146,0.003 0.133,0.003C0.121,0.003 0.111,0.002 0.102,0.001C0.094,0 0.087,-0.001 0.083,-0.002C0.078,-0.004 0.074,-0.006 0.072,-0.009C0.07,-0.011 0.069,-0.014 0.069,-0.018L0.069,-0.614C0.069,-0.618 0.07,-0.62 0.072,-0.623C0.074,-0.626 0.078,-0.628 0.083,-0.629C0.087,-0.631 0.094,-0.632 0.102,-0.633C0.111,-0.634 0.121,-0.635 0.133,-0.635C0.146,-0.635 0.156,-0.634 0.165,-0.633C0.173,-0.632 0.179,-0.631 0.184,-0.629C0.189,-0.628 0.192,-0.626 0.194,-0.623C0.196,-0.62 0.197,-0.618 0.197,-0.614L0.197,-0.382L0.434,-0.382L0.434,-0.614C0.434,-0.618 0.435,-0.62 0.437,-0.623C0.439,-0.626 0.442,-0.628 0.447,-0.629C0.452,-0.631 0.458,-0.632 0.467,-0.633C0.475,-0.634 0.485,-0.635 0.498,-0.635C0.51,-0.635 0.521,-0.634 0.529,-0.633C0.537,-0.632 0.543,-0.631 0.548,-0.629C0.553,-0.628 0.557,-0.626 0.559,-0.623C0.561,-0.62 0.562,-0.618 0.562,-0.614L0.562,-0.018Z" style="fill:rgb(2,70,100);fill-rule:nonzero;"/>
                            </g>
                            <g transform="matrix(134.073,0,0,134.073,4740.61,3728.83)">
                                <path d="M0.185,-0.017C0.185,-0.013 0.184,-0.01 0.182,-0.008C0.18,-0.006 0.176,-0.004 0.172,-0.002C0.167,-0 0.161,0.001 0.153,0.002C0.145,0.003 0.135,0.003 0.123,0.003C0.111,0.003 0.101,0.003 0.093,0.002C0.085,0.001 0.079,-0 0.074,-0.002C0.07,-0.004 0.066,-0.006 0.064,-0.008C0.063,-0.01 0.062,-0.013 0.062,-0.017L0.062,-0.451C0.062,-0.454 0.063,-0.457 0.064,-0.46C0.066,-0.462 0.07,-0.464 0.074,-0.466C0.079,-0.468 0.085,-0.469 0.093,-0.47C0.101,-0.471 0.111,-0.472 0.123,-0.472C0.135,-0.472 0.145,-0.471 0.153,-0.47C0.161,-0.469 0.167,-0.468 0.172,-0.466C0.176,-0.464 0.18,-0.462 0.182,-0.46C0.184,-0.457 0.185,-0.454 0.185,-0.451L0.185,-0.017ZM0.194,-0.6C0.194,-0.575 0.189,-0.558 0.179,-0.548C0.169,-0.539 0.15,-0.534 0.123,-0.534C0.095,-0.534 0.076,-0.539 0.067,-0.548C0.057,-0.557 0.052,-0.573 0.052,-0.597C0.052,-0.622 0.057,-0.639 0.067,-0.649C0.077,-0.658 0.096,-0.663 0.124,-0.663C0.151,-0.663 0.169,-0.658 0.179,-0.649C0.189,-0.64 0.194,-0.623 0.194,-0.6Z" style="fill:rgb(2,70,100);fill-rule:nonzero;"/>
                            </g>
                            <g transform="matrix(134.073,0,0,134.073,4773.54,3728.83)">
                                <path d="M0.475,-0.017C0.475,-0.013 0.474,-0.01 0.472,-0.008C0.471,-0.005 0.468,-0.003 0.464,-0.001C0.46,0 0.455,0.001 0.448,0.002C0.441,0.003 0.433,0.003 0.423,0.003C0.413,0.003 0.404,0.003 0.398,0.002C0.391,0.001 0.386,0 0.382,-0.001C0.378,-0.003 0.375,-0.005 0.373,-0.008C0.372,-0.01 0.371,-0.013 0.371,-0.017L0.371,-0.065C0.348,-0.041 0.325,-0.022 0.3,-0.009C0.275,0.005 0.248,0.011 0.218,0.011C0.185,0.011 0.157,0.005 0.134,-0.008C0.111,-0.021 0.092,-0.038 0.078,-0.06C0.063,-0.082 0.053,-0.107 0.046,-0.136C0.04,-0.166 0.037,-0.196 0.037,-0.229C0.037,-0.267 0.041,-0.302 0.049,-0.333C0.057,-0.364 0.069,-0.39 0.085,-0.412C0.101,-0.434 0.121,-0.451 0.145,-0.462C0.169,-0.474 0.196,-0.48 0.227,-0.48C0.251,-0.48 0.274,-0.475 0.293,-0.465C0.313,-0.455 0.333,-0.441 0.353,-0.421L0.353,-0.657C0.353,-0.66 0.353,-0.663 0.355,-0.666C0.357,-0.669 0.36,-0.671 0.365,-0.673C0.37,-0.674 0.376,-0.676 0.384,-0.677C0.392,-0.678 0.402,-0.678 0.414,-0.678C0.426,-0.678 0.436,-0.678 0.443,-0.677C0.451,-0.676 0.457,-0.674 0.462,-0.673C0.466,-0.671 0.47,-0.669 0.472,-0.666C0.474,-0.663 0.475,-0.66 0.475,-0.657L0.475,-0.017ZM0.353,-0.308C0.335,-0.33 0.318,-0.347 0.302,-0.358C0.286,-0.37 0.269,-0.376 0.251,-0.376C0.236,-0.376 0.222,-0.372 0.21,-0.364C0.199,-0.356 0.189,-0.345 0.182,-0.332C0.175,-0.319 0.17,-0.304 0.167,-0.287C0.163,-0.271 0.162,-0.254 0.162,-0.237C0.162,-0.219 0.163,-0.201 0.166,-0.184C0.169,-0.166 0.174,-0.151 0.18,-0.137C0.187,-0.124 0.196,-0.113 0.207,-0.105C0.218,-0.097 0.232,-0.093 0.249,-0.093C0.257,-0.093 0.266,-0.094 0.274,-0.096C0.282,-0.099 0.29,-0.103 0.298,-0.108C0.306,-0.114 0.315,-0.121 0.324,-0.13C0.333,-0.139 0.342,-0.15 0.353,-0.163L0.353,-0.308Z" style="fill:rgb(2,70,100);fill-rule:nonzero;"/>
                            </g>
                            <g transform="matrix(134.073,0,0,134.073,4845.49,3728.83)">
                                <path d="M0.464,-0.247C0.464,-0.232 0.461,-0.221 0.454,-0.214C0.447,-0.207 0.438,-0.203 0.426,-0.203L0.161,-0.203C0.161,-0.185 0.163,-0.168 0.168,-0.153C0.172,-0.137 0.179,-0.125 0.189,-0.114C0.198,-0.103 0.211,-0.095 0.226,-0.09C0.241,-0.084 0.259,-0.082 0.28,-0.082C0.302,-0.082 0.321,-0.083 0.337,-0.086C0.353,-0.089 0.367,-0.093 0.379,-0.096C0.391,-0.1 0.401,-0.104 0.409,-0.107C0.417,-0.11 0.423,-0.111 0.428,-0.111C0.431,-0.111 0.433,-0.111 0.435,-0.11C0.437,-0.108 0.439,-0.106 0.44,-0.104C0.441,-0.101 0.442,-0.096 0.443,-0.091C0.443,-0.086 0.443,-0.079 0.443,-0.071C0.443,-0.064 0.443,-0.058 0.443,-0.052C0.443,-0.047 0.442,-0.043 0.441,-0.04C0.441,-0.036 0.44,-0.033 0.438,-0.031C0.437,-0.028 0.435,-0.026 0.433,-0.023C0.431,-0.021 0.425,-0.018 0.416,-0.014C0.407,-0.01 0.395,-0.006 0.38,-0.003C0.365,0.001 0.348,0.004 0.33,0.007C0.311,0.01 0.291,0.011 0.269,0.011C0.23,0.011 0.196,0.006 0.167,-0.003C0.138,-0.013 0.114,-0.028 0.094,-0.048C0.075,-0.068 0.06,-0.093 0.051,-0.123C0.041,-0.153 0.036,-0.189 0.036,-0.229C0.036,-0.268 0.041,-0.303 0.051,-0.334C0.061,-0.365 0.076,-0.392 0.095,-0.413C0.114,-0.435 0.138,-0.451 0.165,-0.463C0.193,-0.474 0.224,-0.48 0.258,-0.48C0.295,-0.48 0.326,-0.475 0.352,-0.464C0.378,-0.453 0.399,-0.438 0.416,-0.419C0.432,-0.4 0.444,-0.378 0.452,-0.352C0.46,-0.326 0.464,-0.297 0.464,-0.267L0.464,-0.247ZM0.345,-0.282C0.346,-0.317 0.339,-0.344 0.324,-0.364C0.309,-0.383 0.286,-0.393 0.255,-0.393C0.24,-0.393 0.226,-0.39 0.215,-0.384C0.203,-0.378 0.193,-0.371 0.186,-0.361C0.178,-0.351 0.172,-0.339 0.168,-0.325C0.164,-0.312 0.162,-0.298 0.161,-0.282L0.345,-0.282Z" style="fill:rgb(2,70,100);fill-rule:nonzero;"/>
                            </g>
                        </g>
                        <g transform="matrix(0.118094,0,0,0.396183,-421.198,224.877)">
                            <g transform="matrix(134.073,0,0,134.073,4291.39,3728.83)">
                                <path d="M0.489,-0.579C0.489,-0.57 0.489,-0.562 0.488,-0.555C0.487,-0.548 0.486,-0.543 0.484,-0.539C0.483,-0.535 0.481,-0.532 0.478,-0.53C0.476,-0.528 0.473,-0.527 0.47,-0.527L0.312,-0.527L0.312,-0.018C0.312,-0.014 0.311,-0.011 0.309,-0.009C0.307,-0.006 0.303,-0.004 0.298,-0.002C0.293,-0.001 0.287,0 0.279,0.001C0.27,0.002 0.26,0.003 0.248,0.003C0.235,0.003 0.225,0.002 0.217,0.001C0.208,0 0.202,-0.001 0.197,-0.002C0.192,-0.004 0.188,-0.006 0.186,-0.009C0.184,-0.011 0.183,-0.014 0.183,-0.018L0.183,-0.527L0.025,-0.527C0.022,-0.527 0.019,-0.528 0.017,-0.53C0.014,-0.532 0.012,-0.535 0.011,-0.539C0.009,-0.543 0.008,-0.548 0.007,-0.555C0.006,-0.562 0.006,-0.57 0.006,-0.579C0.006,-0.589 0.006,-0.597 0.007,-0.604C0.008,-0.611 0.009,-0.616 0.011,-0.62C0.012,-0.624 0.014,-0.627 0.017,-0.629C0.019,-0.631 0.022,-0.632 0.025,-0.632L0.47,-0.632C0.473,-0.632 0.476,-0.631 0.478,-0.629C0.481,-0.627 0.483,-0.624 0.484,-0.62C0.486,-0.616 0.487,-0.611 0.488,-0.604C0.489,-0.597 0.489,-0.589 0.489,-0.579Z" style="fill:rgb(2,70,100);fill-rule:nonzero;"/>
                            </g>
                            <g transform="matrix(134.073,0,0,134.073,4346.18,3728.83)">
                                <path d="M0.464,-0.247C0.464,-0.232 0.461,-0.221 0.454,-0.214C0.447,-0.207 0.438,-0.203 0.426,-0.203L0.161,-0.203C0.161,-0.185 0.163,-0.168 0.168,-0.153C0.172,-0.137 0.179,-0.125 0.189,-0.114C0.198,-0.103 0.211,-0.095 0.226,-0.09C0.241,-0.084 0.259,-0.082 0.28,-0.082C0.302,-0.082 0.321,-0.083 0.337,-0.086C0.353,-0.089 0.367,-0.093 0.379,-0.096C0.391,-0.1 0.401,-0.104 0.409,-0.107C0.417,-0.11 0.423,-0.111 0.428,-0.111C0.431,-0.111 0.433,-0.111 0.435,-0.11C0.437,-0.108 0.439,-0.106 0.44,-0.104C0.441,-0.101 0.442,-0.096 0.443,-0.091C0.443,-0.086 0.443,-0.079 0.443,-0.071C0.443,-0.064 0.443,-0.058 0.443,-0.052C0.443,-0.047 0.442,-0.043 0.441,-0.04C0.441,-0.036 0.44,-0.033 0.438,-0.031C0.437,-0.028 0.435,-0.026 0.433,-0.023C0.431,-0.021 0.425,-0.018 0.416,-0.014C0.407,-0.01 0.395,-0.006 0.38,-0.003C0.365,0.001 0.348,0.004 0.33,0.007C0.311,0.01 0.291,0.011 0.269,0.011C0.23,0.011 0.196,0.006 0.167,-0.003C0.138,-0.013 0.114,-0.028 0.094,-0.048C0.075,-0.068 0.06,-0.093 0.051,-0.123C0.041,-0.153 0.036,-0.189 0.036,-0.229C0.036,-0.268 0.041,-0.303 0.051,-0.334C0.061,-0.365 0.076,-0.392 0.095,-0.413C0.114,-0.435 0.138,-0.451 0.165,-0.463C0.193,-0.474 0.224,-0.48 0.258,-0.48C0.295,-0.48 0.326,-0.475 0.352,-0.464C0.378,-0.453 0.399,-0.438 0.416,-0.419C0.432,-0.4 0.444,-0.378 0.452,-0.352C0.46,-0.326 0.464,-0.297 0.464,-0.267L0.464,-0.247ZM0.345,-0.282C0.346,-0.317 0.339,-0.344 0.324,-0.364C0.309,-0.383 0.286,-0.393 0.255,-0.393C0.24,-0.393 0.226,-0.39 0.215,-0.384C0.203,-0.378 0.193,-0.371 0.186,-0.361C0.178,-0.351 0.172,-0.339 0.168,-0.325C0.164,-0.312 0.162,-0.298 0.161,-0.282L0.345,-0.282Z" style="fill:rgb(2,70,100);fill-rule:nonzero;"/>
                            </g>
                            <g transform="matrix(134.073,0,0,134.073,4413.68,3728.83)">
                                <path d="M0.341,-0.412C0.341,-0.4 0.341,-0.39 0.34,-0.383C0.34,-0.375 0.339,-0.369 0.337,-0.365C0.336,-0.361 0.334,-0.358 0.332,-0.356C0.33,-0.355 0.327,-0.354 0.324,-0.354C0.322,-0.354 0.319,-0.355 0.315,-0.356C0.312,-0.357 0.309,-0.358 0.304,-0.359C0.3,-0.361 0.296,-0.362 0.291,-0.363C0.286,-0.364 0.281,-0.365 0.275,-0.365C0.268,-0.365 0.261,-0.363 0.254,-0.361C0.248,-0.358 0.24,-0.354 0.233,-0.348C0.226,-0.342 0.218,-0.334 0.21,-0.324C0.202,-0.314 0.194,-0.302 0.185,-0.288L0.185,-0.017C0.185,-0.013 0.184,-0.01 0.182,-0.008C0.18,-0.006 0.176,-0.004 0.172,-0.002C0.167,-0 0.161,0.001 0.153,0.002C0.145,0.003 0.135,0.003 0.123,0.003C0.111,0.003 0.101,0.003 0.093,0.002C0.085,0.001 0.079,-0 0.074,-0.002C0.07,-0.004 0.066,-0.006 0.064,-0.008C0.063,-0.01 0.062,-0.013 0.062,-0.017L0.062,-0.452C0.062,-0.455 0.062,-0.458 0.064,-0.461C0.066,-0.463 0.069,-0.465 0.073,-0.467C0.077,-0.468 0.082,-0.47 0.089,-0.47C0.096,-0.471 0.104,-0.472 0.114,-0.472C0.125,-0.472 0.133,-0.471 0.14,-0.47C0.147,-0.47 0.152,-0.468 0.156,-0.467C0.16,-0.465 0.162,-0.463 0.164,-0.461C0.166,-0.458 0.167,-0.455 0.167,-0.452L0.167,-0.398C0.178,-0.414 0.189,-0.428 0.199,-0.438C0.209,-0.449 0.218,-0.457 0.228,-0.463C0.237,-0.47 0.246,-0.474 0.255,-0.476C0.264,-0.479 0.273,-0.48 0.282,-0.48C0.286,-0.48 0.291,-0.48 0.296,-0.479C0.301,-0.479 0.306,-0.478 0.311,-0.477C0.316,-0.476 0.321,-0.474 0.325,-0.473C0.329,-0.471 0.331,-0.47 0.333,-0.468C0.335,-0.467 0.336,-0.465 0.337,-0.463C0.338,-0.461 0.339,-0.458 0.339,-0.455C0.34,-0.451 0.34,-0.446 0.341,-0.439C0.341,-0.433 0.341,-0.423 0.341,-0.412Z" style="fill:rgb(2,70,100);fill-rule:nonzero;"/>
                            </g>
                            <g transform="matrix(134.073,0,0,134.073,4461.34,3728.83)">
                                <path d="M0.754,-0.017C0.754,-0.013 0.753,-0.01 0.751,-0.008C0.75,-0.006 0.746,-0.004 0.742,-0.002C0.737,-0 0.731,0.001 0.723,0.002C0.715,0.003 0.705,0.003 0.693,0.003C0.681,0.003 0.671,0.003 0.663,0.002C0.655,0.001 0.649,-0 0.644,-0.002C0.64,-0.004 0.636,-0.006 0.635,-0.008C0.633,-0.01 0.632,-0.013 0.632,-0.017L0.632,-0.275C0.632,-0.29 0.63,-0.303 0.628,-0.315C0.625,-0.327 0.621,-0.337 0.615,-0.346C0.609,-0.355 0.602,-0.361 0.594,-0.366C0.585,-0.371 0.575,-0.373 0.563,-0.373C0.548,-0.373 0.533,-0.367 0.518,-0.356C0.503,-0.345 0.487,-0.328 0.469,-0.306L0.469,-0.017C0.469,-0.013 0.468,-0.01 0.466,-0.008C0.464,-0.006 0.461,-0.004 0.456,-0.002C0.452,-0 0.445,0.001 0.438,0.002C0.43,0.003 0.42,0.003 0.408,0.003C0.396,0.003 0.386,0.003 0.378,0.002C0.371,0.001 0.364,-0 0.36,-0.002C0.355,-0.004 0.352,-0.006 0.35,-0.008C0.348,-0.01 0.347,-0.013 0.347,-0.017L0.347,-0.275C0.347,-0.29 0.345,-0.303 0.343,-0.315C0.34,-0.327 0.336,-0.337 0.33,-0.346C0.325,-0.355 0.317,-0.361 0.309,-0.366C0.3,-0.371 0.29,-0.373 0.278,-0.373C0.263,-0.373 0.248,-0.367 0.233,-0.356C0.218,-0.345 0.202,-0.328 0.185,-0.306L0.185,-0.017C0.185,-0.013 0.184,-0.01 0.182,-0.008C0.18,-0.006 0.176,-0.004 0.172,-0.002C0.167,-0 0.161,0.001 0.153,0.002C0.145,0.003 0.135,0.003 0.123,0.003C0.111,0.003 0.101,0.003 0.093,0.002C0.085,0.001 0.079,-0 0.074,-0.002C0.07,-0.004 0.066,-0.006 0.064,-0.008C0.063,-0.01 0.062,-0.013 0.062,-0.017L0.062,-0.452C0.062,-0.455 0.062,-0.458 0.064,-0.461C0.066,-0.463 0.069,-0.465 0.073,-0.467C0.077,-0.468 0.082,-0.47 0.089,-0.47C0.096,-0.471 0.104,-0.472 0.114,-0.472C0.125,-0.472 0.133,-0.471 0.14,-0.47C0.147,-0.47 0.152,-0.468 0.156,-0.467C0.16,-0.465 0.162,-0.463 0.164,-0.461C0.166,-0.458 0.167,-0.455 0.167,-0.452L0.167,-0.402C0.191,-0.428 0.215,-0.447 0.239,-0.46C0.262,-0.473 0.287,-0.48 0.313,-0.48C0.331,-0.48 0.347,-0.478 0.362,-0.474C0.376,-0.471 0.389,-0.465 0.4,-0.458C0.411,-0.451 0.421,-0.443 0.429,-0.433C0.437,-0.423 0.444,-0.412 0.45,-0.4C0.463,-0.414 0.476,-0.426 0.488,-0.437C0.501,-0.447 0.513,-0.455 0.525,-0.461C0.537,-0.468 0.55,-0.472 0.562,-0.475C0.574,-0.478 0.586,-0.48 0.599,-0.48C0.628,-0.48 0.653,-0.475 0.672,-0.465C0.692,-0.456 0.708,-0.442 0.72,-0.426C0.733,-0.409 0.741,-0.389 0.747,-0.367C0.752,-0.344 0.754,-0.32 0.754,-0.295L0.754,-0.017Z" style="fill:rgb(2,70,100);fill-rule:nonzero;"/>
                            </g>
                            <g transform="matrix(134.073,0,0,134.073,4570.4,3728.83)">
                                <path d="M0.185,-0.017C0.185,-0.013 0.184,-0.01 0.182,-0.008C0.18,-0.006 0.176,-0.004 0.172,-0.002C0.167,-0 0.161,0.001 0.153,0.002C0.145,0.003 0.135,0.003 0.123,0.003C0.111,0.003 0.101,0.003 0.093,0.002C0.085,0.001 0.079,-0 0.074,-0.002C0.07,-0.004 0.066,-0.006 0.064,-0.008C0.063,-0.01 0.062,-0.013 0.062,-0.017L0.062,-0.451C0.062,-0.454 0.063,-0.457 0.064,-0.46C0.066,-0.462 0.07,-0.464 0.074,-0.466C0.079,-0.468 0.085,-0.469 0.093,-0.47C0.101,-0.471 0.111,-0.472 0.123,-0.472C0.135,-0.472 0.145,-0.471 0.153,-0.47C0.161,-0.469 0.167,-0.468 0.172,-0.466C0.176,-0.464 0.18,-0.462 0.182,-0.46C0.184,-0.457 0.185,-0.454 0.185,-0.451L0.185,-0.017ZM0.194,-0.6C0.194,-0.575 0.189,-0.558 0.179,-0.548C0.169,-0.539 0.15,-0.534 0.123,-0.534C0.095,-0.534 0.076,-0.539 0.067,-0.548C0.057,-0.557 0.052,-0.573 0.052,-0.597C0.052,-0.622 0.057,-0.639 0.067,-0.649C0.077,-0.658 0.096,-0.663 0.124,-0.663C0.151,-0.663 0.169,-0.658 0.179,-0.649C0.189,-0.64 0.194,-0.623 0.194,-0.6Z" style="fill:rgb(2,70,100);fill-rule:nonzero;"/>
                            </g>
                            <g transform="matrix(134.073,0,0,134.073,4603.33,3728.83)">
                                <path d="M0.478,-0.017C0.478,-0.013 0.477,-0.01 0.475,-0.008C0.473,-0.006 0.469,-0.004 0.465,-0.002C0.46,-0 0.454,0.001 0.446,0.002C0.438,0.003 0.428,0.003 0.417,0.003C0.404,0.003 0.394,0.003 0.386,0.002C0.378,0.001 0.372,-0 0.368,-0.002C0.363,-0.004 0.36,-0.006 0.358,-0.008C0.356,-0.01 0.355,-0.013 0.355,-0.017L0.355,-0.265C0.355,-0.286 0.353,-0.303 0.35,-0.315C0.347,-0.327 0.343,-0.337 0.337,-0.346C0.331,-0.355 0.323,-0.361 0.314,-0.366C0.305,-0.371 0.294,-0.373 0.282,-0.373C0.266,-0.373 0.25,-0.367 0.234,-0.356C0.218,-0.345 0.202,-0.328 0.185,-0.306L0.185,-0.017C0.185,-0.013 0.184,-0.01 0.182,-0.008C0.18,-0.006 0.176,-0.004 0.172,-0.002C0.167,-0 0.161,0.001 0.153,0.002C0.145,0.003 0.135,0.003 0.123,0.003C0.111,0.003 0.101,0.003 0.093,0.002C0.085,0.001 0.079,-0 0.074,-0.002C0.07,-0.004 0.066,-0.006 0.064,-0.008C0.063,-0.01 0.062,-0.013 0.062,-0.017L0.062,-0.452C0.062,-0.455 0.062,-0.458 0.064,-0.461C0.066,-0.463 0.069,-0.465 0.073,-0.467C0.077,-0.468 0.082,-0.47 0.089,-0.47C0.096,-0.471 0.104,-0.472 0.114,-0.472C0.125,-0.472 0.133,-0.471 0.14,-0.47C0.147,-0.47 0.152,-0.468 0.156,-0.467C0.16,-0.465 0.162,-0.463 0.164,-0.461C0.166,-0.458 0.167,-0.455 0.167,-0.452L0.167,-0.402C0.191,-0.428 0.215,-0.447 0.24,-0.46C0.265,-0.473 0.291,-0.48 0.318,-0.48C0.347,-0.48 0.372,-0.475 0.393,-0.465C0.413,-0.456 0.43,-0.442 0.442,-0.426C0.455,-0.409 0.464,-0.389 0.469,-0.367C0.475,-0.344 0.478,-0.317 0.478,-0.286L0.478,-0.017Z" style="fill:rgb(2,70,100);fill-rule:nonzero;"/>
                            </g>
                            <g transform="matrix(134.073,0,0,134.073,4675.28,3728.83)">
                                <path d="M0.433,-0.015C0.433,-0.011 0.431,-0.007 0.428,-0.004C0.424,-0.002 0.419,0 0.412,0.001C0.405,0.002 0.395,0.003 0.381,0.003C0.367,0.003 0.356,0.002 0.349,0.001C0.343,0 0.338,-0.002 0.335,-0.004C0.332,-0.007 0.331,-0.011 0.331,-0.015L0.331,-0.05C0.313,-0.031 0.293,-0.016 0.27,-0.005C0.247,0.006 0.221,0.011 0.193,0.011C0.17,0.011 0.149,0.008 0.13,0.002C0.11,-0.004 0.094,-0.013 0.079,-0.025C0.065,-0.037 0.054,-0.051 0.046,-0.069C0.039,-0.086 0.035,-0.107 0.035,-0.13C0.035,-0.156 0.04,-0.178 0.05,-0.197C0.059,-0.215 0.074,-0.231 0.094,-0.243C0.114,-0.255 0.138,-0.264 0.167,-0.27C0.197,-0.276 0.231,-0.279 0.27,-0.279L0.312,-0.279L0.312,-0.305C0.312,-0.319 0.311,-0.331 0.308,-0.341C0.305,-0.351 0.301,-0.36 0.294,-0.367C0.288,-0.374 0.279,-0.379 0.269,-0.382C0.258,-0.385 0.245,-0.387 0.229,-0.387C0.209,-0.387 0.191,-0.384 0.175,-0.38C0.158,-0.375 0.144,-0.37 0.132,-0.365C0.119,-0.359 0.109,-0.354 0.101,-0.35C0.093,-0.345 0.086,-0.343 0.081,-0.343C0.077,-0.343 0.074,-0.344 0.071,-0.346C0.068,-0.348 0.066,-0.352 0.064,-0.356C0.062,-0.36 0.061,-0.365 0.06,-0.372C0.059,-0.378 0.059,-0.385 0.059,-0.392C0.059,-0.402 0.059,-0.41 0.061,-0.416C0.063,-0.422 0.066,-0.427 0.07,-0.432C0.075,-0.437 0.083,-0.442 0.094,-0.448C0.106,-0.453 0.119,-0.458 0.134,-0.463C0.15,-0.468 0.166,-0.472 0.184,-0.475C0.202,-0.478 0.221,-0.48 0.24,-0.48C0.274,-0.48 0.304,-0.477 0.328,-0.47C0.352,-0.463 0.372,-0.453 0.388,-0.439C0.403,-0.425 0.415,-0.408 0.422,-0.386C0.429,-0.364 0.433,-0.338 0.433,-0.308L0.433,-0.015ZM0.312,-0.202L0.265,-0.202C0.245,-0.202 0.228,-0.2 0.214,-0.197C0.2,-0.194 0.189,-0.19 0.18,-0.184C0.171,-0.178 0.165,-0.171 0.161,-0.163C0.157,-0.155 0.155,-0.145 0.155,-0.134C0.155,-0.116 0.161,-0.102 0.172,-0.091C0.184,-0.081 0.2,-0.076 0.22,-0.076C0.237,-0.076 0.253,-0.08 0.268,-0.089C0.282,-0.098 0.297,-0.111 0.312,-0.127L0.312,-0.202Z" style="fill:rgb(2,70,100);fill-rule:nonzero;"/>
                            </g>
                            <g transform="matrix(134.073,0,0,134.073,4741.46,3728.83)">
                                <path d="M0.185,-0.017C0.185,-0.013 0.184,-0.01 0.182,-0.008C0.18,-0.006 0.176,-0.004 0.172,-0.002C0.167,-0 0.161,0.001 0.153,0.002C0.145,0.003 0.135,0.003 0.123,0.003C0.111,0.003 0.101,0.003 0.093,0.002C0.085,0.001 0.079,-0 0.074,-0.002C0.07,-0.004 0.066,-0.006 0.064,-0.008C0.063,-0.01 0.062,-0.013 0.062,-0.017L0.062,-0.659C0.062,-0.662 0.063,-0.665 0.064,-0.667C0.066,-0.67 0.07,-0.672 0.074,-0.674C0.079,-0.676 0.085,-0.677 0.093,-0.678C0.101,-0.679 0.111,-0.68 0.123,-0.68C0.135,-0.68 0.145,-0.679 0.153,-0.678C0.161,-0.677 0.167,-0.676 0.172,-0.674C0.176,-0.672 0.18,-0.67 0.182,-0.667C0.184,-0.665 0.185,-0.662 0.185,-0.659L0.185,-0.017Z" style="fill:rgb(2,70,100);fill-rule:nonzero;"/>
                            </g>
                        </g>
                    </g>
                </g>
                <g transform="matrix(1,0,0,1,223.566,-1.52909e-11)">
                    <g>
                        <g transform="matrix(0.892542,0,0,1,92.9379,101.058)">
                            <g transform="matrix(1.75451e-17,0.961264,-0.722944,1.48509e-16,2703.81,-48155.2)">
                                <path d="M51782.4,3719.52C51782.4,3714.91 51772.9,3711.16 51761.3,3711.16L51652.8,3711.16C51641.1,3711.16 51631.7,3714.91 51631.7,3719.52L51631.7,3762.53C51631.7,3767.14 51641.1,3770.89 51652.8,3770.89L51761.3,3770.89C51772.9,3770.89 51782.4,3767.14 51782.4,3762.53L51782.4,3719.52Z" style="fill:rgb(2,70,100);"/>
                            </g>
                            <g transform="matrix(0.172726,0,0,0.579462,-103.925,-86.5796)">
                                <path d="M526.509,2768.77L579.776,2822.04L525.627,2876.19" style="fill:none;stroke:white;stroke-width:29.17px;"/>
                            </g>
                        </g>
                        <g transform="matrix(0.154165,0,0,0.579462,3.82613,14.4786)">
                            <path d="M579.776,2876.19L645.037,2876.19" style="fill:none;stroke:white;stroke-width:29.17px;"/>
                        </g>
                    </g>
                </g>
            </g>
        </g>
    </g>
</svg>
