<?xml version="1.0" encoding="UTF-8" standalone="no"?>
<!DOCTYPE svg PUBLIC "-//W3C//DTD SVG 1.1//EN" "http://www.w3.org/Graphics/SVG/1.1/DTD/svg11.dtd">
<svg width="100%" height="100%" viewBox="0 0 1100 250" version="1.1" xmlns="http://www.w3.org/2000/svg" xmlns:xlink="http://www.w3.org/1999/xlink" xml:space="preserve" xmlns:serif="http://www.serif.com/" style="fill-rule:evenodd;clip-rule:evenodd;stroke-linejoin:round;stroke-miterlimit:2;">
    <g transform="matrix(1,0,0,1,-813.531,-2389.04)">
        <g transform="matrix(6.59992,0,0,1.88002,0,0)">
            <g transform="matrix(0.877211,0,0,0.917935,101.186,0)">
                <g transform="matrix(0.169184,0,0,0.452248,0.419982,1027.4)">
                    <rect x="146.28" y="789.301" width="1123.03" height="320.323" style="fill:none;"/>
                </g>
                <g transform="matrix(1.21701,0,0,1.21701,-477.576,-299.461)">
                    <g transform="matrix(0.172726,0,0,0.579462,168.363,-11.876)">
                        <circle cx="1520.07" cy="2510.88" r="98.504" style="fill:white;"/>
                    </g>
                    <g transform="matrix(0.71969,0,0,2.41443,434.328,1486.79)">
                        <path d="M0,-36.203C-2.318,-36.203 -4.32,-34.307 -4.32,-31.989C-4.32,-29.828 -2.897,-28.405 -0.736,-28.405C1.634,-28.405 3.636,-30.196 3.636,-32.621C3.636,-34.781 2.108,-36.203 0,-36.203M-10.799,-22.98C-11.484,-22.295 -13.802,-20.083 -13.802,-19.135C-13.802,-18.818 -13.486,-18.449 -13.117,-18.449C-12.17,-18.449 -9.641,-23.032 -7.691,-23.032C-7.27,-23.032 -6.795,-22.557 -7.165,-21.611L-10.852,-12.338C-11.221,-11.441 -13.012,-7.122 -13.012,-4.594C-13.012,-2.592 -11.695,-1.697 -9.798,-1.697C-4.477,-1.697 1.686,-8.229 1.686,-9.758C1.686,-10.231 1.317,-10.547 1.055,-10.547C0.316,-10.547 -2.581,-6.068 -4.162,-6.068C-4.583,-6.068 -4.793,-6.438 -4.793,-6.807C-4.793,-7.648 -4.214,-8.967 -3.898,-9.758L-0.104,-20.029C1.792,-25.14 -0.632,-26.51 -2.897,-26.51C-5.952,-26.51 -8.692,-24.982 -10.799,-22.98M-4.737,6.549C-18.351,6.549 -29.388,-4.488 -29.388,-18.101C-29.388,-31.715 -18.351,-42.752 -4.737,-42.752C8.877,-42.752 19.913,-31.715 19.913,-18.101C19.913,-4.488 8.877,6.549 -4.737,6.549" style="fill:rgb(2,70,100);"/>
                    </g>
                </g>
                <g transform="matrix(0.118094,0,0,0.396183,-421.329,-4.34985)">
                    <g transform="matrix(134.073,0,0,134.073,4291.39,3728.83)">
                        <path d="M0.586,-0.048C0.59,-0.036 0.593,-0.027 0.594,-0.02C0.595,-0.013 0.593,-0.008 0.59,-0.005C0.586,-0.001 0.58,0.001 0.571,0.002C0.562,0.003 0.549,0.003 0.533,0.003C0.517,0.003 0.504,0.003 0.494,0.002C0.485,0.002 0.478,0.001 0.473,-0.001C0.468,-0.002 0.465,-0.004 0.463,-0.007C0.461,-0.009 0.459,-0.013 0.458,-0.017L0.416,-0.144L0.178,-0.144L0.138,-0.021C0.137,-0.016 0.135,-0.012 0.133,-0.009C0.131,-0.006 0.128,-0.003 0.123,-0.002C0.118,0 0.111,0.001 0.103,0.002C0.094,0.003 0.083,0.003 0.069,0.003C0.054,0.003 0.042,0.002 0.034,0.001C0.025,0 0.019,-0.002 0.016,-0.006C0.013,-0.009 0.012,-0.015 0.013,-0.021C0.014,-0.028 0.016,-0.037 0.02,-0.049L0.215,-0.609C0.217,-0.615 0.219,-0.619 0.222,-0.623C0.224,-0.626 0.228,-0.629 0.234,-0.631C0.24,-0.632 0.248,-0.634 0.258,-0.634C0.268,-0.635 0.281,-0.635 0.298,-0.635C0.317,-0.635 0.332,-0.635 0.344,-0.634C0.355,-0.634 0.364,-0.632 0.37,-0.631C0.377,-0.629 0.381,-0.626 0.384,-0.623C0.387,-0.619 0.389,-0.614 0.391,-0.608L0.586,-0.048ZM0.296,-0.511L0.296,-0.511L0.207,-0.243L0.386,-0.243L0.296,-0.511Z" style="fill:rgb(2,70,100);fill-rule:nonzero;"/>
                    </g>
                    <g transform="matrix(134.073,0,0,134.073,4372.63,3728.83)">
                        <path d="M0.5,-0.24C0.5,-0.201 0.496,-0.167 0.487,-0.136C0.479,-0.105 0.467,-0.078 0.451,-0.057C0.435,-0.035 0.415,-0.018 0.392,-0.006C0.369,0.005 0.342,0.011 0.313,0.011C0.298,0.011 0.284,0.01 0.271,0.007C0.259,0.004 0.247,-0 0.235,-0.006C0.224,-0.013 0.212,-0.02 0.201,-0.03C0.19,-0.039 0.178,-0.051 0.167,-0.064L0.167,-0.017C0.167,-0.013 0.166,-0.01 0.164,-0.008C0.162,-0.005 0.159,-0.003 0.155,-0.001C0.151,0 0.146,0.001 0.139,0.002C0.132,0.003 0.124,0.003 0.114,0.003C0.104,0.003 0.095,0.003 0.089,0.002C0.082,0.001 0.077,0 0.073,-0.001C0.068,-0.003 0.066,-0.005 0.064,-0.008C0.062,-0.01 0.062,-0.013 0.062,-0.017L0.062,-0.659C0.062,-0.662 0.063,-0.665 0.064,-0.667C0.066,-0.67 0.07,-0.672 0.074,-0.674C0.079,-0.676 0.085,-0.677 0.093,-0.678C0.101,-0.679 0.111,-0.68 0.123,-0.68C0.135,-0.68 0.145,-0.679 0.153,-0.678C0.161,-0.677 0.167,-0.676 0.172,-0.674C0.176,-0.672 0.18,-0.67 0.182,-0.667C0.184,-0.665 0.185,-0.662 0.185,-0.659L0.185,-0.418C0.196,-0.429 0.207,-0.438 0.218,-0.446C0.229,-0.454 0.24,-0.461 0.251,-0.466C0.262,-0.471 0.273,-0.474 0.285,-0.477C0.297,-0.479 0.309,-0.48 0.322,-0.48C0.354,-0.48 0.382,-0.474 0.404,-0.461C0.427,-0.448 0.445,-0.431 0.459,-0.409C0.473,-0.387 0.484,-0.361 0.49,-0.332C0.497,-0.303 0.5,-0.272 0.5,-0.24ZM0.373,-0.231C0.373,-0.25 0.371,-0.268 0.368,-0.285C0.366,-0.302 0.361,-0.318 0.354,-0.331C0.347,-0.344 0.338,-0.355 0.327,-0.363C0.316,-0.371 0.303,-0.375 0.286,-0.375C0.278,-0.375 0.27,-0.374 0.262,-0.372C0.254,-0.369 0.246,-0.365 0.238,-0.36C0.23,-0.354 0.221,-0.347 0.212,-0.338C0.204,-0.33 0.194,-0.319 0.185,-0.306L0.185,-0.161C0.202,-0.139 0.218,-0.122 0.234,-0.111C0.25,-0.099 0.266,-0.093 0.284,-0.093C0.3,-0.093 0.313,-0.097 0.324,-0.105C0.335,-0.114 0.344,-0.124 0.352,-0.137C0.359,-0.15 0.364,-0.165 0.368,-0.182C0.371,-0.198 0.373,-0.215 0.373,-0.231Z" style="fill:rgb(2,70,100);fill-rule:nonzero;"/>
                    </g>
                    <g transform="matrix(134.073,0,0,134.073,4444.58,3728.83)">
                        <path d="M0.502,-0.239C0.502,-0.202 0.497,-0.168 0.487,-0.137C0.478,-0.107 0.463,-0.08 0.443,-0.058C0.423,-0.036 0.398,-0.019 0.368,-0.007C0.338,0.005 0.303,0.011 0.263,0.011C0.224,0.011 0.191,0.006 0.162,-0.005C0.133,-0.016 0.11,-0.031 0.091,-0.052C0.072,-0.072 0.058,-0.097 0.049,-0.127C0.04,-0.157 0.035,-0.192 0.035,-0.23C0.035,-0.267 0.04,-0.301 0.05,-0.332C0.06,-0.363 0.075,-0.389 0.095,-0.411C0.115,-0.433 0.139,-0.45 0.169,-0.462C0.199,-0.474 0.234,-0.48 0.274,-0.48C0.313,-0.48 0.347,-0.475 0.375,-0.464C0.404,-0.454 0.428,-0.438 0.447,-0.417C0.465,-0.397 0.479,-0.372 0.488,-0.342C0.497,-0.312 0.502,-0.278 0.502,-0.239ZM0.375,-0.234C0.375,-0.255 0.374,-0.275 0.37,-0.293C0.367,-0.311 0.361,-0.327 0.353,-0.34C0.345,-0.354 0.334,-0.364 0.321,-0.372C0.307,-0.379 0.29,-0.383 0.27,-0.383C0.251,-0.383 0.235,-0.379 0.222,-0.373C0.208,-0.366 0.197,-0.356 0.188,-0.344C0.179,-0.331 0.173,-0.315 0.168,-0.297C0.164,-0.279 0.162,-0.258 0.162,-0.235C0.162,-0.214 0.163,-0.194 0.167,-0.176C0.171,-0.158 0.176,-0.142 0.184,-0.129C0.192,-0.116 0.203,-0.105 0.217,-0.098C0.23,-0.091 0.247,-0.087 0.268,-0.087C0.286,-0.087 0.302,-0.09 0.316,-0.097C0.33,-0.104 0.341,-0.113 0.35,-0.126C0.358,-0.139 0.365,-0.154 0.369,-0.172C0.373,-0.19 0.375,-0.211 0.375,-0.234Z" style="fill:rgb(2,70,100);fill-rule:nonzero;"/>
                    </g>
                    <g transform="matrix(134.073,0,0,134.073,4516.66,3728.83)">
                        <path d="M0.475,-0.017C0.475,-0.013 0.474,-0.01 0.472,-0.008C0.471,-0.006 0.468,-0.004 0.464,-0.002C0.46,-0 0.454,0.001 0.448,0.002C0.441,0.003 0.432,0.003 0.422,0.003C0.412,0.003 0.403,0.003 0.396,0.002C0.39,0.001 0.384,-0 0.38,-0.002C0.376,-0.004 0.374,-0.006 0.372,-0.008C0.37,-0.01 0.37,-0.013 0.37,-0.017L0.37,-0.067C0.346,-0.041 0.321,-0.021 0.296,-0.008C0.271,0.005 0.245,0.011 0.219,0.011C0.189,0.011 0.164,0.006 0.143,-0.003C0.123,-0.013 0.107,-0.027 0.094,-0.043C0.081,-0.06 0.073,-0.08 0.067,-0.102C0.062,-0.125 0.059,-0.152 0.059,-0.186L0.059,-0.452C0.059,-0.455 0.06,-0.458 0.062,-0.461C0.064,-0.463 0.067,-0.465 0.072,-0.467C0.076,-0.468 0.083,-0.47 0.091,-0.47C0.099,-0.471 0.108,-0.472 0.12,-0.472C0.132,-0.472 0.142,-0.471 0.15,-0.47C0.158,-0.47 0.164,-0.468 0.169,-0.467C0.173,-0.465 0.177,-0.463 0.179,-0.461C0.181,-0.458 0.182,-0.455 0.182,-0.452L0.182,-0.206C0.182,-0.183 0.183,-0.166 0.186,-0.154C0.189,-0.142 0.193,-0.131 0.199,-0.123C0.205,-0.114 0.213,-0.108 0.222,-0.103C0.232,-0.098 0.243,-0.096 0.255,-0.096C0.271,-0.096 0.286,-0.101 0.302,-0.113C0.318,-0.124 0.335,-0.141 0.353,-0.163L0.353,-0.452C0.353,-0.455 0.353,-0.458 0.355,-0.461C0.357,-0.463 0.36,-0.465 0.365,-0.467C0.37,-0.468 0.376,-0.47 0.384,-0.47C0.392,-0.471 0.402,-0.472 0.414,-0.472C0.426,-0.472 0.436,-0.471 0.443,-0.47C0.451,-0.47 0.457,-0.468 0.462,-0.467C0.466,-0.465 0.47,-0.463 0.472,-0.461C0.474,-0.458 0.475,-0.455 0.475,-0.452L0.475,-0.017Z" style="fill:rgb(2,70,100);fill-rule:nonzero;"/>
                    </g>
                    <g transform="matrix(134.073,0,0,134.073,4588.6,3728.83)">
                        <path d="M0.319,-0.06C0.319,-0.045 0.318,-0.034 0.317,-0.027C0.315,-0.019 0.313,-0.014 0.31,-0.01C0.307,-0.007 0.302,-0.005 0.297,-0.002C0.291,0 0.284,0.002 0.277,0.004C0.269,0.006 0.261,0.007 0.252,0.008C0.243,0.009 0.234,0.01 0.225,0.01C0.2,0.01 0.179,0.007 0.161,0C0.143,-0.006 0.128,-0.015 0.117,-0.028C0.105,-0.041 0.096,-0.057 0.091,-0.077C0.085,-0.096 0.083,-0.119 0.083,-0.146L0.083,-0.369L0.03,-0.369C0.024,-0.369 0.019,-0.373 0.016,-0.381C0.013,-0.388 0.011,-0.401 0.011,-0.419C0.011,-0.428 0.012,-0.436 0.012,-0.443C0.013,-0.449 0.014,-0.455 0.016,-0.458C0.018,-0.462 0.02,-0.465 0.022,-0.466C0.025,-0.468 0.028,-0.469 0.031,-0.469L0.083,-0.469L0.083,-0.566C0.083,-0.569 0.083,-0.572 0.085,-0.575C0.087,-0.577 0.09,-0.58 0.095,-0.581C0.1,-0.583 0.106,-0.584 0.114,-0.585C0.122,-0.586 0.132,-0.586 0.144,-0.586C0.156,-0.586 0.166,-0.586 0.174,-0.585C0.182,-0.584 0.188,-0.583 0.192,-0.581C0.197,-0.58 0.2,-0.577 0.202,-0.575C0.204,-0.572 0.205,-0.569 0.205,-0.566L0.205,-0.469L0.3,-0.469C0.303,-0.469 0.306,-0.468 0.308,-0.466C0.311,-0.465 0.313,-0.462 0.314,-0.458C0.316,-0.455 0.317,-0.449 0.318,-0.443C0.319,-0.436 0.319,-0.428 0.319,-0.419C0.319,-0.401 0.318,-0.388 0.314,-0.381C0.311,-0.373 0.306,-0.369 0.3,-0.369L0.205,-0.369L0.205,-0.165C0.205,-0.141 0.209,-0.123 0.216,-0.111C0.224,-0.099 0.237,-0.093 0.256,-0.093C0.263,-0.093 0.269,-0.094 0.274,-0.095C0.279,-0.096 0.284,-0.097 0.288,-0.099C0.292,-0.1 0.295,-0.102 0.298,-0.103C0.301,-0.104 0.303,-0.104 0.306,-0.104C0.308,-0.104 0.309,-0.104 0.311,-0.103C0.313,-0.102 0.314,-0.099 0.315,-0.096C0.316,-0.093 0.317,-0.088 0.318,-0.082C0.319,-0.076 0.319,-0.069 0.319,-0.06Z" style="fill:rgb(2,70,100);fill-rule:nonzero;"/>
                    </g>
                </g>
            </g>
        </g>
    </g>
</svg>
