<?xml version="1.0" encoding="UTF-8" standalone="no"?>
<!DOCTYPE svg PUBLIC "-//W3C//DTD SVG 1.1//EN" "http://www.w3.org/Graphics/SVG/1.1/DTD/svg11.dtd">
<svg width="100%" height="100%" viewBox="0 0 1100 250" version="1.1" xmlns="http://www.w3.org/2000/svg" xmlns:xlink="http://www.w3.org/1999/xlink" xml:space="preserve" xmlns:serif="http://www.serif.com/" style="fill-rule:evenodd;clip-rule:evenodd;stroke-linejoin:round;stroke-miterlimit:2;">
    <g transform="matrix(1,0,0,1,-532.235,-3167.37)">
        <g transform="matrix(5.94133,0,0,1.88002,0,0)">
            <g transform="matrix(0.97445,0,0,0.917935,65.0567,1495.9)">
                <g transform="matrix(0.169184,0,0,0.452248,0.419982,-151.226)">
                    <rect x="146.28" y="789.301" width="1123.03" height="320.323" style="fill:none;"/>
                </g>
                <g id="menu" transform="matrix(0.862352,0,0,2.95192,67.0145,244.404)">
                    <path d="M0,22.875L-28.862,22.875C-29.78,22.875 -30.525,23.619 -30.525,24.537L-30.525,34.313C-30.525,35.23 -29.78,35.975 -28.862,35.975L0,35.975C0.918,35.975 1.662,35.23 1.662,34.313L1.662,24.537C1.662,23.619 0.918,22.875 0,22.875M0,4.987L-28.862,4.987C-29.78,4.987 -30.525,5.731 -30.525,6.65L-30.525,16.225C-30.525,17.144 -29.78,17.888 -28.862,17.888L0,17.888C0.918,17.888 1.662,17.144 1.662,16.225L1.662,6.65C1.662,5.731 0.918,4.987 0,4.987M0,-13.1L-28.862,-13.1C-29.78,-13.1 -30.525,-12.355 -30.525,-11.438L-30.525,-1.662C-30.525,-0.744 -29.78,0 -28.862,0L0,0C0.918,0 1.662,-0.744 1.662,-1.662L1.662,-11.438C1.662,-12.355 0.918,-13.1 0,-13.1M-36.775,22.875L-46.75,22.875C-47.668,22.875 -48.412,23.619 -48.412,24.537L-48.412,34.313C-48.412,35.23 -47.668,35.975 -46.75,35.975L-36.775,35.975C-35.856,35.975 -35.112,35.23 -35.112,34.313L-35.112,24.537C-35.112,23.619 -35.856,22.875 -36.775,22.875M-36.775,4.987L-46.75,4.987C-47.668,4.987 -48.412,5.731 -48.412,6.65L-48.412,16.225C-48.412,17.144 -47.668,17.888 -46.75,17.888L-36.775,17.888C-35.856,17.888 -35.112,17.144 -35.112,16.225L-35.112,6.65C-35.112,5.731 -35.856,4.987 -36.775,4.987M-36.775,-13.1L-46.75,-13.1C-47.668,-13.1 -48.412,-12.355 -48.412,-11.438L-48.412,-1.662C-48.412,-0.744 -47.668,0 -46.75,0L-36.775,0C-35.856,0 -35.112,-0.744 -35.112,-1.662L-35.112,-11.438C-35.112,-12.355 -35.856,-13.1 -36.775,-13.1" style="fill:rgb(73,130,243);"/>
                </g>
                <g transform="matrix(0.118094,0,0,0.396183,-422.468,-1182.74)">
                    <g transform="matrix(170.638,0,0,170.638,4291.39,3728.83)">
                        <path d="M0.805,-0.018C0.805,-0.014 0.804,-0.011 0.802,-0.009C0.801,-0.006 0.797,-0.004 0.793,-0.002C0.788,-0.001 0.782,0 0.774,0.001C0.766,0.002 0.756,0.003 0.744,0.003C0.732,0.003 0.723,0.002 0.715,0.001C0.707,0 0.701,-0.001 0.696,-0.002C0.692,-0.004 0.688,-0.006 0.687,-0.009C0.685,-0.011 0.684,-0.014 0.684,-0.018L0.684,-0.532L0.683,-0.532L0.5,-0.018C0.498,-0.014 0.496,-0.01 0.493,-0.008C0.49,-0.005 0.486,-0.003 0.481,-0.001C0.476,0.001 0.47,0.002 0.462,0.002C0.454,0.003 0.445,0.003 0.434,0.003C0.423,0.003 0.413,0.003 0.405,0.002C0.397,0.001 0.391,-0 0.386,-0.002C0.381,-0.004 0.377,-0.006 0.374,-0.009C0.371,-0.011 0.369,-0.014 0.368,-0.018L0.191,-0.532L0.19,-0.532L0.19,-0.018C0.19,-0.014 0.19,-0.011 0.188,-0.009C0.186,-0.006 0.183,-0.004 0.178,-0.002C0.173,-0.001 0.167,0 0.159,0.001C0.151,0.002 0.141,0.003 0.129,0.003C0.118,0.003 0.108,0.002 0.1,0.001C0.092,0 0.086,-0.001 0.081,-0.002C0.077,-0.004 0.073,-0.006 0.072,-0.009C0.07,-0.011 0.069,-0.014 0.069,-0.018L0.069,-0.581C0.069,-0.597 0.073,-0.61 0.082,-0.619C0.091,-0.627 0.103,-0.632 0.117,-0.632L0.201,-0.632C0.216,-0.632 0.229,-0.631 0.24,-0.628C0.25,-0.626 0.26,-0.622 0.268,-0.616C0.275,-0.61 0.282,-0.603 0.287,-0.594C0.292,-0.584 0.297,-0.573 0.301,-0.559L0.438,-0.183L0.439,-0.183L0.581,-0.558C0.585,-0.572 0.59,-0.583 0.595,-0.593C0.6,-0.602 0.606,-0.61 0.613,-0.616C0.619,-0.622 0.627,-0.626 0.636,-0.628C0.645,-0.631 0.656,-0.632 0.668,-0.632L0.754,-0.632C0.763,-0.632 0.771,-0.631 0.777,-0.628C0.783,-0.626 0.789,-0.623 0.793,-0.618C0.797,-0.614 0.8,-0.609 0.802,-0.602C0.804,-0.596 0.805,-0.589 0.805,-0.581L0.805,-0.018Z" style="fill:rgb(73,130,243);fill-rule:nonzero;"/>
                    </g>
                    <g transform="matrix(170.638,0,0,170.638,4440.53,3728.83)">
                        <path d="M0.464,-0.247C0.464,-0.232 0.461,-0.221 0.454,-0.214C0.447,-0.207 0.438,-0.203 0.426,-0.203L0.161,-0.203C0.161,-0.185 0.163,-0.168 0.168,-0.153C0.172,-0.137 0.179,-0.125 0.189,-0.114C0.198,-0.103 0.211,-0.095 0.226,-0.09C0.241,-0.084 0.259,-0.082 0.28,-0.082C0.302,-0.082 0.321,-0.083 0.337,-0.086C0.353,-0.089 0.367,-0.093 0.379,-0.096C0.391,-0.1 0.401,-0.104 0.409,-0.107C0.417,-0.11 0.423,-0.111 0.428,-0.111C0.431,-0.111 0.433,-0.111 0.435,-0.11C0.437,-0.108 0.439,-0.106 0.44,-0.104C0.441,-0.101 0.442,-0.096 0.443,-0.091C0.443,-0.086 0.443,-0.079 0.443,-0.071C0.443,-0.064 0.443,-0.058 0.443,-0.052C0.443,-0.047 0.442,-0.043 0.441,-0.04C0.441,-0.036 0.44,-0.033 0.438,-0.031C0.437,-0.028 0.435,-0.026 0.433,-0.023C0.431,-0.021 0.425,-0.018 0.416,-0.014C0.407,-0.01 0.395,-0.006 0.38,-0.003C0.365,0.001 0.348,0.004 0.33,0.007C0.311,0.01 0.291,0.011 0.269,0.011C0.23,0.011 0.196,0.006 0.167,-0.003C0.138,-0.013 0.114,-0.028 0.094,-0.048C0.075,-0.068 0.06,-0.093 0.051,-0.123C0.041,-0.153 0.036,-0.189 0.036,-0.229C0.036,-0.268 0.041,-0.303 0.051,-0.334C0.061,-0.365 0.076,-0.392 0.095,-0.413C0.114,-0.435 0.138,-0.451 0.165,-0.463C0.193,-0.474 0.224,-0.48 0.258,-0.48C0.295,-0.48 0.326,-0.475 0.352,-0.464C0.378,-0.453 0.399,-0.438 0.416,-0.419C0.432,-0.4 0.444,-0.378 0.452,-0.352C0.46,-0.326 0.464,-0.297 0.464,-0.267L0.464,-0.247ZM0.345,-0.282C0.346,-0.317 0.339,-0.344 0.324,-0.364C0.309,-0.383 0.286,-0.393 0.255,-0.393C0.24,-0.393 0.226,-0.39 0.215,-0.384C0.203,-0.378 0.193,-0.371 0.186,-0.361C0.178,-0.351 0.172,-0.339 0.168,-0.325C0.164,-0.312 0.162,-0.298 0.161,-0.282L0.345,-0.282Z" style="fill:rgb(73,130,243);fill-rule:nonzero;"/>
                    </g>
                    <g transform="matrix(170.638,0,0,170.638,4526.43,3728.83)">
                        <path d="M0.478,-0.017C0.478,-0.013 0.477,-0.01 0.475,-0.008C0.473,-0.006 0.469,-0.004 0.465,-0.002C0.46,-0 0.454,0.001 0.446,0.002C0.438,0.003 0.428,0.003 0.417,0.003C0.404,0.003 0.394,0.003 0.386,0.002C0.378,0.001 0.372,-0 0.368,-0.002C0.363,-0.004 0.36,-0.006 0.358,-0.008C0.356,-0.01 0.355,-0.013 0.355,-0.017L0.355,-0.265C0.355,-0.286 0.353,-0.303 0.35,-0.315C0.347,-0.327 0.343,-0.337 0.337,-0.346C0.331,-0.355 0.323,-0.361 0.314,-0.366C0.305,-0.371 0.294,-0.373 0.282,-0.373C0.266,-0.373 0.25,-0.367 0.234,-0.356C0.218,-0.345 0.202,-0.328 0.185,-0.306L0.185,-0.017C0.185,-0.013 0.184,-0.01 0.182,-0.008C0.18,-0.006 0.176,-0.004 0.172,-0.002C0.167,-0 0.161,0.001 0.153,0.002C0.145,0.003 0.135,0.003 0.123,0.003C0.111,0.003 0.101,0.003 0.093,0.002C0.085,0.001 0.079,-0 0.074,-0.002C0.07,-0.004 0.066,-0.006 0.064,-0.008C0.063,-0.01 0.062,-0.013 0.062,-0.017L0.062,-0.452C0.062,-0.455 0.062,-0.458 0.064,-0.461C0.066,-0.463 0.069,-0.465 0.073,-0.467C0.077,-0.468 0.082,-0.47 0.089,-0.47C0.096,-0.471 0.104,-0.472 0.114,-0.472C0.125,-0.472 0.133,-0.471 0.14,-0.47C0.147,-0.47 0.152,-0.468 0.156,-0.467C0.16,-0.465 0.162,-0.463 0.164,-0.461C0.166,-0.458 0.167,-0.455 0.167,-0.452L0.167,-0.402C0.191,-0.428 0.215,-0.447 0.24,-0.46C0.265,-0.473 0.291,-0.48 0.318,-0.48C0.347,-0.48 0.372,-0.475 0.393,-0.465C0.413,-0.456 0.43,-0.442 0.442,-0.426C0.455,-0.409 0.464,-0.389 0.469,-0.367C0.475,-0.344 0.478,-0.317 0.478,-0.286L0.478,-0.017Z" style="fill:rgb(73,130,243);fill-rule:nonzero;"/>
                    </g>
                    <g transform="matrix(170.638,0,0,170.638,4618,3728.83)">
                        <path d="M0.475,-0.017C0.475,-0.013 0.474,-0.01 0.472,-0.008C0.471,-0.006 0.468,-0.004 0.464,-0.002C0.46,-0 0.454,0.001 0.448,0.002C0.441,0.003 0.432,0.003 0.422,0.003C0.412,0.003 0.403,0.003 0.396,0.002C0.39,0.001 0.384,-0 0.38,-0.002C0.376,-0.004 0.374,-0.006 0.372,-0.008C0.37,-0.01 0.37,-0.013 0.37,-0.017L0.37,-0.067C0.346,-0.041 0.321,-0.021 0.296,-0.008C0.271,0.005 0.245,0.011 0.219,0.011C0.189,0.011 0.164,0.006 0.143,-0.003C0.123,-0.013 0.107,-0.027 0.094,-0.043C0.081,-0.06 0.073,-0.08 0.067,-0.102C0.062,-0.125 0.059,-0.152 0.059,-0.186L0.059,-0.452C0.059,-0.455 0.06,-0.458 0.062,-0.461C0.064,-0.463 0.067,-0.465 0.072,-0.467C0.076,-0.468 0.083,-0.47 0.091,-0.47C0.099,-0.471 0.108,-0.472 0.12,-0.472C0.132,-0.472 0.142,-0.471 0.15,-0.47C0.158,-0.47 0.164,-0.468 0.169,-0.467C0.173,-0.465 0.177,-0.463 0.179,-0.461C0.181,-0.458 0.182,-0.455 0.182,-0.452L0.182,-0.206C0.182,-0.183 0.183,-0.166 0.186,-0.154C0.189,-0.142 0.193,-0.131 0.199,-0.123C0.205,-0.114 0.213,-0.108 0.222,-0.103C0.232,-0.098 0.243,-0.096 0.255,-0.096C0.271,-0.096 0.286,-0.101 0.302,-0.113C0.318,-0.124 0.335,-0.141 0.353,-0.163L0.353,-0.452C0.353,-0.455 0.353,-0.458 0.355,-0.461C0.357,-0.463 0.36,-0.465 0.365,-0.467C0.37,-0.468 0.376,-0.47 0.384,-0.47C0.392,-0.471 0.402,-0.472 0.414,-0.472C0.426,-0.472 0.436,-0.471 0.443,-0.47C0.451,-0.47 0.457,-0.468 0.462,-0.467C0.466,-0.465 0.47,-0.463 0.472,-0.461C0.474,-0.458 0.475,-0.455 0.475,-0.452L0.475,-0.017Z" style="fill:rgb(73,130,243);fill-rule:nonzero;"/>
                    </g>
                </g>
            </g>
        </g>
    </g>
</svg>
