<?xml version="1.0" encoding="UTF-8" standalone="no"?>
<!DOCTYPE svg PUBLIC "-//W3C//DTD SVG 1.1//EN" "http://www.w3.org/Graphics/SVG/1.1/DTD/svg11.dtd">
<svg width="100%" height="100%" viewBox="0 0 1100 250" version="1.1" xmlns="http://www.w3.org/2000/svg" xmlns:xlink="http://www.w3.org/1999/xlink" xml:space="preserve" xmlns:serif="http://www.serif.com/" style="fill-rule:evenodd;clip-rule:evenodd;stroke-linejoin:round;stroke-miterlimit:2;">
    <g transform="matrix(1,0,0,1,-2211.65,-3504.64)">
        <g transform="matrix(6.59992,0,0,1.88002,0,0)">
            <g transform="matrix(0.877211,0,0,0.917935,312.939,1495.9)">
                <g transform="matrix(0.169184,0,0,0.449144,0.518085,46.66)">
                    <rect x="146.28" y="789.301" width="1123.03" height="320.323" style="fill:none;"/>
                </g>
                <g transform="matrix(0.169184,0,0,0.449144,0.518085,47.6542)">
                    <rect x="146.28" y="789.301" width="1123.03" height="320.323" style="fill:none;"/>
                </g>
                <g transform="matrix(0.118094,0,0,0.393464,-422.468,-977.778)">
                    <g transform="matrix(170.638,0,0,170.638,4291.39,3728.83)">
                        <path d="M0.368,-0.14C0.368,-0.115 0.364,-0.093 0.354,-0.074C0.345,-0.055 0.332,-0.04 0.315,-0.027C0.298,-0.014 0.278,-0.005 0.255,0.002C0.232,0.008 0.207,0.011 0.18,0.011C0.163,0.011 0.148,0.01 0.133,0.008C0.118,0.005 0.105,0.002 0.093,-0.002C0.082,-0.005 0.072,-0.009 0.064,-0.013C0.056,-0.017 0.05,-0.021 0.047,-0.024C0.043,-0.028 0.041,-0.033 0.039,-0.04C0.037,-0.048 0.036,-0.058 0.036,-0.073C0.036,-0.082 0.036,-0.09 0.037,-0.095C0.037,-0.101 0.038,-0.106 0.04,-0.109C0.041,-0.113 0.042,-0.115 0.044,-0.116C0.046,-0.117 0.049,-0.118 0.052,-0.118C0.055,-0.118 0.061,-0.116 0.068,-0.112C0.075,-0.108 0.083,-0.103 0.094,-0.098C0.104,-0.093 0.116,-0.089 0.13,-0.084C0.144,-0.08 0.16,-0.078 0.177,-0.078C0.188,-0.078 0.198,-0.079 0.207,-0.082C0.215,-0.084 0.223,-0.087 0.229,-0.091C0.236,-0.096 0.24,-0.101 0.244,-0.107C0.247,-0.114 0.249,-0.121 0.249,-0.13C0.249,-0.14 0.246,-0.148 0.24,-0.155C0.233,-0.162 0.226,-0.168 0.216,-0.173C0.206,-0.179 0.194,-0.183 0.182,-0.188C0.169,-0.193 0.156,-0.198 0.143,-0.203C0.13,-0.209 0.117,-0.215 0.105,-0.222C0.092,-0.229 0.081,-0.238 0.071,-0.249C0.061,-0.259 0.053,-0.271 0.047,-0.286C0.041,-0.301 0.038,-0.318 0.038,-0.339C0.038,-0.36 0.042,-0.379 0.05,-0.396C0.058,-0.414 0.07,-0.429 0.085,-0.441C0.101,-0.453 0.119,-0.463 0.141,-0.47C0.163,-0.477 0.188,-0.48 0.215,-0.48C0.229,-0.48 0.242,-0.479 0.255,-0.477C0.268,-0.475 0.28,-0.473 0.29,-0.47C0.3,-0.467 0.309,-0.464 0.316,-0.46C0.324,-0.457 0.329,-0.454 0.332,-0.451C0.335,-0.449 0.337,-0.447 0.338,-0.444C0.34,-0.442 0.341,-0.439 0.341,-0.435C0.342,-0.432 0.343,-0.428 0.343,-0.423C0.344,-0.418 0.344,-0.411 0.344,-0.404C0.344,-0.395 0.344,-0.388 0.343,-0.382C0.343,-0.377 0.342,-0.372 0.341,-0.369C0.339,-0.366 0.338,-0.364 0.336,-0.363C0.334,-0.361 0.332,-0.361 0.329,-0.361C0.326,-0.361 0.322,-0.363 0.315,-0.366C0.309,-0.369 0.302,-0.373 0.292,-0.377C0.283,-0.381 0.272,-0.385 0.26,-0.388C0.248,-0.391 0.234,-0.393 0.218,-0.393C0.207,-0.393 0.198,-0.392 0.189,-0.39C0.181,-0.387 0.175,-0.384 0.169,-0.38C0.164,-0.376 0.16,-0.371 0.158,-0.365C0.155,-0.359 0.154,-0.353 0.154,-0.347C0.154,-0.337 0.157,-0.328 0.163,-0.321C0.169,-0.314 0.177,-0.308 0.188,-0.303C0.198,-0.298 0.209,-0.293 0.222,-0.289C0.235,-0.284 0.248,-0.279 0.261,-0.274C0.274,-0.268 0.287,-0.262 0.3,-0.255C0.313,-0.248 0.324,-0.239 0.334,-0.229C0.345,-0.218 0.353,-0.206 0.359,-0.191C0.365,-0.177 0.368,-0.16 0.368,-0.14Z" style="fill:rgb(73,130,243);fill-rule:nonzero;"/>
                    </g>
                    <g transform="matrix(170.638,0,0,170.638,4359.46,3728.83)">
                        <path d="M0.464,-0.247C0.464,-0.232 0.461,-0.221 0.454,-0.214C0.447,-0.207 0.438,-0.203 0.426,-0.203L0.161,-0.203C0.161,-0.185 0.163,-0.168 0.168,-0.153C0.172,-0.137 0.179,-0.125 0.189,-0.114C0.198,-0.103 0.211,-0.095 0.226,-0.09C0.241,-0.084 0.259,-0.082 0.28,-0.082C0.302,-0.082 0.321,-0.083 0.337,-0.086C0.353,-0.089 0.367,-0.093 0.379,-0.096C0.391,-0.1 0.401,-0.104 0.409,-0.107C0.417,-0.11 0.423,-0.111 0.428,-0.111C0.431,-0.111 0.433,-0.111 0.435,-0.11C0.437,-0.108 0.439,-0.106 0.44,-0.104C0.441,-0.101 0.442,-0.096 0.443,-0.091C0.443,-0.086 0.443,-0.079 0.443,-0.071C0.443,-0.064 0.443,-0.058 0.443,-0.052C0.443,-0.047 0.442,-0.043 0.441,-0.04C0.441,-0.036 0.44,-0.033 0.438,-0.031C0.437,-0.028 0.435,-0.026 0.433,-0.023C0.431,-0.021 0.425,-0.018 0.416,-0.014C0.407,-0.01 0.395,-0.006 0.38,-0.003C0.365,0.001 0.348,0.004 0.33,0.007C0.311,0.01 0.291,0.011 0.269,0.011C0.23,0.011 0.196,0.006 0.167,-0.003C0.138,-0.013 0.114,-0.028 0.094,-0.048C0.075,-0.068 0.06,-0.093 0.051,-0.123C0.041,-0.153 0.036,-0.189 0.036,-0.229C0.036,-0.268 0.041,-0.303 0.051,-0.334C0.061,-0.365 0.076,-0.392 0.095,-0.413C0.114,-0.435 0.138,-0.451 0.165,-0.463C0.193,-0.474 0.224,-0.48 0.258,-0.48C0.295,-0.48 0.326,-0.475 0.352,-0.464C0.378,-0.453 0.399,-0.438 0.416,-0.419C0.432,-0.4 0.444,-0.378 0.452,-0.352C0.46,-0.326 0.464,-0.297 0.464,-0.267L0.464,-0.247ZM0.345,-0.282C0.346,-0.317 0.339,-0.344 0.324,-0.364C0.309,-0.383 0.286,-0.393 0.255,-0.393C0.24,-0.393 0.226,-0.39 0.215,-0.384C0.203,-0.378 0.193,-0.371 0.186,-0.361C0.178,-0.351 0.172,-0.339 0.168,-0.325C0.164,-0.312 0.162,-0.298 0.161,-0.282L0.345,-0.282Z" style="fill:rgb(73,130,243);fill-rule:nonzero;"/>
                    </g>
                    <g transform="matrix(170.638,0,0,170.638,4444.2,3728.83)">
                        <path d="M0.205,-0.369L0.205,-0.165C0.205,-0.141 0.209,-0.123 0.216,-0.111C0.224,-0.099 0.237,-0.093 0.256,-0.093C0.263,-0.093 0.269,-0.094 0.274,-0.095C0.279,-0.096 0.284,-0.097 0.288,-0.099C0.292,-0.1 0.295,-0.102 0.298,-0.103C0.301,-0.104 0.303,-0.104 0.306,-0.104C0.308,-0.104 0.309,-0.104 0.311,-0.103C0.313,-0.102 0.314,-0.099 0.315,-0.096C0.316,-0.093 0.317,-0.088 0.318,-0.082C0.319,-0.076 0.319,-0.069 0.319,-0.06C0.319,-0.045 0.318,-0.034 0.317,-0.026C0.315,-0.019 0.312,-0.013 0.309,-0.01C0.306,-0.007 0.302,-0.005 0.296,-0.002C0.291,0 0.284,0.002 0.277,0.004C0.269,0.006 0.261,0.007 0.252,0.008C0.243,0.009 0.234,0.01 0.225,0.01C0.2,0.01 0.179,0.007 0.161,0C0.143,-0.006 0.128,-0.015 0.117,-0.028C0.105,-0.041 0.096,-0.057 0.091,-0.077C0.085,-0.096 0.083,-0.119 0.083,-0.146L0.083,-0.369L0.03,-0.369C0.024,-0.369 0.019,-0.373 0.016,-0.381C0.013,-0.388 0.011,-0.401 0.011,-0.419C0.011,-0.428 0.012,-0.436 0.012,-0.443C0.013,-0.449 0.014,-0.455 0.016,-0.458C0.018,-0.462 0.02,-0.465 0.022,-0.466C0.025,-0.468 0.028,-0.469 0.031,-0.469L0.083,-0.469L0.083,-0.566C0.083,-0.569 0.083,-0.572 0.085,-0.575C0.087,-0.577 0.09,-0.58 0.095,-0.581C0.1,-0.583 0.106,-0.584 0.114,-0.585C0.122,-0.586 0.132,-0.586 0.144,-0.586C0.156,-0.586 0.166,-0.586 0.174,-0.585C0.182,-0.584 0.188,-0.583 0.192,-0.581C0.197,-0.58 0.2,-0.577 0.202,-0.575C0.204,-0.572 0.205,-0.569 0.205,-0.566L0.205,-0.469L0.392,-0.469L0.392,-0.589C0.392,-0.593 0.393,-0.596 0.395,-0.598C0.397,-0.601 0.4,-0.603 0.405,-0.604C0.409,-0.606 0.416,-0.607 0.424,-0.608C0.432,-0.609 0.441,-0.61 0.453,-0.61C0.465,-0.61 0.475,-0.609 0.483,-0.608C0.491,-0.607 0.497,-0.606 0.502,-0.604C0.507,-0.603 0.51,-0.601 0.512,-0.598C0.514,-0.596 0.515,-0.593 0.515,-0.589L0.515,-0.469L0.796,-0.469C0.81,-0.469 0.819,-0.466 0.825,-0.46C0.83,-0.454 0.833,-0.446 0.833,-0.435L0.833,-0.017C0.833,-0.013 0.832,-0.01 0.83,-0.008C0.828,-0.006 0.825,-0.004 0.82,-0.002C0.816,-0 0.809,0.001 0.802,0.002C0.794,0.003 0.784,0.003 0.772,0.003C0.76,0.003 0.75,0.003 0.742,0.002C0.734,0.001 0.728,-0 0.723,-0.002C0.719,-0.004 0.715,-0.006 0.713,-0.008C0.711,-0.01 0.71,-0.013 0.71,-0.017L0.71,-0.369L0.515,-0.369L0.515,-0.165C0.515,-0.141 0.518,-0.123 0.526,-0.111C0.533,-0.099 0.546,-0.093 0.566,-0.093C0.572,-0.093 0.578,-0.094 0.583,-0.095C0.589,-0.096 0.593,-0.097 0.597,-0.099C0.601,-0.1 0.604,-0.102 0.607,-0.103C0.61,-0.104 0.613,-0.104 0.615,-0.104C0.617,-0.104 0.619,-0.104 0.621,-0.103C0.622,-0.102 0.624,-0.099 0.625,-0.096C0.626,-0.093 0.627,-0.088 0.628,-0.082C0.628,-0.076 0.629,-0.069 0.629,-0.06C0.629,-0.045 0.628,-0.034 0.626,-0.026C0.624,-0.019 0.622,-0.013 0.619,-0.01C0.616,-0.007 0.611,-0.005 0.606,-0.002C0.6,0 0.594,0.002 0.586,0.004C0.579,0.006 0.57,0.007 0.561,0.008C0.552,0.009 0.543,0.01 0.535,0.01C0.51,0.01 0.489,0.007 0.471,0C0.453,-0.006 0.438,-0.015 0.426,-0.028C0.415,-0.041 0.406,-0.057 0.4,-0.077C0.395,-0.096 0.392,-0.119 0.392,-0.146L0.392,-0.369L0.205,-0.369ZM0.843,-0.6C0.843,-0.575 0.838,-0.558 0.828,-0.548C0.818,-0.539 0.799,-0.534 0.771,-0.534C0.744,-0.534 0.725,-0.539 0.716,-0.548C0.706,-0.557 0.701,-0.573 0.701,-0.597C0.701,-0.622 0.706,-0.639 0.716,-0.649C0.726,-0.658 0.745,-0.663 0.772,-0.663C0.8,-0.663 0.818,-0.658 0.828,-0.649C0.838,-0.64 0.843,-0.623 0.843,-0.6Z" style="fill:rgb(73,130,243);fill-rule:nonzero;"/>
                    </g>
                    <g transform="matrix(170.638,0,0,170.638,4596.84,3728.83)">
                        <path d="M0.478,-0.017C0.478,-0.013 0.477,-0.01 0.475,-0.008C0.473,-0.006 0.469,-0.004 0.465,-0.002C0.46,-0 0.454,0.001 0.446,0.002C0.438,0.003 0.428,0.003 0.417,0.003C0.404,0.003 0.394,0.003 0.386,0.002C0.378,0.001 0.372,-0 0.368,-0.002C0.363,-0.004 0.36,-0.006 0.358,-0.008C0.356,-0.01 0.355,-0.013 0.355,-0.017L0.355,-0.265C0.355,-0.286 0.353,-0.303 0.35,-0.315C0.347,-0.327 0.343,-0.337 0.337,-0.346C0.331,-0.355 0.323,-0.361 0.314,-0.366C0.305,-0.371 0.294,-0.373 0.282,-0.373C0.266,-0.373 0.25,-0.367 0.234,-0.356C0.218,-0.345 0.202,-0.328 0.185,-0.306L0.185,-0.017C0.185,-0.013 0.184,-0.01 0.182,-0.008C0.18,-0.006 0.176,-0.004 0.172,-0.002C0.167,-0 0.161,0.001 0.153,0.002C0.145,0.003 0.135,0.003 0.123,0.003C0.111,0.003 0.101,0.003 0.093,0.002C0.085,0.001 0.079,-0 0.074,-0.002C0.07,-0.004 0.066,-0.006 0.064,-0.008C0.063,-0.01 0.062,-0.013 0.062,-0.017L0.062,-0.452C0.062,-0.455 0.062,-0.458 0.064,-0.461C0.066,-0.463 0.069,-0.465 0.073,-0.467C0.077,-0.468 0.082,-0.47 0.089,-0.47C0.096,-0.471 0.104,-0.472 0.114,-0.472C0.125,-0.472 0.133,-0.471 0.14,-0.47C0.147,-0.47 0.152,-0.468 0.156,-0.467C0.16,-0.465 0.162,-0.463 0.164,-0.461C0.166,-0.458 0.167,-0.455 0.167,-0.452L0.167,-0.402C0.191,-0.428 0.215,-0.447 0.24,-0.46C0.265,-0.473 0.291,-0.48 0.318,-0.48C0.347,-0.48 0.372,-0.475 0.393,-0.465C0.413,-0.456 0.43,-0.442 0.442,-0.426C0.455,-0.409 0.464,-0.389 0.469,-0.367C0.475,-0.344 0.478,-0.317 0.478,-0.286L0.478,-0.017Z" style="fill:rgb(73,130,243);fill-rule:nonzero;"/>
                    </g>
                    <g transform="matrix(170.638,0,0,170.638,4688.41,3728.83)">
                        <path d="M0.454,-0.422C0.454,-0.406 0.452,-0.395 0.449,-0.387C0.445,-0.38 0.441,-0.376 0.436,-0.376L0.384,-0.376C0.391,-0.368 0.397,-0.359 0.4,-0.349C0.403,-0.339 0.404,-0.329 0.404,-0.318C0.404,-0.293 0.4,-0.27 0.392,-0.251C0.383,-0.231 0.371,-0.214 0.355,-0.201C0.339,-0.187 0.32,-0.177 0.298,-0.17C0.276,-0.163 0.251,-0.16 0.224,-0.16C0.21,-0.16 0.196,-0.161 0.184,-0.165C0.171,-0.168 0.161,-0.172 0.154,-0.177C0.15,-0.173 0.147,-0.167 0.144,-0.162C0.141,-0.156 0.139,-0.149 0.139,-0.142C0.139,-0.133 0.143,-0.125 0.152,-0.119C0.16,-0.113 0.172,-0.11 0.187,-0.109L0.292,-0.105C0.317,-0.104 0.339,-0.101 0.359,-0.094C0.378,-0.088 0.394,-0.08 0.407,-0.069C0.421,-0.058 0.431,-0.045 0.438,-0.03C0.445,-0.014 0.448,0.003 0.448,0.022C0.448,0.044 0.444,0.064 0.434,0.083C0.425,0.102 0.41,0.119 0.392,0.133C0.373,0.147 0.349,0.158 0.321,0.166C0.292,0.174 0.259,0.178 0.221,0.178C0.184,0.178 0.152,0.175 0.126,0.169C0.1,0.164 0.078,0.155 0.061,0.145C0.045,0.135 0.032,0.122 0.025,0.108C0.017,0.093 0.013,0.077 0.013,0.06C0.013,0.049 0.015,0.039 0.017,0.029C0.02,0.02 0.024,0.01 0.03,0.001C0.035,-0.008 0.042,-0.016 0.049,-0.024C0.057,-0.033 0.066,-0.04 0.076,-0.048C0.062,-0.055 0.051,-0.066 0.044,-0.078C0.036,-0.091 0.032,-0.105 0.032,-0.121C0.032,-0.14 0.037,-0.157 0.045,-0.173C0.054,-0.189 0.066,-0.203 0.08,-0.216C0.068,-0.227 0.059,-0.241 0.052,-0.257C0.045,-0.273 0.042,-0.293 0.042,-0.316C0.042,-0.342 0.046,-0.365 0.055,-0.385C0.064,-0.405 0.077,-0.421 0.093,-0.435C0.109,-0.449 0.128,-0.46 0.15,-0.467C0.172,-0.474 0.196,-0.478 0.223,-0.478C0.237,-0.478 0.25,-0.477 0.262,-0.476C0.275,-0.474 0.287,-0.472 0.297,-0.469L0.436,-0.469C0.441,-0.469 0.446,-0.465 0.449,-0.458C0.452,-0.451 0.454,-0.439 0.454,-0.422ZM0.296,-0.319C0.296,-0.342 0.29,-0.361 0.277,-0.374C0.264,-0.387 0.245,-0.393 0.222,-0.393C0.21,-0.393 0.199,-0.391 0.19,-0.387C0.181,-0.383 0.173,-0.377 0.167,-0.37C0.161,-0.363 0.157,-0.355 0.154,-0.346C0.151,-0.337 0.149,-0.327 0.149,-0.317C0.149,-0.295 0.156,-0.277 0.169,-0.264C0.182,-0.252 0.2,-0.245 0.223,-0.245C0.236,-0.245 0.246,-0.247 0.255,-0.251C0.264,-0.255 0.272,-0.26 0.278,-0.267C0.284,-0.274 0.289,-0.282 0.292,-0.291C0.295,-0.3 0.296,-0.309 0.296,-0.319ZM0.325,0.029C0.325,0.014 0.319,0.003 0.308,-0.005C0.296,-0.013 0.28,-0.017 0.259,-0.018L0.172,-0.02C0.163,-0.014 0.157,-0.008 0.152,-0.002C0.147,0.003 0.142,0.009 0.139,0.014C0.136,0.019 0.134,0.024 0.133,0.029C0.132,0.034 0.132,0.039 0.132,0.044C0.132,0.061 0.14,0.073 0.156,0.082C0.173,0.09 0.196,0.094 0.226,0.094C0.245,0.094 0.26,0.092 0.273,0.089C0.286,0.085 0.296,0.08 0.304,0.074C0.312,0.068 0.317,0.061 0.32,0.053C0.324,0.045 0.325,0.037 0.325,0.029Z" style="fill:rgb(73,130,243);fill-rule:nonzero;"/>
                    </g>
                </g>
                <g id="setting" transform="matrix(0.530538,0,0,0.640275,-293.312,28.2877)">
                    <g transform="matrix(0.54008,0,0,3.76197,-27284.7,-13377.4)">
                        <path d="M51782.4,3719.52C51782.4,3714.91 51773,3711.16 51761.4,3711.16L51652.6,3711.16C51641.1,3711.16 51631.7,3714.91 51631.7,3719.52L51631.7,3762.53C51631.7,3767.14 51641.1,3770.89 51652.6,3770.89L51761.4,3770.89C51773,3770.89 51782.4,3767.14 51782.4,3762.53L51782.4,3719.52Z" style="fill:rgb(73,130,243);"/>
                    </g>
                    <g transform="matrix(1.41269,-1.81752,0.688743,3.97261,-435.082,-502.019)">
                        <g id="setting1" serif:id="setting">
                            <path d="M506.983,543.569C504.315,544.544 501.369,543.169 500.393,540.504C499.421,537.837 500.792,534.889 503.458,533.915C506.124,532.942 509.073,534.314 510.048,536.979C511.022,539.645 509.647,542.598 506.983,543.569ZM519.445,531.892C519.307,531.519 518.893,531.326 518.52,531.463L517.275,531.915C516.896,532.052 516.399,531.906 516.164,531.586L513.024,528.249C512.723,527.992 512.607,527.487 512.776,527.127L513.31,525.977C513.479,525.614 513.32,525.183 512.961,525.017L510.192,523.726C509.832,523.558 509.401,523.715 509.23,524.078L508.65,525.331C508.479,525.693 508.016,525.943 507.626,525.889L503.681,525.772C503.285,525.8 502.847,525.517 502.712,525.145L502.248,523.87C502.111,523.497 501.692,523.305 501.322,523.44L498.448,524.488C498.077,524.624 497.881,525.041 498.017,525.413L498.483,526.69C498.618,527.059 498.47,527.563 498.151,527.801L494.788,530.968C494.536,531.272 494.035,531.382 493.673,531.22L492.453,530.649C492.091,530.482 491.658,530.638 491.493,531.001L490.203,533.772C490.033,534.133 490.191,534.565 490.554,534.732L491.884,535.353C492.25,535.519 492.499,535.976 492.447,536.375L492.335,540.28C492.37,540.678 492.085,541.114 491.711,541.248L490.357,541.742C489.983,541.879 489.792,542.296 489.929,542.67L490.976,545.538C491.111,545.914 491.528,546.11 491.9,545.974L493.253,545.48C493.628,545.344 494.128,545.487 494.368,545.808L497.465,549.127C497.775,549.38 497.884,549.882 497.721,550.242L497.127,551.512C496.96,551.872 497.117,552.304 497.476,552.47L500.25,553.755C500.611,553.928 501.042,553.772 501.207,553.408L501.841,552.055C502.01,551.693 502.463,551.446 502.858,551.501L506.848,551.618C507.243,551.592 507.678,551.877 507.814,552.249L508.299,553.578C508.436,553.95 508.854,554.143 509.224,554.007L512.094,552.959C512.469,552.824 512.664,552.406 512.526,552.032L512.042,550.703C511.908,550.332 512.056,549.835 512.38,549.596L515.667,546.522C515.927,546.221 516.422,546.11 516.787,546.275L517.985,546.837C518.346,547.001 518.78,546.846 518.947,546.486L520.235,543.713C520.406,543.351 520.248,542.92 519.885,542.755L518.607,542.162C518.25,541.99 518.002,541.534 518.056,541.141L518.184,537.114C518.151,536.718 518.442,536.284 518.817,536.142L520.064,535.687C520.432,535.553 520.628,535.136 520.492,534.763L519.445,531.892Z" style="fill:white;"/>
                        </g>
                    </g>
                    <g transform="matrix(1.07833,0,0,3.03236,76.99,-993.484)">
                        <g id="setting2" serif:id="setting">
                            <path d="M506.983,543.569C504.315,544.544 501.369,543.169 500.393,540.504C499.421,537.837 500.792,534.889 503.458,533.915C506.124,532.942 509.073,534.314 510.048,536.979C511.022,539.645 509.647,542.598 506.983,543.569ZM519.445,531.892C519.307,531.519 518.893,531.326 518.52,531.463L517.275,531.915C516.896,532.052 516.399,531.906 516.164,531.586L513.024,528.249C512.723,527.992 512.607,527.487 512.776,527.127L513.31,525.977C513.479,525.614 513.32,525.183 512.961,525.017L510.192,523.726C509.832,523.558 509.401,523.715 509.23,524.078L508.65,525.331C508.479,525.693 508.016,525.943 507.626,525.889L503.681,525.772C503.285,525.8 502.847,525.517 502.712,525.145L502.248,523.87C502.111,523.497 501.692,523.305 501.322,523.44L498.448,524.488C498.077,524.624 497.881,525.041 498.017,525.413L498.483,526.69C498.618,527.059 498.47,527.563 498.151,527.801L494.788,530.968C494.536,531.272 494.035,531.382 493.673,531.22L492.453,530.649C492.091,530.482 491.658,530.638 491.493,531.001L490.203,533.772C490.033,534.133 490.191,534.565 490.554,534.732L491.884,535.353C492.25,535.519 492.499,535.976 492.447,536.375L492.335,540.28C492.37,540.678 492.085,541.114 491.711,541.248L490.357,541.742C489.983,541.879 489.792,542.296 489.929,542.67L490.976,545.538C491.111,545.914 491.528,546.11 491.9,545.974L493.253,545.48C493.628,545.344 494.128,545.487 494.368,545.808L497.465,549.127C497.775,549.38 497.884,549.882 497.721,550.242L497.127,551.512C496.96,551.872 497.117,552.304 497.476,552.47L500.25,553.755C500.611,553.928 501.042,553.772 501.207,553.408L501.841,552.055C502.01,551.693 502.463,551.446 502.858,551.501L506.848,551.618C507.243,551.592 507.678,551.877 507.814,552.249L508.299,553.578C508.436,553.95 508.854,554.143 509.224,554.007L512.094,552.959C512.469,552.824 512.664,552.406 512.526,552.032L512.042,550.703C511.908,550.332 512.056,549.835 512.38,549.596L515.667,546.522C515.927,546.221 516.422,546.11 516.787,546.275L517.985,546.837C518.346,547.001 518.78,546.846 518.947,546.486L520.235,543.713C520.406,543.351 520.248,542.92 519.885,542.755L518.607,542.162C518.25,541.99 518.002,541.534 518.056,541.141L518.184,537.114C518.151,536.718 518.442,536.284 518.817,536.142L520.064,535.687C520.432,535.553 520.628,535.136 520.492,534.763L519.445,531.892Z" style="fill:white;"/>
                        </g>
                    </g>
                </g>
            </g>
        </g>
    </g>
</svg>
